<svg viewBox="0 0 330 200" xmlns="http://www.w3.org/2000/svg"><g><g><g><g><g><line x1="58" y1="178" x2="53" y2="178" style="visibility: inherit;" fill="rgb(0, 0, 0)" stroke="rgb(204, 204, 204)" stroke-width="1px"></line><line x1="58" y1="163.16666666666666" x2="53" y2="163.16666666666666" style="visibility: inherit;" fill="rgb(0, 0, 0)" stroke="rgb(204, 204, 204)" stroke-width="1px"></line><line x1="58" y1="148.33333333333334" x2="53" y2="148.33333333333334" style="visibility: inherit;" fill="rgb(0, 0, 0)" stroke="rgb(204, 204, 204)" stroke-width="1px"></line><line x1="58" y1="133.5" x2="53" y2="133.5" style="visibility: inherit;" fill="rgb(0, 0, 0)" stroke="rgb(204, 204, 204)" stroke-width="1px"></line><line x1="58" y1="118.66666666666667" x2="53" y2="118.66666666666667" style="visibility: inherit;" fill="rgb(0, 0, 0)" stroke="rgb(204, 204, 204)" stroke-width="1px"></line><line x1="58" y1="103.83333333333334" x2="53" y2="103.83333333333334" style="visibility: inherit;" fill="rgb(0, 0, 0)" stroke="rgb(204, 204, 204)" stroke-width="1px"></line><line x1="58" y1="89.00000000000001" x2="53" y2="89.00000000000001" style="visibility: inherit;" fill="rgb(0, 0, 0)" stroke="rgb(204, 204, 204)" stroke-width="1px"></line><line x1="58" y1="74.16666666666669" x2="53" y2="74.16666666666669" style="visibility: inherit;" fill="rgb(0, 0, 0)" stroke="rgb(204, 204, 204)" stroke-width="1px"></line><line x1="58" y1="59.33333333333336" x2="53" y2="59.33333333333336" style="visibility: inherit;" fill="rgb(0, 0, 0)" stroke="rgb(204, 204, 204)" stroke-width="1px"></line><line x1="58" y1="44.50000000000003" x2="53" y2="44.50000000000003" style="visibility: inherit;" fill="rgb(0, 0, 0)" stroke="rgb(204, 204, 204)" stroke-width="1px"></line><line x1="58" y1="29.666666666666686" x2="53" y2="29.666666666666686" style="visibility: inherit;" fill="rgb(0, 0, 0)" stroke="rgb(204, 204, 204)" stroke-width="1px"></line><line x1="58" y1="14.833333333333343" x2="53" y2="14.833333333333343" style="visibility: inherit;" fill="rgb(0, 0, 0)" stroke="rgb(204, 204, 204)" stroke-width="1px"></line><line x1="58" y1="0" x2="53" y2="0" style="visibility: inherit;" fill="rgb(0, 0, 0)" stroke="rgb(204, 204, 204)" stroke-width="1px"></line></g><g transform="translate(48, 0)"><text x="0" y="178" dx="0em" dy="0.3em" style="text-anchor: end; visibility: hidden; font-family: &quot;Helvetica Neue&quot;, sans-serif; font-size: 12px; font-weight: 200;" fill="rgb(50, 49, 63)" stroke="none" stroke-width="1px">-0.1</text><text x="0" y="163.16666666666666" dx="0em" dy="0.3em" style="text-anchor: end; visibility: inherit; font-family: &quot;Helvetica Neue&quot;, sans-serif; font-size: 12px; font-weight: 200;" fill="rgb(50, 49, 63)" stroke="none" stroke-width="1px">0</text><text x="0" y="148.33333333333334" dx="0em" dy="0.3em" style="text-anchor: end; visibility: hidden; font-family: &quot;Helvetica Neue&quot;, sans-serif; font-size: 12px; font-weight: 200;" fill="rgb(50, 49, 63)" stroke="none" stroke-width="1px">0.1</text><text x="0" y="133.5" dx="0em" dy="0.3em" style="text-anchor: end; visibility: inherit; font-family: &quot;Helvetica Neue&quot;, sans-serif; font-size: 12px; font-weight: 200;" fill="rgb(50, 49, 63)" stroke="none" stroke-width="1px">0.2</text><text x="0" y="118.66666666666667" dx="0em" dy="0.3em" style="text-anchor: end; visibility: hidden; font-family: &quot;Helvetica Neue&quot;, sans-serif; font-size: 12px; font-weight: 200;" fill="rgb(50, 49, 63)" stroke="none" stroke-width="1px">0.3</text><text x="0" y="103.83333333333334" dx="0em" dy="0.3em" style="text-anchor: end; visibility: inherit; font-family: &quot;Helvetica Neue&quot;, sans-serif; font-size: 12px; font-weight: 200;" fill="rgb(50, 49, 63)" stroke="none" stroke-width="1px">0.4</text><text x="0" y="89.00000000000001" dx="0em" dy="0.3em" style="text-anchor: end; visibility: hidden; font-family: &quot;Helvetica Neue&quot;, sans-serif; font-size: 12px; font-weight: 200;" fill="rgb(50, 49, 63)" stroke="none" stroke-width="1px">0.5</text><text x="0" y="74.16666666666669" dx="0em" dy="0.3em" style="text-anchor: end; visibility: inherit; font-family: &quot;Helvetica Neue&quot;, sans-serif; font-size: 12px; font-weight: 200;" fill="rgb(50, 49, 63)" stroke="none" stroke-width="1px">0.6</text><text x="0" y="59.33333333333336" dx="0em" dy="0.3em" style="text-anchor: end; visibility: hidden; font-family: &quot;Helvetica Neue&quot;, sans-serif; font-size: 12px; font-weight: 200;" fill="rgb(50, 49, 63)" stroke="none" stroke-width="1px">0.7</text><text x="0" y="44.50000000000003" dx="0em" dy="0.3em" style="text-anchor: end; visibility: inherit; font-family: &quot;Helvetica Neue&quot;, sans-serif; font-size: 12px; font-weight: 200;" fill="rgb(50, 49, 63)" stroke="none" stroke-width="1px">0.8</text><text x="0" y="29.666666666666686" dx="0em" dy="0.3em" style="text-anchor: end; visibility: hidden; font-family: &quot;Helvetica Neue&quot;, sans-serif; font-size: 12px; font-weight: 200;" fill="rgb(50, 49, 63)" stroke="none" stroke-width="1px">0.9</text><text x="0" y="14.833333333333343" dx="0em" dy="0.3em" style="text-anchor: end; visibility: inherit; font-family: &quot;Helvetica Neue&quot;, sans-serif; font-size: 12px; font-weight: 200;" fill="rgb(50, 49, 63)" stroke="none" stroke-width="1px">1</text><text x="0" y="0" dx="0em" dy="0.3em" style="text-anchor: end; visibility: hidden; font-family: &quot;Helvetica Neue&quot;, sans-serif; font-size: 12px; font-weight: 200;" fill="rgb(50, 49, 63)" stroke="none" stroke-width="1px">1.1</text></g><line x1="58" y1="0" x2="58" y2="178" fill="rgb(0, 0, 0)" stroke="rgb(204, 204, 204)" stroke-width="1px"></line></g></g><g transform="translate(58, 0)" clip-path="url(#clip_0)"><clipPath id="clip_0"><rect width="271" height="177"></rect></clipPath><g><g><g><line x1="0" y1="0" x2="0" y2="178" fill="rgb(0, 0, 0)" stroke="rgb(60, 60, 60)" stroke-width="1px" opacity="0.25"></line><line x1="30.22222222222222" y1="0" x2="30.22222222222222" y2="178" fill="rgb(0, 0, 0)" stroke="rgb(60, 60, 60)" stroke-width="1px" opacity="0.25"></line><line x1="60.44444444444444" y1="0" x2="60.44444444444444" y2="178" fill="rgb(0, 0, 0)" stroke="rgb(60, 60, 60)" stroke-width="1px" opacity="0.25"></line><line x1="90.66666666666666" y1="0" x2="90.66666666666666" y2="178" fill="rgb(0, 0, 0)" stroke="rgb(60, 60, 60)" stroke-width="1px" opacity="0.25"></line><line x1="120.88888888888889" y1="0" x2="120.88888888888889" y2="178" fill="rgb(0, 0, 0)" stroke="rgb(60, 60, 60)" stroke-width="1px" opacity="0.25"></line><line x1="151.11111111111111" y1="0" x2="151.11111111111111" y2="178" fill="rgb(0, 0, 0)" stroke="rgb(60, 60, 60)" stroke-width="1px" opacity="0.25"></line><line x1="181.33333333333331" y1="0" x2="181.33333333333331" y2="178" fill="rgb(0, 0, 0)" stroke="rgb(60, 60, 60)" stroke-width="1px" opacity="0.25"></line><line x1="211.55555555555557" y1="0" x2="211.55555555555557" y2="178" fill="rgb(0, 0, 0)" stroke="rgb(60, 60, 60)" stroke-width="1px" opacity="0.25"></line><line x1="241.77777777777777" y1="0" x2="241.77777777777777" y2="178" fill="rgb(0, 0, 0)" stroke="rgb(60, 60, 60)" stroke-width="1px" opacity="0.25"></line><line x1="272" y1="0" x2="272" y2="178" fill="rgb(0, 0, 0)" stroke="rgb(60, 60, 60)" stroke-width="1px" opacity="0.25"></line></g><g><line x1="0" y1="178" x2="272" y2="178" fill="rgb(0, 0, 0)" stroke="rgb(60, 60, 60)" stroke-width="1px" opacity="0.25"></line><line x1="0" y1="163.16666666666666" x2="272" y2="163.16666666666666" fill="rgb(0, 0, 0)" stroke="rgb(60, 60, 60)" stroke-width="1px" opacity="0.25"></line><line x1="0" y1="148.33333333333334" x2="272" y2="148.33333333333334" fill="rgb(0, 0, 0)" stroke="rgb(60, 60, 60)" stroke-width="1px" opacity="0.25"></line><line x1="0" y1="133.5" x2="272" y2="133.5" fill="rgb(0, 0, 0)" stroke="rgb(60, 60, 60)" stroke-width="1px" opacity="0.25"></line><line x1="0" y1="118.66666666666667" x2="272" y2="118.66666666666667" fill="rgb(0, 0, 0)" stroke="rgb(60, 60, 60)" stroke-width="1px" opacity="0.25"></line><line x1="0" y1="103.83333333333334" x2="272" y2="103.83333333333334" fill="rgb(0, 0, 0)" stroke="rgb(60, 60, 60)" stroke-width="1px" opacity="0.25"></line><line x1="0" y1="89.00000000000001" x2="272" y2="89.00000000000001" fill="rgb(0, 0, 0)" stroke="rgb(60, 60, 60)" stroke-width="1px" opacity="0.25"></line><line x1="0" y1="74.16666666666669" x2="272" y2="74.16666666666669" fill="rgb(0, 0, 0)" stroke="rgb(60, 60, 60)" stroke-width="1px" opacity="0.25"></line><line x1="0" y1="59.33333333333336" x2="272" y2="59.33333333333336" fill="rgb(0, 0, 0)" stroke="rgb(60, 60, 60)" stroke-width="1px" opacity="0.25"></line><line x1="0" y1="44.50000000000003" x2="272" y2="44.50000000000003" fill="rgb(0, 0, 0)" stroke="rgb(60, 60, 60)" stroke-width="1px" opacity="0.25"></line><line x1="0" y1="29.666666666666686" x2="272" y2="29.666666666666686" fill="rgb(0, 0, 0)" stroke="rgb(60, 60, 60)" stroke-width="1px" opacity="0.25"></line><line x1="0" y1="14.833333333333343" x2="272" y2="14.833333333333343" fill="rgb(0, 0, 0)" stroke="rgb(60, 60, 60)" stroke-width="1px" opacity="0.25"></line><line x1="0" y1="0" x2="272" y2="0" fill="rgb(0, 0, 0)" stroke="rgb(60, 60, 60)" stroke-width="1px" opacity="0.25"></line></g></g></g><g><g><line x1="0" y1="163.16666666666666" x2="272" y2="163.16666666666666" fill="rgb(0, 0, 0)" stroke="rgb(153, 153, 153)" stroke-width="1.5px"></line></g></g><g><g><line x1="30.22222222222222" y1="0" x2="30.22222222222222" y2="178" fill="rgb(0, 0, 0)" stroke="rgb(153, 153, 153)" stroke-width="1.5px"></line></g></g><g><g><g><g><g><path stroke="rgb(204, 51, 17)" stroke-width="2px" d="M30.39312888888889,16.51098056634268L30.53562666666667,17.385219338039576L30.66830222222222,18.317316437254163L30.783448888888888,19.247977579049063L30.930026666666667,20.346733164806636L31.088995555555556,21.60336212480405L31.242675555555554,22.93953345170422L31.36688888888889,24.212941371428087L31.482035555555555,25.41987955134303L31.643422222222224,26.77374679884383L31.78576888888889,28.141766175169437L31.945493333333335,29.587915339986296L32.074239999999996,30.959769046321924L32.22535111111111,32.375531752070515L32.38930666666666,33.86834922187771L32.52198222222222,35.28468418764044L32.65072888888889,36.63983187138217L32.792320000000004,38.008785183608666L32.936933333333336,39.39792294021464L33.06568,40.73689032373838L33.20198222222222,42.0754361023987L33.372284444444446,43.547239451458125L33.50828444444444,44.96431347787558L33.62766222222222,46.28328626315968L33.75187555555556,47.56238832713365L33.89467555555556,48.89054928667818L34.03173333333333,50.22559706186921L34.15594666666667,51.51434615806423L34.30962666666667,52.89101431761286L34.45892444444445,54.30322872622732L34.61819555555556,55.775931094869875L34.74981333333333,57.176343815589306L34.90893333333333,58.6413746443001L35.06654222222222,60.13923849781024L35.205262222222224,61.582637347475355L35.365742222222224,63.07879652793386L35.53619555555556,64.64577204292306L35.73309333333333,66.35907024168544L35.896142222222224,68.02725525685419L36.1148,69.88671848220798L36.339955555555555,71.88646478640396L36.51811555555555,73.7858512362284L36.73798222222222,75.78878489952159L36.912968888888884,77.67762452687286L37.133742222222224,79.67778785840878L37.31039111111111,81.5714937438728L37.48764444444445,83.4036946450459L37.78911111111111,85.68671709829454L37.99008888888889,87.84566399974881L38.209048888888894,90.00077086802034L38.45762666666667,92.26986937195593L38.66102222222222,94.42995575152788L38.89645333333333,96.65042082319819L39.12176,98.8673588386211L39.35416888888889,101.11006802426121L39.58688,103.36942819023024L39.79133333333333,105.52782346763595L40.126799999999996,108.1400599437462L40.37326222222222,110.67512887463035L40.601440000000004,113.09210370229731L40.87011555555555,115.5972356175208L41.17067555555556,118.28045538116442L41.49783111111111,121.17495310534412L41.759253333333334,123.9381180995467L42.044399999999996,126.71563774707494L42.32153777777778,129.47032236871667L42.58643555555555,132.163247017965L42.83894222222222,134.77046170368112L43.15521777777777,137.5766367189148L43.550071111111116,140.81072206728015L43.89536,144.1069399054787L44.38118222222222,147.9922372948691L44.841164444444445,152.12952233313908L45.30704,155.3577134264075L45.76732444444445,157.29462808236858L46.08254222222222,158.45677687594522L46.53270222222223,159.1540661520912L46.924080000000004,159.5724397177788L47.24760888888889,159.82346385719134L47.60619555555556,159.97407834083887L47.91536888888889,160.06444703102738L48.28755555555556,160.1186682451405L48.55366222222222,160.15120097360835L48.83472888888889,160.1707206106891L49.14118222222222,160.18243239293753L49.42632888888889,160.18945946228658L49.69636444444444,160.19367570389602L50.007200000000005,160.1962054488617L50.2724,160.1977232958411L50.548026666666665,160.19863400402872L50.819875555555555,160.1991804289413L51.174533333333336,160.19950828388883L51.516951111111105,160.19970499685738L51.79499555555555,160.19982302463848L52.119884444444445,160.19989384130716L52.41576,160.19993633130838L52.73853333333333,160.1999618253091L53.08185777777778,160.1999771217095L53.33360888888889,160.19998629954978L53.69113777777778,160.19999180625393L54.03536888888889,160.19999511027643L54.317795555555556,160.19999709268993L54.62213333333334,160.199998282138L54.90184,160.19999899580688L55.30183111111111,160.19999942400818L55.645608888888894,160.19999968092898L55.94632,160.19999983508146L56.25624888888889,160.19999992757295L56.54759111111111,160.19999998306784L56.88064,160.20000001636475L57.150977777777776,160.20000003634294L57.40333333333333,160.20000004832983L57.65538666666667,160.20000005552197L57.96728,160.20000005983724L58.28234666666667,160.20000006242643L58.56673777777778,160.20000006397993L58.81652444444445,160.20000006491202L59.08202666666667,160.20000006547127L59.37397333333333,160.20000006580685L59.664862222222226,160.20000006600816L59.956355555555554,160.20000006612898L60.256462222222225,160.20000006620145L60.56654222222222,160.20000006624494L60.91016888888889,160.20000006627103L61.18352888888889,160.2000000662867L61.45296,160.20000006629607L61.72057777777778,160.20000006630173L62.05634666666667,160.2000000663051L62.33167111111111,160.20000006630713L62.63344,160.20000006630835L62.934755555555554,160.2000000663091L63.20040888888889,160.2000000663095L63.479511111111115,160.20000006630977L63.74682666666667,160.20000006630994L63.99888,160.20000006631003L64.30850666666666,160.20000006631008L64.66633777777778,160.2000000663101L64.93531555555555,160.20000006631014L65.28135999999999,160.20000006631014L65.56152,160.20000006631017L65.85044444444445,160.20000006631017L66.18953777777777,160.20000006631017L66.53301333333333,160.20000006631017L66.89371555555556,160.20000006631017L67.19412444444444,160.20000006631017L67.44648,160.20000006631017L67.74507555555556,160.20000006631017L67.99743111111111,160.20000006631017L68.30796444444444,160.20000006631017L68.58102222222223,160.20000006631017L68.93598222222222,160.20000006631017L69.20239111111111,160.20000006631017L69.50325333333333,160.20000006631017L69.77812444444446,160.20000006631017L70.05934222222221,160.20000006631017L70.46084444444443,160.20000006631017L70.73118222222222,160.20000006631017L71.04096000000001,160.20000006631017L71.32399111111111,160.20000006631017L71.59901333333333,160.20000006631017L71.87373333333333,160.20000006631017L72.14482666666667,160.20000006631017L72.43224000000001,160.20000006631017L72.72025777777777,160.20000006631017L72.99467555555556,160.20000006631017L73.29961777777778,160.20000006631017L73.61710222222223,160.20000006631017L73.93368,160.20000006631017L74.23000888888889,160.20000006631017L74.5008,160.20000006631017L74.77521777777777,160.20000006631017L75.07713777777778,160.20000006631017L75.38102222222223,160.20000006631017L75.69231111111111,160.20000006631017L75.94799111111112,160.20000006631017L76.30053333333333,160.20000006631017L76.5692088888889,160.20000006631017L76.82594666666667,160.20000006631017L77.12242666666667,160.20000006631017L77.39457777777778,160.20000006631017L77.76933333333334,160.20000006631017L78.06566222222223,160.20000006631017L78.31696000000001,160.20000006631017L78.60467555555556,160.20000006631017L78.90221333333334,160.20000006631017L79.20791111111112,160.20000006631017L79.48943111111112,160.20000006631017L79.7733688888889,160.20000006631017L80.09553777777778,160.20000006631017L80.36300444444444,160.20000006631017L80.68925333333333,160.20000006631017L80.95505777777778,160.20000006631017L81.28327111111112,160.20000006631017L81.60347555555556,160.20000006631017L81.89829333333334,160.20000006631017L82.15457777777779,160.20000006631017L82.41131555555555,160.20000006631017L82.70673777777778,160.20000006631017L83.01198222222223,160.20000006631017L83.26796444444443,160.20000006631017L83.54192888888889,160.20000006631017L83.85654222222222,160.20000006631017L84.18792888888888,160.20000006631017L84.45207111111111,160.20000006631017L84.73011555555556,160.20000006631017L85.05439999999999,160.20000006631017L85.40815111111111,160.20000006631017L85.67728,160.20000006631017L85.94293333333333,160.20000006631017L86.19468444444445,160.20000006631017L86.51927111111111,160.20000006631017L86.78794666666667,160.20000006631017L87.07823111111111,160.20000006631017L87.34192,160.20000006631017L87.65925333333333,160.20000006631017L87.91387555555556,160.20000006631017L88.16940444444445,160.20000006631017L88.43505777777779,160.20000006631017L88.73788444444445,160.20000006631017L88.98963555555555,160.20000006631017L89.23594666666666,160.20000006631017L89.52094222222222,160.20000006631017L89.84628444444444,160.20000006631017L90.1708711111111,160.20000006631017L90.43954666666667,160.20000006631017L90.7596,160.20000006631017L91.01392,160.20000006631017L91.29816,160.20000006631017L91.54447111111111,160.20000006631017L91.80951999999999,160.20000006631017L92.09889777777778,160.20000006631017L92.40338666666668,160.20000006631017L92.77421333333334,160.20000006631017L93.08943111111111,160.20000006631017L93.36490666666667,160.20000006631017L93.69538666666666,160.20000006631017L93.94154666666665,160.20000006631017L94.27701333333333,160.20000006631017L94.56064888888889,160.20000006631017L94.81240000000001,160.20000006631017L95.0842488888889,160.20000006631017L95.35443555555555,160.20000006631017L95.60074666666668,160.20000006631017L95.87017777777778,160.20000006631017L96.1164888888889,160.20000006631017L96.38803555555556,160.20000006631017L96.65429333333333,160.20000006631017L96.99323555555554,160.20000006631017L97.27732444444445,160.20000006631017L97.5526488888889,160.20000006631017L97.84187555555556,160.20000006631017L98.12626666666667,160.20000006631017L98.39872000000001,160.20000006631017L98.71015999999999,160.20000006631017L98.99243555555556,160.20000006631017L99.26806222222221,160.20000006631017L99.56590222222222,160.20000006631017L99.87522666666666,160.20000006631017L100.16143111111111,160.20000006631017L100.47181333333333,160.20000006631017L100.73656,160.20000006631017L100.99118222222222,160.20000006631017L101.26424,160.20000006631017L101.58792,160.20000006631017L101.83408,160.20000006631017L102.09081777777779,160.20000006631017L102.35148444444444,160.20000006631017L102.6363288888889,160.20000006631017L102.89125333333332,160.20000006631017L103.13711111111111,160.20000006631017L103.39233777777778,160.20000006631017L103.66479111111111,160.20000006631017L103.9392088888889,160.20000006631017L104.19670222222223,160.20000006631017L104.46628444444444,160.20000006631017L104.76019555555555,160.20000006631017L105.03234666666665,160.20000006631017L105.3196088888889,160.20000006631017L105.5742311111111,160.20000006631017L105.8203911111111,160.20000006631017L106.08861333333333,160.20000006631017L106.35608,160.20000006631017L106.63488,160.20000006631017L106.88088888888889,160.20000006631017L107.12689777777778,160.20000006631017L107.37290666666667,160.20000006631017L107.67089777777777,160.20000006631017L107.91751111111111,160.20000006631017L108.21429333333333,160.20000006631017L108.52739555555556,160.20000006631017L108.81405333333333,160.20000006631017L109.06353777777777,160.20000006631017L109.34037333333333,160.20000006631017L109.64244444444444,160.20000006631017L109.94028444444444,160.20000006631017L110.18659555555556,160.20000006631017L110.44952888888889,160.20000006631017L110.70944,160.20000006631017L110.95559999999999,160.20000006631017L111.22548444444445,160.20000006631017L111.47179555555554,160.20000006631017L111.74666666666667,160.20000006631017L112.00038222222223,160.20000006631017L112.26588444444445,160.20000006631017L112.51718222222223,160.20000006631017L112.77301333333334,160.20000006631017L113.02219555555556,160.20000006631017L113.29177777777778,160.20000006631017L113.60850666666666,160.20000006631017L113.87234666666667,160.20000006631017L114.11896,160.20000006631017L114.37494222222223,160.20000006631017L114.62125333333333,160.20000006631017L114.90368,160.20000006631017L115.15769777777777,160.20000006631017L115.4206311111111,160.20000006631017L115.68870222222223,160.20000006631017L115.98200888888888,160.20000006631017L116.26171555555555,160.20000006631017L116.56544888888888,160.20000006631017L116.82369777777777,160.20000006631017L117.09917333333334,160.20000006631017L117.4154488888889,160.20000006631017L117.66160888888889,160.20000006631017L117.91744,160.20000006631017L118.1691911111111,160.20000006631017L118.41535111111112,160.20000006631017L118.67042666666667,160.20000006631017L118.93320888888888,160.20000006631017L119.18692444444444,160.20000006631017L119.43323555555556,160.20000006631017L119.73893333333332,160.20000006631017L120.00201777777778,160.20000006631017L120.2632888888889,160.20000006631017L120.50990222222222,160.20000006631017L120.79066666666667,160.20000006631017L121.05420444444445,160.20000006631017L121.31003555555556,160.20000006631017L121.57070222222222,160.20000006631017L121.81686222222223,160.20000006631017L122.08357333333333,160.20000006631017L122.35708444444444,160.20000006631017L122.63301333333334,160.20000006631017L122.92662222222222,160.20000006631017L123.18653333333334,160.20000006631017L123.43284444444446,160.20000006631017L123.72101333333333,160.20000006631017L123.9760888888889,160.20000006631017L124.31457777777777,160.20000006631017L124.59005333333334,160.20000006631017L124.88366222222221,160.20000006631017L125.18452444444445,160.20000006631017L125.45561777777777,160.20000006631017L125.70192888888889,160.20000006631017L125.98556444444445,160.20000006631017L126.25106666666667,160.20000006631017L126.49722666666666,160.20000006631017L126.75200000000001,160.20000006631017L127.01493333333333,160.20000006631017L127.3219911111111,160.20000006631017L127.62451555555556,160.20000006631017L127.88714666666667,160.20000006631017L128.13648,160.20000006631017L128.38309333333333,160.20000006631017L128.6764,160.20000006631017L128.9227111111111,160.20000006631017L129.1684177777778,160.20000006631017L129.42908444444444,160.20000006631017L129.6856711111111,160.20000006631017L129.9764088888889,160.20000006631017L130.23496,160.20000006631017L130.49003555555555,160.20000006631017L130.75009777777777,160.20000006631017L131.03328,160.20000006631017L131.31555555555553,160.20000006631017L131.5910311111111,160.20000006631017L131.83673777777778,160.20000006631017L132.13744888888888,160.20000006631017L132.40204444444444,160.20000006631017L132.65651555555556,160.20000006631017L132.93486222222222,160.20000006631017L133.18102222222223,160.20000006631017L133.43504000000001,160.20000006631017L133.6908711111111,160.20000006631017L133.93733333333333,160.20000006631017L134.23728888888888,160.20000006631017L134.54011555555556,160.20000006631017L134.78597333333335,160.20000006631017L135.12355555555555,160.20000006631017L135.40250666666665,160.20000006631017L135.66256888888887,160.20000006631017L135.92263111111112,160.20000006631017L136.1687911111111,160.20000006631017L136.48552,160.20000006631017L136.7401422222222,160.20000006631017L137.02136,160.20000006631017L137.28565333333333,160.20000006631017L137.53392888888888,160.20000006631017L137.84914666666668,160.20000006631017L138.10029333333333,160.20000006631017L138.35008,160.20000006631017L138.62540444444443,160.20000006631017L138.94228444444445,160.20000006631017L139.20053333333334,160.20000006631017L139.49837333333332,160.20000006631017L139.7912266666667,160.20000006631017L140.05128888888888,160.20000006631017L140.32540444444444,160.20000006631017L140.58184,160.20000006631017L140.8370666666667,160.20000006631017L141.08368,160.20000006631017L141.33014222222224,160.20000006631017L141.60773333333333,160.20000006631017L141.85359111111111,160.20000006631017L142.13344888888886,160.20000006631017L142.37976,160.20000006631017L142.66354666666666,160.20000006631017L142.9334311111111,160.20000006631017L143.18714666666668,160.20000006631017L143.45627555555555,160.20000006631017L143.70304000000002,160.20000006631017L144.0264177777778,160.20000006631017L144.2907111111111,160.20000006631017L144.59837333333334,160.20000006631017L144.84513777777778,160.20000006631017L145.12227555555555,160.20000006631017L145.39518222222222,160.20000006631017L145.6547911111111,160.20000006631017L145.93782222222222,160.20000006631017L146.19924444444445,160.20000006631017L146.48015999999998,160.20000006631017L146.73840888888887,160.20000006631017L146.99272888888888,160.20000006631017L147.26291555555557,160.20000006631017L147.5263022222222,160.20000006631017L147.81764444444443,160.20000006631017L148.07317333333333,160.20000006631017L148.33323555555555,160.20000006631017L148.5966222222222,160.20000006631017L148.85668444444445,160.20000006631017L149.11825777777779,160.20000006631017L149.40808888888887,160.20000006631017L149.69006222222222,160.20000006631017L149.95904000000002,160.20000006631017L150.20565333333332,160.20000006631017L150.4542311111111,160.20000006631017L150.70296,160.20000006631017L150.94942222222224,160.20000006631017L151.19588444444443,160.20000006631017L151.4669777777778,160.20000006631017L151.71344,160.20000006631017L151.95975111111113,160.20000006631017L152.24716444444442,160.20000006631017L152.51855999999998,160.20000006631017L152.77937777777777,160.20000006631017L153.06784888888888,160.20000006631017L153.3656888888889,160.20000006631017L153.6216711111111,160.20000006631017L153.90349333333333,160.20000006631017L154.14935111111112,160.20000006631017L154.39581333333334,160.20000006631017L154.66600000000003,160.20000006631017L154.92031999999998,160.20000006631017L155.17902222222222,160.20000006631017L155.42518222222222,160.20000006631017L155.67134222222222,160.20000006631017L155.92294222222222,160.20000006631017L156.22093333333333,160.20000006631017L156.48628444444446,160.20000006631017L156.74785777777777,160.20000006631017L157.02877333333333,160.20000006631017L157.30515555555556,160.20000006631017L157.56143999999998,160.20000006631017L157.83404444444443,160.20000006631017L158.1025688888889,160.20000006631017L158.37774222222222,160.20000006631017L158.64913777777775,160.20000006631017L158.91932444444444,160.20000006631017L159.17953777777777,160.20000006631017L159.4690666666667,160.20000006631017L159.72278222222224,160.20000006631017L159.98662222222222,160.20000006631017L160.25469333333334,160.20000006631017L160.50644444444447,160.20000006631017L160.7711911111111,160.20000006631017L161.03986666666668,160.20000006631017L161.30824,160.20000006631017L161.5732888888889,160.20000006631017L161.85949333333332,160.20000006631017L162.12937777777776,160.20000006631017L162.3809777777778,160.20000006631017L162.64149333333333,160.20000006631017L162.90442666666667,160.20000006631017L163.15073777777778,160.20000006631017L163.42364444444445,160.20000006631017L163.66995555555556,160.20000006631017L163.93817777777778,160.20000006631017L164.21909333333332,160.20000006631017L164.49456888888886,160.20000006631017L164.7407288888889,160.20000006631017L165.02285333333333,160.20000006631017L165.26901333333333,160.20000006631017L165.54010666666667,160.20000006631017L165.8033422222222,160.20000006631017L166.04980444444445,160.20000006631017L166.3074488888889,160.20000006631017L166.58972444444444,160.20000006631017L166.88076444444445,160.20000006631017L167.16712,160.20000006631017L167.4501511111111,160.20000006631017L167.69616000000002,160.20000006631017L167.96725333333333,160.20000006631017L168.2416711111111,160.20000006631017L168.52802666666665,160.20000006631017L168.77418666666668,160.20000006631017L169.02835555555555,160.20000006631017L169.28388444444442,160.20000006631017L169.5456088888889,160.20000006631017L169.81519111111112,160.20000006631017L170.07041777777778,160.20000006631017L170.31597333333332,160.20000006631017L170.5619822222222,160.20000006631017L170.8076888888889,160.20000006631017L171.06820444444443,160.20000006631017L171.32237333333333,160.20000006631017L171.56883555555555,160.20000006631017L171.84204444444444,160.20000006631017L172.10271111111112,160.20000006631017L172.3491733333333,160.20000006631017L172.60878222222223,160.20000006631017L172.85479111111113,160.20000006631017L173.12225777777778,160.20000006631017L173.37400888888888,160.20000006631017L173.62999111111114,160.20000006631017L173.89821333333333,160.20000006631017L174.16220444444446,160.20000006631017L174.41863999999998,160.20000006631017L174.69109333333333,160.20000006631017L174.9777511111111,160.20000006631017L175.28616888888888,160.20000006631017L175.53202666666667,160.20000006631017L175.79208888888888,160.20000006631017L176.0491288888889,160.20000006631017L176.31266666666667,160.20000006631017L176.55897777777778,160.20000006631017L176.83944,160.20000006631017L177.11642666666665,160.20000006631017L177.3764888888889,160.20000006631017L177.62234666666666,160.20000006631017L177.88074666666665,160.20000006631017L178.1462488888889,160.20000006631017L178.39482666666666,160.20000006631017L178.64083555555555,160.20000006631017L178.89485333333332,160.20000006631017L179.18544,160.20000006631017L179.51078222222222,160.20000006631017L179.7907911111111,160.20000006631017L180.04692444444444,160.20000006631017L180.30381333333335,160.20000006631017L180.5578311111111,160.20000006631017L180.80353777777776,160.20000006631017L181.04924444444444,160.20000006631017L181.30265777777777,160.20000006631017L181.56710222222225,160.20000006631017L181.81568000000001,160.20000006631017L182.09614222222223,160.20000006631017L182.37539555555554,160.20000006631017L182.62140444444444,160.20000006631017L182.8749688888889,160.20000006631017L183.15981333333332,160.20000006631017L183.42909333333336,160.20000006631017L183.6927822222222,160.20000006631017L183.9756622222222,160.20000006631017L184.25657777777778,160.20000006631017L184.56303111111112,160.20000006631017L184.83835555555555,160.20000006631017L185.0846666666667,160.20000006631017L185.34155555555557,160.20000006631017L185.5979911111111,160.20000006631017L185.92650666666668,160.20000006631017L186.1838488888889,160.20000006631017L186.42970666666668,160.20000006631017L186.70306666666664,160.20000006631017L186.9525511111111,160.20000006631017L187.2163911111111,160.20000006631017L187.51,160.20000006631017L187.7886488888889,160.20000006631017L188.06291555555555,160.20000006631017L188.32101333333333,160.20000006631017L188.59860444444445,160.20000006631017L188.8660711111111,160.20000006631017L189.12749333333332,160.20000006631017L189.3869511111111,160.20000006631017L189.6382488888889,160.20000006631017L189.89211555555556,160.20000006631017L190.15625777777777,160.20000006631017L190.41012444444445,160.20000006631017L190.67834666666667,160.20000006631017L190.95125333333334,160.20000006631017L191.21705777777777,160.20000006631017L191.53197333333333,160.20000006631017L191.77828444444444,160.20000006631017L192.06675555555557,160.20000006631017L192.3716977777778,160.20000006631017L192.61785777777777,160.20000006631017L192.8714222222222,160.20000006631017L193.11697777777778,160.20000006631017L193.40529777777778,160.20000006631017L193.65085333333332,160.20000006631017L193.92179555555555,160.20000006631017L194.16795555555555,160.20000006631017L194.42212444444445,160.20000006631017L194.66783111111113,160.20000006631017L194.9139911111111,160.20000006631017L195.19807999999998,160.20000006631017L195.51752888888888,160.20000006631017L195.85224000000002,160.20000006631017L196.11154666666667,160.20000006631017L196.4210222222222,160.20000006631017L196.70934222222223,160.20000006631017L197.01458666666664,160.20000006631017L197.28054222222224,160.20000006631017L197.53939555555556,160.20000006631017L197.79462222222222,160.20000006631017L198.04274666666666,160.20000006631017L198.31096888888888,160.20000006631017L198.57435555555554,160.20000006631017L198.84242666666668,160.20000006631017L199.0891911111111,160.20000006631017L199.3543911111111,160.20000006631017L199.6000977777778,160.20000006631017L199.86711111111111,160.20000006631017L200.14364444444445,160.20000006631017L200.3893511111111,160.20000006631017L200.64291555555553,160.20000006631017L200.9008622222222,160.20000006631017L201.14656888888888,160.20000006631017L201.41116444444447,160.20000006631017L201.67666666666668,160.20000006631017L201.92237333333335,160.20000006631017L202.18500444444444,160.20000006631017L202.46924444444443,160.20000006631017L202.73248,160.20000006631017L202.99042666666668,160.20000006631017L203.23628444444446,160.20000006631017L203.50254222222222,160.20000006631017L203.77726222222222,160.20000006631017L204.0433688888889,160.20000006631017L204.31597333333332,160.20000006631017L204.59477333333334,160.20000006631017L204.86556444444443,160.20000006631017L205.11187555555557,160.20000006631017L205.41213333333334,160.20000006631017L205.67733333333334,160.20000006631017L205.95628444444446,160.20000006631017L206.2178577777778,160.20000006631017L206.47142222222223,160.20000006631017L206.72513777777777,160.20000006631017L206.97069333333334,160.20000006631017L207.21624888888888,160.20000006631017L207.46225777777778,160.20000006631017L207.7264,160.20000006631017L207.97210666666666,160.20000006631017L208.25196444444447,160.20000006631017L208.52018666666666,160.20000006631017L208.8140977777778,160.20000006631017L209.07189333333335,160.20000006631017L209.33256,160.20000006631017L209.59670222222223,160.20000006631017L209.86522666666667,160.20000006631017L210.15611555555554,160.20000006631017L210.40197333333333,160.20000006631017L210.69422222222224,160.20000006631017L210.95791111111112,160.20000006631017L211.29141333333334,160.20000006631017L211.55540444444443,160.20000006631017L211.84417777777776,160.20000006631017L212.08988444444444,160.20000006631017L212.34375111111112,160.20000006631017L212.5894577777778,160.20000006631017L212.84876444444444,160.20000006631017L213.14418666666666,160.20000006631017L213.51607111111113,160.20000006631017L213.80726222222222,160.20000006631017L214.07896,160.20000006631017L214.35987555555556,160.20000006631017L214.6350488888889,160.20000006631017L214.92457777777778,160.20000006631017L215.17013333333335,160.20000006631017L215.48399111111112,160.20000006631017L215.76052444444446,160.20000006631017L216.09946666666667,160.20000006631017L216.37161777777777,160.20000006631017L216.64528,160.20000006631017L216.89083555555555,160.20000006631017L217.13896,160.20000006631017L217.43256888888888,160.20000006631017L217.70955555555557,160.20000006631017L218.01268444444443,160.20000006631017L218.29208888888888,160.20000006631017L218.5545688888889,160.20000006631017L218.80556444444443,160.20000006631017L219.05897777777778,160.20000006631017L219.3450311111111,160.20000006631017L219.6075111111111,160.20000006631017L219.85306666666668,160.20000006631017L220.1134311111111,160.20000006631017L220.3591377777778,160.20000006631017L220.63174222222221,160.20000006631017L220.88273777777778,160.20000006631017L221.1798222222222,160.20000006631017L221.46058666666667,160.20000006631017L221.72488,160.20000006631017L222.00262222222221,160.20000006631017L222.29608000000002,160.20000006631017L222.54435555555557,160.20000006631017L222.80970666666664,160.20000006631017L223.10150222222222,160.20000006631017L223.34977777777777,160.20000006631017L223.60500444444446,160.20000006631017L223.87035555555553,160.20000006631017L224.02161777777775,160.20000006631017L224.33880000000002,160.20000006631017L224.62122666666664,160.20000006631017L224.88204444444446,160.20000006631017L225.16114666666667,160.20000006631017L225.41456,160.20000006631017L225.67432,160.20000006631017L225.93921777777777,160.20000006631017L226.20472,160.20000006631017L226.46689777777777,160.20000006631017L226.71245333333334,160.20000006631017L226.97674666666666,160.20000006631017L227.22230222222223,160.20000006631017L227.48795555555554,160.20000006631017L227.74786666666665,160.20000006631017L228.01351999999997,160.20000006631017L228.28189333333333,160.20000006631017L228.54180444444444,160.20000006631017L228.94542222222222,160.20000006631017L229.22497777777778,160.20000006631017L229.52312,160.20000006631017L229.7856,160.20000006631017L230.06092444444442,160.20000006631017L230.30587555555556,160.20000006631017L230.62215111111112,160.20000006631017L230.86770666666666,160.20000006631017L231.1253511111111,160.20000006631017L231.40067555555555,160.20000006631017L231.70335111111112,160.20000006631017L231.9780711111111,160.20000006631017L232.24553777777777,160.20000006631017L232.49048888888888,160.20000006631017L232.73604444444445,160.20000006631017L232.9841688888889,160.20000006631017L233.22972444444446,160.20000006631017L233.4832888888889,160.20000006631017L233.7728177777778,160.20000006631017L234.05116444444445,160.20000006631017L234.32089777777776,160.20000006631017L234.59425777777778,160.20000006631017L234.89028444444446,160.20000006631017L235.13931555555556,160.20000006631017L235.3848711111111,160.20000006631017L235.63042666666666,160.20000006631017L235.9059022222222,160.20000006631017L236.16369777777777,160.20000006631017L236.42572444444446,160.20000006631017L236.68034666666665,160.20000006631017L236.94056,160.20000006631017L237.19170666666665,160.20000006631017L237.46280000000002,160.20000006631017L237.7659288888889,160.20000006631017L238.02115555555554,160.20000006631017L238.26943111111112,160.20000006631017L238.53704888888888,160.20000006631017L238.7916711111111,160.20000006631017L239.03722666666667,160.20000006631017L239.3057511111111,160.20000006631017L239.56823111111112,160.20000006631017L239.82844444444444,160.20000006631017L240.08775111111112,160.20000006631017L240.36368,160.20000006631017L240.60923555555556,160.20000006631017L240.85736,160.20000006631017L241.10291555555557,160.20000006631017L241.35481777777778,160.20000006631017L241.60838222222222,160.20000006631017L241.86285333333333,160.20000006631017L242.13515555555557,160.20000006631017L242.3897777777778,160.20000006631017L242.64863111111111,160.20000006631017L242.89418666666666,160.20000006631017L243.14865777777777,160.20000006631017L243.42594666666668,160.20000006631017L243.6805688888889,160.20000006631017L243.95498666666666,160.20000006631017L244.20054222222223,160.20000006631017L244.45168888888887,160.20000006631017L244.73502222222223,160.20000006631017L244.9813333333333,160.20000006631017L245.23580444444443,160.20000006631017L245.4951111111111,160.20000006631017L245.74066666666667,160.20000006631017L246.00904000000003,160.20000006631017L246.2892,160.20000006631017L246.53475555555553,160.20000006631017L246.81642666666664,160.20000006631017L247.09295999999998,160.20000006631017L247.3379111111111,160.20000006631017L247.63575111111112,160.20000006631017L247.88130666666666,160.20000006631017L248.16388444444445,160.20000006631017L248.4818222222222,160.20000006631017L248.74067555555555,160.20000006631017L248.99076444444447,160.20000006631017L249.2595911111111,160.20000006631017L249.50514666666666,160.20000006631017L249.75417777777778,160.20000006631017" style="fill: none;" fill="none"></path></g><g><path stroke="rgb(255, 112, 67)" stroke-width="2px" d="M30.38904888888889,16.470929225285857L30.543484444444445,17.41841310262683L30.676160000000003,18.37293217295695L30.800373333333333,19.354380693797992L30.959342222222222,20.531799243069003L31.099422222222223,21.75372150942627L31.214568888888888,22.914480868906907L31.329715555555556,24.04962738914469L31.45392888888889,25.211074919920662L31.573306666666667,26.37199165350404L31.69752,27.5535296652985L31.824604444444443,28.759783605770735L31.939751111111114,29.934563196638607L32.07575111111111,31.17286719210344L32.200266666666664,32.40436752004385L32.34820444444445,33.723934477303345L32.47241777777778,35.00323639993036L32.61672888888889,36.337371915162976L32.731875555555554,37.58991268952707L32.85880888888889,38.83980789119303L32.973955555555555,40.04184431823512L33.12824,41.368849277568785L33.26454222222222,42.70023377749402L33.41671111111111,44.09654524745548L33.534728888888885,45.39772588090432L33.67118222222222,46.71421188616566" style="fill: none;" fill="none"></path></g></g></g></g><g opacity="0.2"><g><g><g><path stroke="rgb(204, 51, 17)" stroke-width="2px" d="M30.39312888888889,16.51098056634268L30.53562666666667,17.909762601057707L30.66830222222222,19.21212965250018L30.783448888888888,20.342435081799835L30.930026666666667,21.781268457571684L31.088995555555556,23.341732362906157L31.242675555555554,24.850279827912658L31.36688888888889,26.0695823431015L31.482035555555555,27.199878931045532L31.643422222222224,28.784081876277924L31.78576888888889,30.181387404600798L31.945493333333335,31.74926920731866L32.074239999999996,33.013070265452086L32.22535111111111,34.49640218416852L32.38930666666666,36.10582067569101L32.52198222222222,37.40818772713345L32.65072888888889,38.67197994391125L32.792320000000004,40.06186757485074L32.936933333333336,41.48141795396808L33.06568,42.74521901210153L33.20198222222222,44.08318136135739L33.372284444444446,45.75489604473117L33.50828444444444,47.089896539847075L33.62766222222222,48.26172981659573L33.75187555555556,49.481032331784604L33.89467555555556,50.88278506199521L34.03173333333333,52.22816530863446L34.15594666666667,53.44746782382332L34.30962666666667,54.95601528882982L34.45892444444445,56.42154955863954L34.61819555555556,57.98498415946962L34.74981333333333,59.27696261803311L34.90893333333333,60.83892071247102L35.06654222222222,62.38603417078656L35.205262222222224,63.74773555994035L35.365742222222224,65.32303526004158L35.53619555555556,66.99623529116315L35.73309333333333,68.92901752392453L35.896142222222224,70.52953277031583L36.1148,72.67591331402463L36.339955555555555,74.88608423868817L36.51811555555555,76.63493090867998L36.73798222222222,78.79318539301556L36.912968888888884,80.51088396708172L37.133742222222224,82.67803285519284L37.31039111111111,84.41205257177354L37.48764444444445,86.15199599663418L37.78911111111111,89.1112507780393L37.99008888888889,91.08408435185751L38.209048888888894,93.23343117038411L38.45762666666667,95.67351712783179L38.66102222222222,97.6700853208701L38.89645333333333,99.98111843069395L39.12176,102.19276586174966L39.35416888888889,104.47413180271786L39.58688,106.75846843918166L39.79133333333333,108.7654163837433L40.126799999999996,112.05841465791067L40.37326222222222,114.47773227095604L40.601440000000004,116.71756594379744L40.87011555555555,119.35493349035582L41.17067555555556,122.30528502662978L41.49783111111111,125.51669969161352L41.759253333333334,128.08286559085053L42.044399999999996,130.88191721836728L42.32153777777778,133.60234930117926L42.58643555555555,136.2026339918375L42.83894222222222,138.6812837322553L43.15521777777777,141.78589924176535L43.550071111111116,145.6618500898282L43.89536,149.05126666277647L44.38118222222222,153.82018337895474L44.841164444444445,158.33544989054403L45.30704,160.20000006631017L45.76732444444445,160.20000006631017L46.08254222222222,160.20000006631017L46.53270222222223,160.20000006631017L46.924080000000004,160.20000006631017L47.24760888888889,160.20000006631017L47.60619555555556,160.20000006631017L47.91536888888889,160.20000006631017L48.28755555555556,160.20000006631017L48.55366222222222,160.20000006631017L48.83472888888889,160.20000006631017L49.14118222222222,160.20000006631017L49.42632888888889,160.20000006631017L49.69636444444444,160.20000006631017L50.007200000000005,160.20000006631017L50.2724,160.20000006631017L50.548026666666665,160.20000006631017L50.819875555555555,160.20000006631017L51.174533333333336,160.20000006631017L51.516951111111105,160.20000006631017L51.79499555555555,160.20000006631017L52.119884444444445,160.20000006631017L52.41576,160.20000006631017L52.73853333333333,160.20000006631017L53.08185777777778,160.20000006631017L53.33360888888889,160.20000006631017L53.69113777777778,160.20000006631017L54.03536888888889,160.20000006631017L54.317795555555556,160.20000006631017L54.62213333333334,160.20000006631017L54.90184,160.20000006631017L55.30183111111111,160.20000006631017L55.645608888888894,160.20000006631017L55.94632,160.20000006631017L56.25624888888889,160.20000006631017L56.54759111111111,160.20000006631017L56.88064,160.20000006631017L57.150977777777776,160.20000006631017L57.40333333333333,160.20000006631017L57.65538666666667,160.20000006631017L57.96728,160.20000006631017L58.28234666666667,160.20000006631017L58.56673777777778,160.20000006631017L58.81652444444445,160.20000006631017L59.08202666666667,160.20000006631017L59.37397333333333,160.20000006631017L59.664862222222226,160.20000006631017L59.956355555555554,160.20000006631017L60.256462222222225,160.20000006631017L60.56654222222222,160.20000006631017L60.91016888888889,160.20000006631017L61.18352888888889,160.20000006631017L61.45296,160.20000006631017L61.72057777777778,160.20000006631017L62.05634666666667,160.20000006631017L62.33167111111111,160.20000006631017L62.63344,160.20000006631017L62.934755555555554,160.20000006631017L63.20040888888889,160.20000006631017L63.479511111111115,160.20000006631017L63.74682666666667,160.20000006631017L63.99888,160.20000006631017L64.30850666666666,160.20000006631017L64.66633777777778,160.20000006631017L64.93531555555555,160.20000006631017L65.28135999999999,160.20000006631017L65.56152,160.20000006631017L65.85044444444445,160.20000006631017L66.18953777777777,160.20000006631017L66.53301333333333,160.20000006631017L66.89371555555556,160.20000006631017L67.19412444444444,160.20000006631017L67.44648,160.20000006631017L67.74507555555556,160.20000006631017L67.99743111111111,160.20000006631017L68.30796444444444,160.20000006631017L68.58102222222223,160.20000006631017L68.93598222222222,160.20000006631017L69.20239111111111,160.20000006631017L69.50325333333333,160.20000006631017L69.77812444444446,160.20000006631017L70.05934222222221,160.20000006631017L70.46084444444443,160.20000006631017L70.73118222222222,160.20000006631017L71.04096000000001,160.20000006631017L71.32399111111111,160.20000006631017L71.59901333333333,160.20000006631017L71.87373333333333,160.20000006631017L72.14482666666667,160.20000006631017L72.43224000000001,160.20000006631017L72.72025777777777,160.20000006631017L72.99467555555556,160.20000006631017L73.29961777777778,160.20000006631017L73.61710222222223,160.20000006631017L73.93368,160.20000006631017L74.23000888888889,160.20000006631017L74.5008,160.20000006631017L74.77521777777777,160.20000006631017L75.07713777777778,160.20000006631017L75.38102222222223,160.20000006631017L75.69231111111111,160.20000006631017L75.94799111111112,160.20000006631017L76.30053333333333,160.20000006631017L76.5692088888889,160.20000006631017L76.82594666666667,160.20000006631017L77.12242666666667,160.20000006631017L77.39457777777778,160.20000006631017L77.76933333333334,160.20000006631017L78.06566222222223,160.20000006631017L78.31696000000001,160.20000006631017L78.60467555555556,160.20000006631017L78.90221333333334,160.20000006631017L79.20791111111112,160.20000006631017L79.48943111111112,160.20000006631017L79.7733688888889,160.20000006631017L80.09553777777778,160.20000006631017L80.36300444444444,160.20000006631017L80.68925333333333,160.20000006631017L80.95505777777778,160.20000006631017L81.28327111111112,160.20000006631017L81.60347555555556,160.20000006631017L81.89829333333334,160.20000006631017L82.15457777777779,160.20000006631017L82.41131555555555,160.20000006631017L82.70673777777778,160.20000006631017L83.01198222222223,160.20000006631017L83.26796444444443,160.20000006631017L83.54192888888889,160.20000006631017L83.85654222222222,160.20000006631017L84.18792888888888,160.20000006631017L84.45207111111111,160.20000006631017L84.73011555555556,160.20000006631017L85.05439999999999,160.20000006631017L85.40815111111111,160.20000006631017L85.67728,160.20000006631017L85.94293333333333,160.20000006631017L86.19468444444445,160.20000006631017L86.51927111111111,160.20000006631017L86.78794666666667,160.20000006631017L87.07823111111111,160.20000006631017L87.34192,160.20000006631017L87.65925333333333,160.20000006631017L87.91387555555556,160.20000006631017L88.16940444444445,160.20000006631017L88.43505777777779,160.20000006631017L88.73788444444445,160.20000006631017L88.98963555555555,160.20000006631017L89.23594666666666,160.20000006631017L89.52094222222222,160.20000006631017L89.84628444444444,160.20000006631017L90.1708711111111,160.20000006631017L90.43954666666667,160.20000006631017L90.7596,160.20000006631017L91.01392,160.20000006631017L91.29816,160.20000006631017L91.54447111111111,160.20000006631017L91.80951999999999,160.20000006631017L92.09889777777778,160.20000006631017L92.40338666666668,160.20000006631017L92.77421333333334,160.20000006631017L93.08943111111111,160.20000006631017L93.36490666666667,160.20000006631017L93.69538666666666,160.20000006631017L93.94154666666665,160.20000006631017L94.27701333333333,160.20000006631017L94.56064888888889,160.20000006631017L94.81240000000001,160.20000006631017L95.0842488888889,160.20000006631017L95.35443555555555,160.20000006631017L95.60074666666668,160.20000006631017L95.87017777777778,160.20000006631017L96.1164888888889,160.20000006631017L96.38803555555556,160.20000006631017L96.65429333333333,160.20000006631017L96.99323555555554,160.20000006631017L97.27732444444445,160.20000006631017L97.5526488888889,160.20000006631017L97.84187555555556,160.20000006631017L98.12626666666667,160.20000006631017L98.39872000000001,160.20000006631017L98.71015999999999,160.20000006631017L98.99243555555556,160.20000006631017L99.26806222222221,160.20000006631017L99.56590222222222,160.20000006631017L99.87522666666666,160.20000006631017L100.16143111111111,160.20000006631017L100.47181333333333,160.20000006631017L100.73656,160.20000006631017L100.99118222222222,160.20000006631017L101.26424,160.20000006631017L101.58792,160.20000006631017L101.83408,160.20000006631017L102.09081777777779,160.20000006631017L102.35148444444444,160.20000006631017L102.6363288888889,160.20000006631017L102.89125333333332,160.20000006631017L103.13711111111111,160.20000006631017L103.39233777777778,160.20000006631017L103.66479111111111,160.20000006631017L103.9392088888889,160.20000006631017L104.19670222222223,160.20000006631017L104.46628444444444,160.20000006631017L104.76019555555555,160.20000006631017L105.03234666666665,160.20000006631017L105.3196088888889,160.20000006631017L105.5742311111111,160.20000006631017L105.8203911111111,160.20000006631017L106.08861333333333,160.20000006631017L106.35608,160.20000006631017L106.63488,160.20000006631017L106.88088888888889,160.20000006631017L107.12689777777778,160.20000006631017L107.37290666666667,160.20000006631017L107.67089777777777,160.20000006631017L107.91751111111111,160.20000006631017L108.21429333333333,160.20000006631017L108.52739555555556,160.20000006631017L108.81405333333333,160.20000006631017L109.06353777777777,160.20000006631017L109.34037333333333,160.20000006631017L109.64244444444444,160.20000006631017L109.94028444444444,160.20000006631017L110.18659555555556,160.20000006631017L110.44952888888889,160.20000006631017L110.70944,160.20000006631017L110.95559999999999,160.20000006631017L111.22548444444445,160.20000006631017L111.47179555555554,160.20000006631017L111.74666666666667,160.20000006631017L112.00038222222223,160.20000006631017L112.26588444444445,160.20000006631017L112.51718222222223,160.20000006631017L112.77301333333334,160.20000006631017L113.02219555555556,160.20000006631017L113.29177777777778,160.20000006631017L113.60850666666666,160.20000006631017L113.87234666666667,160.20000006631017L114.11896,160.20000006631017L114.37494222222223,160.20000006631017L114.62125333333333,160.20000006631017L114.90368,160.20000006631017L115.15769777777777,160.20000006631017L115.4206311111111,160.20000006631017L115.68870222222223,160.20000006631017L115.98200888888888,160.20000006631017L116.26171555555555,160.20000006631017L116.56544888888888,160.20000006631017L116.82369777777777,160.20000006631017L117.09917333333334,160.20000006631017L117.4154488888889,160.20000006631017L117.66160888888889,160.20000006631017L117.91744,160.20000006631017L118.1691911111111,160.20000006631017L118.41535111111112,160.20000006631017L118.67042666666667,160.20000006631017L118.93320888888888,160.20000006631017L119.18692444444444,160.20000006631017L119.43323555555556,160.20000006631017L119.73893333333332,160.20000006631017L120.00201777777778,160.20000006631017L120.2632888888889,160.20000006631017L120.50990222222222,160.20000006631017L120.79066666666667,160.20000006631017L121.05420444444445,160.20000006631017L121.31003555555556,160.20000006631017L121.57070222222222,160.20000006631017L121.81686222222223,160.20000006631017L122.08357333333333,160.20000006631017L122.35708444444444,160.20000006631017L122.63301333333334,160.20000006631017L122.92662222222222,160.20000006631017L123.18653333333334,160.20000006631017L123.43284444444446,160.20000006631017L123.72101333333333,160.20000006631017L123.9760888888889,160.20000006631017L124.31457777777777,160.20000006631017L124.59005333333334,160.20000006631017L124.88366222222221,160.20000006631017L125.18452444444445,160.20000006631017L125.45561777777777,160.20000006631017L125.70192888888889,160.20000006631017L125.98556444444445,160.20000006631017L126.25106666666667,160.20000006631017L126.49722666666666,160.20000006631017L126.75200000000001,160.20000006631017L127.01493333333333,160.20000006631017L127.3219911111111,160.20000006631017L127.62451555555556,160.20000006631017L127.88714666666667,160.20000006631017L128.13648,160.20000006631017L128.38309333333333,160.20000006631017L128.6764,160.20000006631017L128.9227111111111,160.20000006631017L129.1684177777778,160.20000006631017L129.42908444444444,160.20000006631017L129.6856711111111,160.20000006631017L129.9764088888889,160.20000006631017L130.23496,160.20000006631017L130.49003555555555,160.20000006631017L130.75009777777777,160.20000006631017L131.03328,160.20000006631017L131.31555555555553,160.20000006631017L131.5910311111111,160.20000006631017L131.83673777777778,160.20000006631017L132.13744888888888,160.20000006631017L132.40204444444444,160.20000006631017L132.65651555555556,160.20000006631017L132.93486222222222,160.20000006631017L133.18102222222223,160.20000006631017L133.43504000000001,160.20000006631017L133.6908711111111,160.20000006631017L133.93733333333333,160.20000006631017L134.23728888888888,160.20000006631017L134.54011555555556,160.20000006631017L134.78597333333335,160.20000006631017L135.12355555555555,160.20000006631017L135.40250666666665,160.20000006631017L135.66256888888887,160.20000006631017L135.92263111111112,160.20000006631017L136.1687911111111,160.20000006631017L136.48552,160.20000006631017L136.7401422222222,160.20000006631017L137.02136,160.20000006631017L137.28565333333333,160.20000006631017L137.53392888888888,160.20000006631017L137.84914666666668,160.20000006631017L138.10029333333333,160.20000006631017L138.35008,160.20000006631017L138.62540444444443,160.20000006631017L138.94228444444445,160.20000006631017L139.20053333333334,160.20000006631017L139.49837333333332,160.20000006631017L139.7912266666667,160.20000006631017L140.05128888888888,160.20000006631017L140.32540444444444,160.20000006631017L140.58184,160.20000006631017L140.8370666666667,160.20000006631017L141.08368,160.20000006631017L141.33014222222224,160.20000006631017L141.60773333333333,160.20000006631017L141.85359111111111,160.20000006631017L142.13344888888886,160.20000006631017L142.37976,160.20000006631017L142.66354666666666,160.20000006631017L142.9334311111111,160.20000006631017L143.18714666666668,160.20000006631017L143.45627555555555,160.20000006631017L143.70304000000002,160.20000006631017L144.0264177777778,160.20000006631017L144.2907111111111,160.20000006631017L144.59837333333334,160.20000006631017L144.84513777777778,160.20000006631017L145.12227555555555,160.20000006631017L145.39518222222222,160.20000006631017L145.6547911111111,160.20000006631017L145.93782222222222,160.20000006631017L146.19924444444445,160.20000006631017L146.48015999999998,160.20000006631017L146.73840888888887,160.20000006631017L146.99272888888888,160.20000006631017L147.26291555555557,160.20000006631017L147.5263022222222,160.20000006631017L147.81764444444443,160.20000006631017L148.07317333333333,160.20000006631017L148.33323555555555,160.20000006631017L148.5966222222222,160.20000006631017L148.85668444444445,160.20000006631017L149.11825777777779,160.20000006631017L149.40808888888887,160.20000006631017L149.69006222222222,160.20000006631017L149.95904000000002,160.20000006631017L150.20565333333332,160.20000006631017L150.4542311111111,160.20000006631017L150.70296,160.20000006631017L150.94942222222224,160.20000006631017L151.19588444444443,160.20000006631017L151.4669777777778,160.20000006631017L151.71344,160.20000006631017L151.95975111111113,160.20000006631017L152.24716444444442,160.20000006631017L152.51855999999998,160.20000006631017L152.77937777777777,160.20000006631017L153.06784888888888,160.20000006631017L153.3656888888889,160.20000006631017L153.6216711111111,160.20000006631017L153.90349333333333,160.20000006631017L154.14935111111112,160.20000006631017L154.39581333333334,160.20000006631017L154.66600000000003,160.20000006631017L154.92031999999998,160.20000006631017L155.17902222222222,160.20000006631017L155.42518222222222,160.20000006631017L155.67134222222222,160.20000006631017L155.92294222222222,160.20000006631017L156.22093333333333,160.20000006631017L156.48628444444446,160.20000006631017L156.74785777777777,160.20000006631017L157.02877333333333,160.20000006631017L157.30515555555556,160.20000006631017L157.56143999999998,160.20000006631017L157.83404444444443,160.20000006631017L158.1025688888889,160.20000006631017L158.37774222222222,160.20000006631017L158.64913777777775,160.20000006631017L158.91932444444444,160.20000006631017L159.17953777777777,160.20000006631017L159.4690666666667,160.20000006631017L159.72278222222224,160.20000006631017L159.98662222222222,160.20000006631017L160.25469333333334,160.20000006631017L160.50644444444447,160.20000006631017L160.7711911111111,160.20000006631017L161.03986666666668,160.20000006631017L161.30824,160.20000006631017L161.5732888888889,160.20000006631017L161.85949333333332,160.20000006631017L162.12937777777776,160.20000006631017L162.3809777777778,160.20000006631017L162.64149333333333,160.20000006631017L162.90442666666667,160.20000006631017L163.15073777777778,160.20000006631017L163.42364444444445,160.20000006631017L163.66995555555556,160.20000006631017L163.93817777777778,160.20000006631017L164.21909333333332,160.20000006631017L164.49456888888886,160.20000006631017L164.7407288888889,160.20000006631017L165.02285333333333,160.20000006631017L165.26901333333333,160.20000006631017L165.54010666666667,160.20000006631017L165.8033422222222,160.20000006631017L166.04980444444445,160.20000006631017L166.3074488888889,160.20000006631017L166.58972444444444,160.20000006631017L166.88076444444445,160.20000006631017L167.16712,160.20000006631017L167.4501511111111,160.20000006631017L167.69616000000002,160.20000006631017L167.96725333333333,160.20000006631017L168.2416711111111,160.20000006631017L168.52802666666665,160.20000006631017L168.77418666666668,160.20000006631017L169.02835555555555,160.20000006631017L169.28388444444442,160.20000006631017L169.5456088888889,160.20000006631017L169.81519111111112,160.20000006631017L170.07041777777778,160.20000006631017L170.31597333333332,160.20000006631017L170.5619822222222,160.20000006631017L170.8076888888889,160.20000006631017L171.06820444444443,160.20000006631017L171.32237333333333,160.20000006631017L171.56883555555555,160.20000006631017L171.84204444444444,160.20000006631017L172.10271111111112,160.20000006631017L172.3491733333333,160.20000006631017L172.60878222222223,160.20000006631017L172.85479111111113,160.20000006631017L173.12225777777778,160.20000006631017L173.37400888888888,160.20000006631017L173.62999111111114,160.20000006631017L173.89821333333333,160.20000006631017L174.16220444444446,160.20000006631017L174.41863999999998,160.20000006631017L174.69109333333333,160.20000006631017L174.9777511111111,160.20000006631017L175.28616888888888,160.20000006631017L175.53202666666667,160.20000006631017L175.79208888888888,160.20000006631017L176.0491288888889,160.20000006631017L176.31266666666667,160.20000006631017L176.55897777777778,160.20000006631017L176.83944,160.20000006631017L177.11642666666665,160.20000006631017L177.3764888888889,160.20000006631017L177.62234666666666,160.20000006631017L177.88074666666665,160.20000006631017L178.1462488888889,160.20000006631017L178.39482666666666,160.20000006631017L178.64083555555555,160.20000006631017L178.89485333333332,160.20000006631017L179.18544,160.20000006631017L179.51078222222222,160.20000006631017L179.7907911111111,160.20000006631017L180.04692444444444,160.20000006631017L180.30381333333335,160.20000006631017L180.5578311111111,160.20000006631017L180.80353777777776,160.20000006631017L181.04924444444444,160.20000006631017L181.30265777777777,160.20000006631017L181.56710222222225,160.20000006631017L181.81568000000001,160.20000006631017L182.09614222222223,160.20000006631017L182.37539555555554,160.20000006631017L182.62140444444444,160.20000006631017L182.8749688888889,160.20000006631017L183.15981333333332,160.20000006631017L183.42909333333336,160.20000006631017L183.6927822222222,160.20000006631017L183.9756622222222,160.20000006631017L184.25657777777778,160.20000006631017L184.56303111111112,160.20000006631017L184.83835555555555,160.20000006631017L185.0846666666667,160.20000006631017L185.34155555555557,160.20000006631017L185.5979911111111,160.20000006631017L185.92650666666668,160.20000006631017L186.1838488888889,160.20000006631017L186.42970666666668,160.20000006631017L186.70306666666664,160.20000006631017L186.9525511111111,160.20000006631017L187.2163911111111,160.20000006631017L187.51,160.20000006631017L187.7886488888889,160.20000006631017L188.06291555555555,160.20000006631017L188.32101333333333,160.20000006631017L188.59860444444445,160.20000006631017L188.8660711111111,160.20000006631017L189.12749333333332,160.20000006631017L189.3869511111111,160.20000006631017L189.6382488888889,160.20000006631017L189.89211555555556,160.20000006631017L190.15625777777777,160.20000006631017L190.41012444444445,160.20000006631017L190.67834666666667,160.20000006631017L190.95125333333334,160.20000006631017L191.21705777777777,160.20000006631017L191.53197333333333,160.20000006631017L191.77828444444444,160.20000006631017L192.06675555555557,160.20000006631017L192.3716977777778,160.20000006631017L192.61785777777777,160.20000006631017L192.8714222222222,160.20000006631017L193.11697777777778,160.20000006631017L193.40529777777778,160.20000006631017L193.65085333333332,160.20000006631017L193.92179555555555,160.20000006631017L194.16795555555555,160.20000006631017L194.42212444444445,160.20000006631017L194.66783111111113,160.20000006631017L194.9139911111111,160.20000006631017L195.19807999999998,160.20000006631017L195.51752888888888,160.20000006631017L195.85224000000002,160.20000006631017L196.11154666666667,160.20000006631017L196.4210222222222,160.20000006631017L196.70934222222223,160.20000006631017L197.01458666666664,160.20000006631017L197.28054222222224,160.20000006631017L197.53939555555556,160.20000006631017L197.79462222222222,160.20000006631017L198.04274666666666,160.20000006631017L198.31096888888888,160.20000006631017L198.57435555555554,160.20000006631017L198.84242666666668,160.20000006631017L199.0891911111111,160.20000006631017L199.3543911111111,160.20000006631017L199.6000977777778,160.20000006631017L199.86711111111111,160.20000006631017L200.14364444444445,160.20000006631017L200.3893511111111,160.20000006631017L200.64291555555553,160.20000006631017L200.9008622222222,160.20000006631017L201.14656888888888,160.20000006631017L201.41116444444447,160.20000006631017L201.67666666666668,160.20000006631017L201.92237333333335,160.20000006631017L202.18500444444444,160.20000006631017L202.46924444444443,160.20000006631017L202.73248,160.20000006631017L202.99042666666668,160.20000006631017L203.23628444444446,160.20000006631017L203.50254222222222,160.20000006631017L203.77726222222222,160.20000006631017L204.0433688888889,160.20000006631017L204.31597333333332,160.20000006631017L204.59477333333334,160.20000006631017L204.86556444444443,160.20000006631017L205.11187555555557,160.20000006631017L205.41213333333334,160.20000006631017L205.67733333333334,160.20000006631017L205.95628444444446,160.20000006631017L206.2178577777778,160.20000006631017L206.47142222222223,160.20000006631017L206.72513777777777,160.20000006631017L206.97069333333334,160.20000006631017L207.21624888888888,160.20000006631017L207.46225777777778,160.20000006631017L207.7264,160.20000006631017L207.97210666666666,160.20000006631017L208.25196444444447,160.20000006631017L208.52018666666666,160.20000006631017L208.8140977777778,160.20000006631017L209.07189333333335,160.20000006631017L209.33256,160.20000006631017L209.59670222222223,160.20000006631017L209.86522666666667,160.20000006631017L210.15611555555554,160.20000006631017L210.40197333333333,160.20000006631017L210.69422222222224,160.20000006631017L210.95791111111112,160.20000006631017L211.29141333333334,160.20000006631017L211.55540444444443,160.20000006631017L211.84417777777776,160.20000006631017L212.08988444444444,160.20000006631017L212.34375111111112,160.20000006631017L212.5894577777778,160.20000006631017L212.84876444444444,160.20000006631017L213.14418666666666,160.20000006631017L213.51607111111113,160.20000006631017L213.80726222222222,160.20000006631017L214.07896,160.20000006631017L214.35987555555556,160.20000006631017L214.6350488888889,160.20000006631017L214.92457777777778,160.20000006631017L215.17013333333335,160.20000006631017L215.48399111111112,160.20000006631017L215.76052444444446,160.20000006631017L216.09946666666667,160.20000006631017L216.37161777777777,160.20000006631017L216.64528,160.20000006631017L216.89083555555555,160.20000006631017L217.13896,160.20000006631017L217.43256888888888,160.20000006631017L217.70955555555557,160.20000006631017L218.01268444444443,160.20000006631017L218.29208888888888,160.20000006631017L218.5545688888889,160.20000006631017L218.80556444444443,160.20000006631017L219.05897777777778,160.20000006631017L219.3450311111111,160.20000006631017L219.6075111111111,160.20000006631017L219.85306666666668,160.20000006631017L220.1134311111111,160.20000006631017L220.3591377777778,160.20000006631017L220.63174222222221,160.20000006631017L220.88273777777778,160.20000006631017L221.1798222222222,160.20000006631017L221.46058666666667,160.20000006631017L221.72488,160.20000006631017L222.00262222222221,160.20000006631017L222.29608000000002,160.20000006631017L222.54435555555557,160.20000006631017L222.80970666666664,160.20000006631017L223.10150222222222,160.20000006631017L223.34977777777777,160.20000006631017L223.60500444444446,160.20000006631017L223.87035555555553,160.20000006631017L224.02161777777775,160.20000006631017L224.33880000000002,160.20000006631017L224.62122666666664,160.20000006631017L224.88204444444446,160.20000006631017L225.16114666666667,160.20000006631017L225.41456,160.20000006631017L225.67432,160.20000006631017L225.93921777777777,160.20000006631017L226.20472,160.20000006631017L226.46689777777777,160.20000006631017L226.71245333333334,160.20000006631017L226.97674666666666,160.20000006631017L227.22230222222223,160.20000006631017L227.48795555555554,160.20000006631017L227.74786666666665,160.20000006631017L228.01351999999997,160.20000006631017L228.28189333333333,160.20000006631017L228.54180444444444,160.20000006631017L228.94542222222222,160.20000006631017L229.22497777777778,160.20000006631017L229.52312,160.20000006631017L229.7856,160.20000006631017L230.06092444444442,160.20000006631017L230.30587555555556,160.20000006631017L230.62215111111112,160.20000006631017L230.86770666666666,160.20000006631017L231.1253511111111,160.20000006631017L231.40067555555555,160.20000006631017L231.70335111111112,160.20000006631017L231.9780711111111,160.20000006631017L232.24553777777777,160.20000006631017L232.49048888888888,160.20000006631017L232.73604444444445,160.20000006631017L232.9841688888889,160.20000006631017L233.22972444444446,160.20000006631017L233.4832888888889,160.20000006631017L233.7728177777778,160.20000006631017L234.05116444444445,160.20000006631017L234.32089777777776,160.20000006631017L234.59425777777778,160.20000006631017L234.89028444444446,160.20000006631017L235.13931555555556,160.20000006631017L235.3848711111111,160.20000006631017L235.63042666666666,160.20000006631017L235.9059022222222,160.20000006631017L236.16369777777777,160.20000006631017L236.42572444444446,160.20000006631017L236.68034666666665,160.20000006631017L236.94056,160.20000006631017L237.19170666666665,160.20000006631017L237.46280000000002,160.20000006631017L237.7659288888889,160.20000006631017L238.02115555555554,160.20000006631017L238.26943111111112,160.20000006631017L238.53704888888888,160.20000006631017L238.7916711111111,160.20000006631017L239.03722666666667,160.20000006631017L239.3057511111111,160.20000006631017L239.56823111111112,160.20000006631017L239.82844444444444,160.20000006631017L240.08775111111112,160.20000006631017L240.36368,160.20000006631017L240.60923555555556,160.20000006631017L240.85736,160.20000006631017L241.10291555555557,160.20000006631017L241.35481777777778,160.20000006631017L241.60838222222222,160.20000006631017L241.86285333333333,160.20000006631017L242.13515555555557,160.20000006631017L242.3897777777778,160.20000006631017L242.64863111111111,160.20000006631017L242.89418666666666,160.20000006631017L243.14865777777777,160.20000006631017L243.42594666666668,160.20000006631017L243.6805688888889,160.20000006631017L243.95498666666666,160.20000006631017L244.20054222222223,160.20000006631017L244.45168888888887,160.20000006631017L244.73502222222223,160.20000006631017L244.9813333333333,160.20000006631017L245.23580444444443,160.20000006631017L245.4951111111111,160.20000006631017L245.74066666666667,160.20000006631017L246.00904000000003,160.20000006631017L246.2892,160.20000006631017L246.53475555555553,160.20000006631017L246.81642666666664,160.20000006631017L247.09295999999998,160.20000006631017L247.3379111111111,160.20000006631017L247.63575111111112,160.20000006631017L247.88130666666666,160.20000006631017L248.16388444444445,160.20000006631017L248.4818222222222,160.20000006631017L248.74067555555555,160.20000006631017L248.99076444444447,160.20000006631017L249.2595911111111,160.20000006631017L249.50514666666666,160.20000006631017L249.75417777777778,160.20000006631017" style="fill: none;" fill="none"></path></g><g><path stroke="rgb(255, 112, 67)" stroke-width="2px" d="M30.38904888888889,16.470929225285857L30.543484444444445,17.9869034290314L30.676160000000003,19.289270480473846L30.800373333333333,20.508564154307066L30.959342222222222,22.06903690099719L31.099422222222223,23.44407989581427L31.214568888888888,24.57438532511395L31.329715555555556,25.704681913057982L31.45392888888889,26.923984428246825L31.573306666666667,28.095817704995483L31.69752,29.315120220184326L31.824604444444443,30.56260013580325L31.939751111111114,31.692896723747282L32.07575111111111,33.02789721886319L32.200266666666664,34.250170429547666L32.34820444444445,35.70235425233844L32.47241777777778,36.92164792617166L32.61672888888889,38.338236451149015L32.731875555555554,39.468533039093046L32.85880888888889,40.71453644831979L32.973955555555555,41.84483303626382L33.12824,43.35931305090588L33.26454222222222,44.69728424151742L33.41671111111111,46.19099591175717L33.534728888888885,47.34948758284253L33.67118222222222,48.68893527984622" style="fill: none;" fill="none"></path></g></g></g></g></g></g><g transform="translate(58, 178)" clip-path="url(#clip_1)"><clipPath id="clip_1"><rect width="271" height="21"></rect></clipPath><g><g><line x1="0" y1="0" x2="0" y2="5" style="visibility: inherit;" fill="rgb(0, 0, 0)" stroke="rgb(204, 204, 204)" stroke-width="1px"></line><line x1="30.22222222222222" y1="0" x2="30.22222222222222" y2="5" style="visibility: inherit;" fill="rgb(0, 0, 0)" stroke="rgb(204, 204, 204)" stroke-width="1px"></line><line x1="60.44444444444444" y1="0" x2="60.44444444444444" y2="5" style="visibility: inherit;" fill="rgb(0, 0, 0)" stroke="rgb(204, 204, 204)" stroke-width="1px"></line><line x1="90.66666666666666" y1="0" x2="90.66666666666666" y2="5" style="visibility: inherit;" fill="rgb(0, 0, 0)" stroke="rgb(204, 204, 204)" stroke-width="1px"></line><line x1="120.88888888888889" y1="0" x2="120.88888888888889" y2="5" style="visibility: inherit;" fill="rgb(0, 0, 0)" stroke="rgb(204, 204, 204)" stroke-width="1px"></line><line x1="151.11111111111111" y1="0" x2="151.11111111111111" y2="5" style="visibility: inherit;" fill="rgb(0, 0, 0)" stroke="rgb(204, 204, 204)" stroke-width="1px"></line><line x1="181.33333333333331" y1="0" x2="181.33333333333331" y2="5" style="visibility: inherit;" fill="rgb(0, 0, 0)" stroke="rgb(204, 204, 204)" stroke-width="1px"></line><line x1="211.55555555555557" y1="0" x2="211.55555555555557" y2="5" style="visibility: inherit;" fill="rgb(0, 0, 0)" stroke="rgb(204, 204, 204)" stroke-width="1px"></line><line x1="241.77777777777777" y1="0" x2="241.77777777777777" y2="5" style="visibility: inherit;" fill="rgb(0, 0, 0)" stroke="rgb(204, 204, 204)" stroke-width="1px"></line><line x1="272" y1="0" x2="272" y2="5" style="visibility: inherit;" fill="rgb(0, 0, 0)" stroke="rgb(204, 204, 204)" stroke-width="1px"></line></g><g transform="translate(0, 8)"><text x="0" y="0" dx="0em" dy="0.95em" style="text-anchor: middle; visibility: hidden; font-family: &quot;Helvetica Neue&quot;, sans-serif; font-size: 12px; font-weight: 200;" fill="rgb(50, 49, 63)" stroke="none" stroke-width="1px">-200k</text><text x="30.22222222222222" y="0" dx="0em" dy="0.95em" style="text-anchor: middle; visibility: inherit; font-family: &quot;Helvetica Neue&quot;, sans-serif; font-size: 12px; font-weight: 200;" fill="rgb(50, 49, 63)" stroke="none" stroke-width="1px">0</text><text x="60.44444444444444" y="0" dx="0em" dy="0.95em" style="text-anchor: middle; visibility: hidden; font-family: &quot;Helvetica Neue&quot;, sans-serif; font-size: 12px; font-weight: 200;" fill="rgb(50, 49, 63)" stroke="none" stroke-width="1px">200k</text><text x="90.66666666666666" y="0" dx="0em" dy="0.95em" style="text-anchor: middle; visibility: inherit; font-family: &quot;Helvetica Neue&quot;, sans-serif; font-size: 12px; font-weight: 200;" fill="rgb(50, 49, 63)" stroke="none" stroke-width="1px">400k</text><text x="120.88888888888889" y="0" dx="0em" dy="0.95em" style="text-anchor: middle; visibility: hidden; font-family: &quot;Helvetica Neue&quot;, sans-serif; font-size: 12px; font-weight: 200;" fill="rgb(50, 49, 63)" stroke="none" stroke-width="1px">600k</text><text x="151.11111111111111" y="0" dx="0em" dy="0.95em" style="text-anchor: middle; visibility: inherit; font-family: &quot;Helvetica Neue&quot;, sans-serif; font-size: 12px; font-weight: 200;" fill="rgb(50, 49, 63)" stroke="none" stroke-width="1px">800k</text><text x="181.33333333333331" y="0" dx="0em" dy="0.95em" style="text-anchor: middle; visibility: hidden; font-family: &quot;Helvetica Neue&quot;, sans-serif; font-size: 12px; font-weight: 200;" fill="rgb(50, 49, 63)" stroke="none" stroke-width="1px">1M</text><text x="211.55555555555557" y="0" dx="0em" dy="0.95em" style="text-anchor: middle; visibility: inherit; font-family: &quot;Helvetica Neue&quot;, sans-serif; font-size: 12px; font-weight: 200;" fill="rgb(50, 49, 63)" stroke="none" stroke-width="1px">1.2M</text><text x="241.77777777777777" y="0" dx="0em" dy="0.95em" style="text-anchor: middle; visibility: hidden; font-family: &quot;Helvetica Neue&quot;, sans-serif; font-size: 12px; font-weight: 200;" fill="rgb(50, 49, 63)" stroke="none" stroke-width="1px">1.4M</text><text x="272" y="0" dx="0em" dy="0.95em" style="text-anchor: middle; visibility: hidden; font-family: &quot;Helvetica Neue&quot;, sans-serif; font-size: 12px; font-weight: 200;" fill="rgb(50, 49, 63)" stroke="none" stroke-width="1px">1.6M</text></g><line x1="0" y1="0" x2="272" y2="0" fill="rgb(0, 0, 0)" stroke="rgb(204, 204, 204)" stroke-width="1px"></line></g></g></g></g></svg>