<svg viewBox="0 0 330 200" xmlns="http://www.w3.org/2000/svg"><g><g><g><g><g><line x1="46" y1="178" x2="41" y2="178" style="visibility: inherit;" fill="rgb(0, 0, 0)" stroke="rgb(204, 204, 204)" stroke-width="1px"></line><line x1="46" y1="163.16666666666666" x2="41" y2="163.16666666666666" style="visibility: inherit;" fill="rgb(0, 0, 0)" stroke="rgb(204, 204, 204)" stroke-width="1px"></line><line x1="46" y1="148.33333333333334" x2="41" y2="148.33333333333334" style="visibility: inherit;" fill="rgb(0, 0, 0)" stroke="rgb(204, 204, 204)" stroke-width="1px"></line><line x1="46" y1="133.5" x2="41" y2="133.5" style="visibility: inherit;" fill="rgb(0, 0, 0)" stroke="rgb(204, 204, 204)" stroke-width="1px"></line><line x1="46" y1="118.66666666666667" x2="41" y2="118.66666666666667" style="visibility: inherit;" fill="rgb(0, 0, 0)" stroke="rgb(204, 204, 204)" stroke-width="1px"></line><line x1="46" y1="103.83333333333333" x2="41" y2="103.83333333333333" style="visibility: inherit;" fill="rgb(0, 0, 0)" stroke="rgb(204, 204, 204)" stroke-width="1px"></line><line x1="46" y1="89" x2="41" y2="89" style="visibility: inherit;" fill="rgb(0, 0, 0)" stroke="rgb(204, 204, 204)" stroke-width="1px"></line><line x1="46" y1="74.16666666666666" x2="41" y2="74.16666666666666" style="visibility: inherit;" fill="rgb(0, 0, 0)" stroke="rgb(204, 204, 204)" stroke-width="1px"></line><line x1="46" y1="59.33333333333334" x2="41" y2="59.33333333333334" style="visibility: inherit;" fill="rgb(0, 0, 0)" stroke="rgb(204, 204, 204)" stroke-width="1px"></line><line x1="46" y1="44.5" x2="41" y2="44.5" style="visibility: inherit;" fill="rgb(0, 0, 0)" stroke="rgb(204, 204, 204)" stroke-width="1px"></line><line x1="46" y1="29.666666666666657" x2="41" y2="29.666666666666657" style="visibility: inherit;" fill="rgb(0, 0, 0)" stroke="rgb(204, 204, 204)" stroke-width="1px"></line><line x1="46" y1="14.833333333333343" x2="41" y2="14.833333333333343" style="visibility: inherit;" fill="rgb(0, 0, 0)" stroke="rgb(204, 204, 204)" stroke-width="1px"></line><line x1="46" y1="0" x2="41" y2="0" style="visibility: inherit;" fill="rgb(0, 0, 0)" stroke="rgb(204, 204, 204)" stroke-width="1px"></line></g><g transform="translate(36, 0)"><text x="0" y="178" dx="0em" dy="0.3em" style="text-anchor: end; visibility: hidden; font-family: &quot;Helvetica Neue&quot;, sans-serif; font-size: 12px; font-weight: 200;" fill="rgb(50, 49, 63)" stroke="none" stroke-width="1px">-30</text><text x="0" y="163.16666666666666" dx="0em" dy="0.3em" style="text-anchor: end; visibility: inherit; font-family: &quot;Helvetica Neue&quot;, sans-serif; font-size: 12px; font-weight: 200;" fill="rgb(50, 49, 63)" stroke="none" stroke-width="1px">-25</text><text x="0" y="148.33333333333334" dx="0em" dy="0.3em" style="text-anchor: end; visibility: hidden; font-family: &quot;Helvetica Neue&quot;, sans-serif; font-size: 12px; font-weight: 200;" fill="rgb(50, 49, 63)" stroke="none" stroke-width="1px">-20</text><text x="0" y="133.5" dx="0em" dy="0.3em" style="text-anchor: end; visibility: inherit; font-family: &quot;Helvetica Neue&quot;, sans-serif; font-size: 12px; font-weight: 200;" fill="rgb(50, 49, 63)" stroke="none" stroke-width="1px">-15</text><text x="0" y="118.66666666666667" dx="0em" dy="0.3em" style="text-anchor: end; visibility: hidden; font-family: &quot;Helvetica Neue&quot;, sans-serif; font-size: 12px; font-weight: 200;" fill="rgb(50, 49, 63)" stroke="none" stroke-width="1px">-10</text><text x="0" y="103.83333333333333" dx="0em" dy="0.3em" style="text-anchor: end; visibility: inherit; font-family: &quot;Helvetica Neue&quot;, sans-serif; font-size: 12px; font-weight: 200;" fill="rgb(50, 49, 63)" stroke="none" stroke-width="1px">-5</text><text x="0" y="89" dx="0em" dy="0.3em" style="text-anchor: end; visibility: hidden; font-family: &quot;Helvetica Neue&quot;, sans-serif; font-size: 12px; font-weight: 200;" fill="rgb(50, 49, 63)" stroke="none" stroke-width="1px">0</text><text x="0" y="74.16666666666666" dx="0em" dy="0.3em" style="text-anchor: end; visibility: inherit; font-family: &quot;Helvetica Neue&quot;, sans-serif; font-size: 12px; font-weight: 200;" fill="rgb(50, 49, 63)" stroke="none" stroke-width="1px">5</text><text x="0" y="59.33333333333334" dx="0em" dy="0.3em" style="text-anchor: end; visibility: hidden; font-family: &quot;Helvetica Neue&quot;, sans-serif; font-size: 12px; font-weight: 200;" fill="rgb(50, 49, 63)" stroke="none" stroke-width="1px">10</text><text x="0" y="44.5" dx="0em" dy="0.3em" style="text-anchor: end; visibility: inherit; font-family: &quot;Helvetica Neue&quot;, sans-serif; font-size: 12px; font-weight: 200;" fill="rgb(50, 49, 63)" stroke="none" stroke-width="1px">15</text><text x="0" y="29.666666666666657" dx="0em" dy="0.3em" style="text-anchor: end; visibility: hidden; font-family: &quot;Helvetica Neue&quot;, sans-serif; font-size: 12px; font-weight: 200;" fill="rgb(50, 49, 63)" stroke="none" stroke-width="1px">20</text><text x="0" y="14.833333333333343" dx="0em" dy="0.3em" style="text-anchor: end; visibility: inherit; font-family: &quot;Helvetica Neue&quot;, sans-serif; font-size: 12px; font-weight: 200;" fill="rgb(50, 49, 63)" stroke="none" stroke-width="1px">25</text><text x="0" y="0" dx="0em" dy="0.3em" style="text-anchor: end; visibility: hidden; font-family: &quot;Helvetica Neue&quot;, sans-serif; font-size: 12px; font-weight: 200;" fill="rgb(50, 49, 63)" stroke="none" stroke-width="1px">30</text></g><line x1="46" y1="0" x2="46" y2="178" fill="rgb(0, 0, 0)" stroke="rgb(204, 204, 204)" stroke-width="1px"></line></g></g><g transform="translate(46, 0)" clip-path="url(#clip_0)"><clipPath id="clip_0"><rect width="283" height="177"></rect></clipPath><g><g><g><line x1="0" y1="0" x2="0" y2="178" fill="rgb(0, 0, 0)" stroke="rgb(60, 60, 60)" stroke-width="1px" opacity="0.25"></line><line x1="31.555555555555554" y1="0" x2="31.555555555555554" y2="178" fill="rgb(0, 0, 0)" stroke="rgb(60, 60, 60)" stroke-width="1px" opacity="0.25"></line><line x1="63.11111111111111" y1="0" x2="63.11111111111111" y2="178" fill="rgb(0, 0, 0)" stroke="rgb(60, 60, 60)" stroke-width="1px" opacity="0.25"></line><line x1="94.66666666666666" y1="0" x2="94.66666666666666" y2="178" fill="rgb(0, 0, 0)" stroke="rgb(60, 60, 60)" stroke-width="1px" opacity="0.25"></line><line x1="126.22222222222221" y1="0" x2="126.22222222222221" y2="178" fill="rgb(0, 0, 0)" stroke="rgb(60, 60, 60)" stroke-width="1px" opacity="0.25"></line><line x1="157.77777777777777" y1="0" x2="157.77777777777777" y2="178" fill="rgb(0, 0, 0)" stroke="rgb(60, 60, 60)" stroke-width="1px" opacity="0.25"></line><line x1="189.33333333333331" y1="0" x2="189.33333333333331" y2="178" fill="rgb(0, 0, 0)" stroke="rgb(60, 60, 60)" stroke-width="1px" opacity="0.25"></line><line x1="220.88888888888889" y1="0" x2="220.88888888888889" y2="178" fill="rgb(0, 0, 0)" stroke="rgb(60, 60, 60)" stroke-width="1px" opacity="0.25"></line><line x1="252.44444444444443" y1="0" x2="252.44444444444443" y2="178" fill="rgb(0, 0, 0)" stroke="rgb(60, 60, 60)" stroke-width="1px" opacity="0.25"></line><line x1="284" y1="0" x2="284" y2="178" fill="rgb(0, 0, 0)" stroke="rgb(60, 60, 60)" stroke-width="1px" opacity="0.25"></line></g><g><line x1="0" y1="178" x2="284" y2="178" fill="rgb(0, 0, 0)" stroke="rgb(60, 60, 60)" stroke-width="1px" opacity="0.25"></line><line x1="0" y1="163.16666666666666" x2="284" y2="163.16666666666666" fill="rgb(0, 0, 0)" stroke="rgb(60, 60, 60)" stroke-width="1px" opacity="0.25"></line><line x1="0" y1="148.33333333333334" x2="284" y2="148.33333333333334" fill="rgb(0, 0, 0)" stroke="rgb(60, 60, 60)" stroke-width="1px" opacity="0.25"></line><line x1="0" y1="133.5" x2="284" y2="133.5" fill="rgb(0, 0, 0)" stroke="rgb(60, 60, 60)" stroke-width="1px" opacity="0.25"></line><line x1="0" y1="118.66666666666667" x2="284" y2="118.66666666666667" fill="rgb(0, 0, 0)" stroke="rgb(60, 60, 60)" stroke-width="1px" opacity="0.25"></line><line x1="0" y1="103.83333333333333" x2="284" y2="103.83333333333333" fill="rgb(0, 0, 0)" stroke="rgb(60, 60, 60)" stroke-width="1px" opacity="0.25"></line><line x1="0" y1="89" x2="284" y2="89" fill="rgb(0, 0, 0)" stroke="rgb(60, 60, 60)" stroke-width="1px" opacity="0.25"></line><line x1="0" y1="74.16666666666666" x2="284" y2="74.16666666666666" fill="rgb(0, 0, 0)" stroke="rgb(60, 60, 60)" stroke-width="1px" opacity="0.25"></line><line x1="0" y1="59.33333333333334" x2="284" y2="59.33333333333334" fill="rgb(0, 0, 0)" stroke="rgb(60, 60, 60)" stroke-width="1px" opacity="0.25"></line><line x1="0" y1="44.5" x2="284" y2="44.5" fill="rgb(0, 0, 0)" stroke="rgb(60, 60, 60)" stroke-width="1px" opacity="0.25"></line><line x1="0" y1="29.666666666666657" x2="284" y2="29.666666666666657" fill="rgb(0, 0, 0)" stroke="rgb(60, 60, 60)" stroke-width="1px" opacity="0.25"></line><line x1="0" y1="14.833333333333343" x2="284" y2="14.833333333333343" fill="rgb(0, 0, 0)" stroke="rgb(60, 60, 60)" stroke-width="1px" opacity="0.25"></line><line x1="0" y1="0" x2="284" y2="0" fill="rgb(0, 0, 0)" stroke="rgb(60, 60, 60)" stroke-width="1px" opacity="0.25"></line></g></g></g><g><g><line x1="0" y1="89" x2="284" y2="89" fill="rgb(0, 0, 0)" stroke="rgb(153, 153, 153)" stroke-width="1.5px"></line></g></g><g><g><line x1="31.555555555555554" y1="0" x2="31.555555555555554" y2="178" fill="rgb(0, 0, 0)" stroke="rgb(153, 153, 153)" stroke-width="1.5px"></line></g></g><g><g><g><g><g><path stroke="rgb(204, 51, 17)" stroke-width="2px" d="M31.734002222222223,145.36666666666667L31.882786666666668,147.22083333333333L32.02131555555555,148.29297148386638L32.14154222222222,148.99319904949152L32.29458666666667,149.4790315510249L32.460568888888886,149.41323895458675L32.62102888888889,149.49205479716872L32.75072222222222,149.6241176945219L32.87094888888889,149.7685181820337L33.039455555555556,149.78789473851435L33.18808222222222,149.74531023780838L33.35485333333334,149.57570659582427L33.48928,149.5351140081814L33.647057777777775,149.56299533912656L33.81824666666667,149.62493804268604L33.95677555555555,149.70165113388444L34.09120222222222,149.7825724724994L34.23904,149.73027916482175L34.390033333333335,149.67114670911653L34.524460000000005,149.6700222230451L34.66677555555555,149.6439178464224L34.84459111111111,149.60513704738955L34.98659111111111,149.5607626437834L35.11123555555555,149.56423462603703L35.24092888888889,149.59400816068427L35.39002888888889,149.59178915979658L35.53313333333333,149.61581451269586L35.66282666666667,149.65377347519058L35.82328666666666,149.6575522233068L35.979171111111114,149.64208582987314L36.14546888888889,149.57793922338328L36.282893333333334,149.56218019944242L36.44903333333333,149.53811688519932L36.61359555555555,149.5448302499236L36.75843555555556,149.53489769710598L36.92599555555556,149.51575393585586L37.103968888888886,149.45972195853818L37.309553333333334,149.32144828182788L37.47979555555556,149.20004950064592L37.7081,149.03136258081798L37.94318888888888,148.83898119884918L38.12920888888889,148.69322977352L38.35877555555555,148.521673719165L38.54148222222222,148.41936704479508L38.771995555555556,148.3058413928402L38.95643777777777,148.21365035368336L39.141511111111114,148.11003505066643L39.45627777777778,147.927410673747L39.66612222222223,147.79916763125655L39.89474222222223,147.68056643060032L40.15428666666667,147.59265438269244L40.36665555555555,147.50097689678643L40.612473333333334,147.43090077430222L40.84772,147.37434226308386L41.090382222222225,147.28327247719434L41.33336,147.15234540872052L41.54683333333333,147.0418165622489L41.897099999999995,146.84233061422918L42.15443555555556,146.6744379549226L42.392680000000006,146.5468857496381L42.67320888888889,146.42496219929458L42.987028888888894,146.2887410524869L43.32861777777778,146.10827036798304L43.601573333333334,145.94142055412317L43.8993,145.74803195893872L44.18866444444445,145.59548584202992L44.46524888888889,145.46853616464176L44.72889555555555,145.37543622311773L45.05912444444444,145.21714667751485L45.47139777777778,144.93790608410495L45.83192,144.67485584833895L46.339175555555556,144.29232116789822L46.81945111111111,143.79548303277016L47.30588,143.14107323641014L47.78647111111111,142.41744321756224L48.11559555555555,141.47362287226912L48.585615555555556,140.5804500447726L48.99426,139.64997913839514L49.33206222222222,138.66205593905107L49.706468888888885,137.63556689676398L50.02928222222222,136.91895274792168L50.41788888888889,136.13023288532526L50.69573555555556,135.1782199161317L50.989202222222225,134.1537575620651L51.309175555555555,133.12441179940538L51.606902222222224,132.0603840664393L51.88885111111111,130.9585287441035L52.21340000000001,129.88496531978566L52.4903,128.81097950976283L52.77808666666667,127.75947712287024L53.061928888888886,126.70433094993064L53.432233333333336,125.73361266907946L53.78975777777777,124.82081320081292L54.08006888888889,123.88667263067248L54.41929111111111,123.01031904623797L54.72821999999999,122.15049660606716L55.06523333333333,121.34418116015314L55.42370444444444,120.5637874690818L55.68656222222222,119.73302002478405L56.05986444444444,118.93861151692528L56.41928222222222,118.02289988134658L56.71416888888889,116.99880668601008L57.031933333333335,115.93341729967165L57.32398,114.80765051560621L57.741617777777776,113.77619021882825L58.10056222222222,112.76571413129695L58.41454,111.70849500964161L58.73814222222222,110.62323006751187L59.042337777777774,109.5211381989442L59.39008,108.42081598109341L59.67234444444444,107.28595643639368L59.93583333333333,106.14224030216417L60.19900666666667,104.96947746936408L60.52466,103.83861961124695L60.85362666666667,102.70917199308687L61.15056444444445,101.592436608404L61.41137111111111,100.4239952870588L61.688586666666666,99.26013036976538L61.99341333333333,98.1227448885259L62.297135555555556,96.97751347529594L62.60148888888889,95.83944144114476L62.914835555555555,94.71753154832892L63.23859555555555,93.60531894031429L63.59738222222222,92.53452466922957L63.882802222222224,91.40551479517197L64.16412,90.2653088700301L64.44354444444444,89.09465198585549L64.79412666666667,87.96505783837532L65.08159777777777,86.82450143759347L65.39668,85.68923412798782L65.71128888888889,84.55714055601122L65.98866222222222,83.37948432228981L66.28007777777778,82.19822380222092L66.55918666666666,81.00293433791722L66.82236,79.811093879499L67.14564666666666,78.71625635033327L67.51926444444445,77.6677539233693L67.80010888888889,76.5995859363275L68.16141999999999,75.55521829636477L68.45394,74.50139755395004L68.75561111111111,73.45377188833723L69.10966444444445,72.42172964123192L69.46829333333334,71.43463769420366L69.8449088888889,70.4507826165222L70.15857111111112,69.42140303904988L70.42206,68.34097488515681L70.7338288888889,67.26551840023063L70.99731777777778,66.2049107232642L71.3215511111111,65.10574684136817L71.60665555555556,63.995315043094024L71.97727555555555,62.90185523984567L72.25543777777777,61.80671282703322L72.56957333333334,60.6986939102092L72.85657111111112,59.606682967524435L73.15019555555554,58.524276809323254L73.56941111111111,57.542565632916535L73.85167555555556,56.502606589629465L74.17512,55.51076399904542L74.47063777777778,54.500324658684264L74.75779333333332,53.454994523604114L75.04463333333332,52.40059684996568L75.32768666666668,51.364491398045004L75.62778,50.36309515570119L75.92850444444444,49.35879056255729L76.2150288888889,48.36460789720638L76.53342444444445,47.34089757371203L76.86491555555556,46.38253809154983L77.19546,45.40405668620838L77.50486222222223,44.46096761666479L77.7876,43.562846693452656L78.07412444444444,42.64424116833396L78.38936444444444,41.82014506314229L78.70665555555556,41.10022009961227L79.03167777777777,40.513999450717904L79.29863777777778,39.96053363751244L79.66673333333334,39.60472027304294L79.94726222222222,39.21323270703866L80.21532666666667,38.84780610981889L80.52488666666667,38.54548384696233L80.80904444444445,38.29289112299671L81.20033333333333,37.915868188202296L81.50973555555557,37.582854246254755L81.77212,37.35931200453993L82.0725288888889,37.22518665951108L82.38319333333334,37.10911290106148L82.70237777777777,37.051333320877774L82.99631777777778,37.02853251104065L83.29278222222223,36.97925347370611L83.62916444444444,36.985284602737636L83.90843111111111,36.965171666997435L84.24907333333333,37.059904086624215L84.52660444444444,37.057408847034765L84.86929777777779,36.996579275302565L85.2036288888889,37.03128089851489L85.51145333333334,37.01650105762292L85.77904444444445,36.96016766338235L86.04710888888889,36.85516826058637L86.35556444444444,36.75656780408946L86.67427555555557,36.75673995816982L86.94155111111111,36.697510822639515L87.22760222222223,36.65010640304823L87.55609555555556,36.65726456611279L87.90210222222221,36.73275883020315L88.17789777777779,36.78992232693048L88.46820888888888,36.7055533056228L88.8068,36.66679883111132L89.17615777777777,36.73847938920227L89.45716,36.76962078578373L89.73453333333333,36.76457174718638L89.99739111111111,36.725943772595684L90.33629777777779,36.75023247754663L90.61682666666667,36.77667263879039L90.91991777777777,36.8162706120828L91.19524,36.792561642965836L91.52657333333333,36.80207013804187L91.79242888888889,36.7603097453821L92.05923111111112,36.747118184672274L92.33660444444445,36.75107018651951L92.65279111111111,36.765308325900946L92.9156488888889,36.75011733298362L93.17282666666667,36.705404185800916L93.47039555555556,36.654842420945045L93.8100911111111,36.63637230030466L94.14899777777777,36.5896894131011L94.42952666666667,36.58541355732518L94.7637,36.63031579695206L95.02924,36.657257140728206L95.32602,36.625954193901435L95.58319777777777,36.58343854925917L95.85994,36.53419754931463L96.16208444444445,36.516517624233956L96.48000666666667,36.57711129882421L96.86719333333333,36.73213235953543L97.19631777777778,36.89634662560081L97.48394666666667,37.018609061786265L97.82900666666666,37.02076489385885L98.08602666666665,36.93899208857769L98.43629333333334,37.02046246302615L98.73244222222223,37.02187693460283L98.9953,37.010858679275685L99.27914222222223,36.9923807878063L99.56124888888888,36.933828563219265L99.81842666666667,36.81563092394231L100.09974444444445,36.67351297412449L100.35692222222222,36.564508327687605L100.64044888888888,36.52283941637168L100.91845333333333,36.485971131309014L101.27234888888889,36.48758177343058L101.56897111111111,36.51228203524977L101.85644222222223,36.53896913061439L102.15842888888889,36.53124751128692L102.45536666666668,36.538481477963586L102.73984,36.54282185796956L103.06501999999999,36.569159962519365L103.35974888888889,36.60869670179545L103.64753555555555,36.5493524408364L103.95851555555555,36.56121137396636L104.28148666666667,36.580193672117446L104.58031777777778,36.603449989281216L104.90439333333333,36.65300233101175L105.18082,36.67086906116401L105.44667555555556,36.657855222709145L105.73178,36.650046919636225L106.06974000000001,36.68096048922479L106.32676000000001,36.67577701781872L106.59482444444446,36.67266693497507L106.8669911111111,36.57586764247105L107.16440222222222,36.52965500524172L107.43057333333333,36.46632660808481L107.68727777777778,36.41646263151756L107.95376444444445,36.36281036903097L108.23823777777778,36.3068851349928L108.52476222222222,36.24959838141072L108.79361555555556,36.17962551444214L109.0750911111111,36.137641794260986L109.38196888888888,36.1124515621523L109.66612666666666,36.09733742288708L109.96606222222223,36.12386975414731L110.23191777777778,36.1279222146303L110.48893777777778,36.106619814373886L110.76899333333333,35.97517125487593L111.04826,35.87257050601801L111.33936,35.82287473158934L111.59622222222222,35.74559177722671L111.85308444444445,35.66362118978981L112.10994666666667,35.56697334762225L112.42108444444443,35.508984642321735L112.67857777777778,35.46232448086829L112.98845333333334,35.42246144572309L113.31536888888888,35.43414443945534L113.61467333333334,35.35808566778289L113.87516444444444,35.28871879162028L114.16421333333334,35.258965604195765L114.47961111111111,35.19364593864864L114.79059111111111,35.154454139320364L115.0477688888889,35.1190721214503L115.32230222222222,35.085975972455145L115.59367999999999,35.03051973162576L115.85069999999999,34.926044357489445L116.13249111111111,34.875226071280764L116.38966888888888,34.82100122300935L116.67666666666666,34.75286776261419L116.94157555555556,34.60518750530616L117.21879111111112,34.52844628919445L117.48117555555555,34.470534621254274L117.74829333333334,34.352721315965454L118.0084688888889,34.139632336901855L118.28994444444444,33.98804507291749L118.62064666666666,33.93269352934618L118.89612666666667,33.91134954147651L119.15362,33.83921072077624L119.42089555555556,33.784060490082936L119.67807333333333,33.71536953684762L119.97296,33.67415496490642L120.23818444444444,33.590093793763174L120.51271777777778,33.53965709107726L120.79261555555556,33.53312668262487L121.09886222222221,33.576676190645884L121.39090888888889,33.567205080639155L121.70804222222222,33.59712322945447L121.97768444444444,33.62694105701678L122.26531333333334,33.668565630100375L122.59554222222224,33.71727198710971L122.85256222222223,33.6871633733368L123.11968,33.645364328526824L123.38253777777777,33.560952473662326L123.63955777777778,33.498438422470514L123.90588666666666,33.44906305348229L124.18026222222223,33.43130477036249L124.44517111111111,33.420649800490594L124.70234888888889,33.37865600374812L125.02153333333332,33.32972584915643L125.29622444444443,33.19356983871748L125.56902222222223,33.052541541088544L125.82651555555556,32.93232601107894L126.11966666666666,32.860196693073135L126.39483111111112,32.840650715428836L126.66194888888889,32.698391334612126L126.93411555555556,32.601168767848975L127.19113555555556,32.530968289518L127.46961333333333,32.488848002519404L127.7551911111111,32.475442768593325L128.04329333333334,32.50299817966999L128.34985555555556,32.51953142631598L128.62123333333335,32.54131831257669L128.87841111111112,32.51879189290085L129.17929333333333,32.51714071598141L129.44562222222223,32.49241839667053L129.79904444444443,32.52505049478944L130.08667333333335,32.55649669193389L130.39323555555555,32.599098286766804L130.70737111111112,32.624659243666514L130.99042444444444,32.63999581780635L131.2476022222222,32.57799839603862L131.5437511111111,32.517066066431795L131.82096666666666,32.48050666866766L132.07798666666667,32.39923633864362L132.344,32.31487558919693L132.61853333333332,32.228658324709556L132.93913777777777,32.16506102774403L133.25500888888888,32.16250346438406L133.52922666666666,32.17283586464117L133.78956,32.1434344899761L134.04705333333334,32.05459429892545L134.35330000000002,32.04875567400046L134.6104777777778,32.021520885886275L134.86702444444444,31.993313074744663L135.1391911111111,31.928920634967255L135.40709777777778,31.8902851711008L135.71066222222223,31.902704707600236L135.98062,31.92202336777305L136.24694888888888,31.921747625603615L136.51848444444445,31.909715242028824L136.81416,31.902495811883966L137.10888888888888,31.933764968616373L137.39651777777777,31.94065952438271L137.65306444444442,31.92106238129628L137.96704222222223,31.90930409544444L138.2433111111111,31.91411606220646L138.5090088888889,31.928870180536762L138.79963555555557,31.949589589808056L139.05665555555555,31.950154297097725L139.32188,31.93862618319841L139.5889977777778,31.95544319140504L139.84633333333335,31.965533396329022L140.15952222222222,31.995319132442603L140.47570888888887,32.060658327203186L140.73241333333334,32.09986184405952L141.08488888888888,32.18271638215185L141.37614666666667,32.208697491848085L141.64768222222222,32.20055228111963L141.9192177777778,32.20753209295563L142.17623777777777,32.17611916523788L142.50694000000001,32.181005285153475L142.77279555555555,32.14833614228348L143.06642,32.17620240965391L143.34237333333334,32.1929221700762L143.60160222222223,32.19108708805646L143.93072666666666,32.261185405096256L144.19295333333332,32.29137745704702L144.45376,32.30949268821746L144.7412311111111,32.30849488864661L145.07209111111112,32.379097838542776L145.34173333333334,32.39772573193426L145.65271333333334,32.44450101940146L145.9584866666667,32.508167006701086L146.23002222222223,32.558233537354L146.51623111111113,32.588273455745735L146.78397999999999,32.55882965368832L147.05046666666667,32.52929869756781L147.30796,32.5115801238955L147.56529555555556,32.48908204141901L147.85513333333333,32.4993148050923L148.11183777777777,32.48172285013709L148.40404222222222,32.506766228596234L148.66122000000001,32.509925317398654L148.95752666666667,32.52368770895319L149.23931777777779,32.49634659245359L149.50422666666668,32.468074984280776L149.78522888888887,32.42737814283083L150.04288,32.391093099687765L150.38052444444446,32.393055950348156L150.65647777777775,32.334901232765844L150.97771333333336,32.35934083019501L151.23536444444443,32.36213765037937L151.5247288888889,32.39941655730934L151.80967555555557,32.44551551462649L152.08073777777776,32.473174889016775L152.37625555555556,32.52537132847027L152.6492111111111,32.56855613041549L152.94251999999997,32.641934764675085L153.21216222222222,32.65036113041148L153.4777022222222,32.64355001158023L153.7598088888889,32.63946334028148L154.03481555555555,32.64887827577533L154.3390111111111,32.69012805189098L154.60581333333334,32.70301097928726L154.8773488888889,32.71074073572501L155.15235555555554,32.72724552786079L155.42389111111112,32.74901307802833L155.69700444444445,32.75020893324279L155.99962222222223,32.77465805953065L156.29403555555555,32.78932753530336L156.57488,32.79812922076695L156.83237333333332,32.79154329377201L157.09191777777778,32.78759173757507L157.35162,32.74962225242459L157.60895555555555,32.71497362306121L157.8662911111111,32.61111814091845L158.14934444444447,32.53693791335965L158.40668,32.44496202373193L158.6638577777778,32.35417793852301L158.9639511111111,32.32343910055687L159.24731999999997,32.32872967432337L159.51964444444445,32.32003708031016L159.8208422222222,32.350422338721586L160.13182222222224,32.40425430858775L160.39909777777777,32.43655349050749L160.69335333333333,32.47966461281848L160.9500577777778,32.45806579649968L161.20739333333333,32.39763875361592L161.48950000000002,32.361382527885695L161.75503999999998,32.3514957307207L162.02515555555556,32.357430590694776L162.28217555555557,32.31352601697384L162.53919555555555,32.28718327274129L162.80189555555555,32.283242301087824L163.11303333333333,32.304611594641926L163.39009111111113,32.31743317077442L163.66320444444446,32.3013922399077L163.95651333333333,32.32736849620699L164.2450888888889,32.37855506480591L164.51268,32.40926700596526L164.7973111111111,32.43956110893396L165.07768222222222,32.43400369416898L165.36499555555554,32.406935368763754L165.64836444444444,32.42629518833999L165.9304711111111,32.41417720353945L166.20216444444443,32.39503947438607L166.50446666666667,32.419157651713334L166.76937555555557,32.42176161983659L167.04485555555556,32.43519093898365L167.32475333333332,32.45511546874502L167.58761111111113,32.45520324832873L167.86403777777778,32.467122854352056L168.14456666666666,32.48613929285213L168.42478,32.45008366624674L168.70152222222222,32.45218416682974L169.00035333333332,32.3822428375409L169.28214444444444,32.35214497824069L169.54484444444444,32.33408626266058L169.8168533333333,32.32325103331249L170.09138666666666,32.340483772249854L170.34856444444443,32.27962404936065L170.63351111111112,32.27870676705942L170.8906888888889,32.23069090797327L171.17074444444444,32.213748330794715L171.46405333333334,32.23918133591985L171.7516822222222,32.206975649289575L172.0087022222222,32.17578529903824L172.30327333333335,32.18080496543368L172.56029333333333,32.17194982699786L172.8433466666667,32.11916899084389L173.11819555555553,32.08750048915152L173.37553111111112,32.02103389843069L173.6445422222222,31.945553129178847L173.9392711111111,31.912131605900868L174.24315111111113,31.915812568480277L174.54214000000002,31.9417550225742L174.83765777777776,31.96918743330363L175.09452000000002,31.985646879741296L175.37757333333334,32.0192541607631L175.66409777777776,32.03941852937615L175.96308666666667,32.08711796536332L176.22010666666668,32.06826987386319L176.4854888888889,32.06882795723618L176.7522911111111,32.03356425582774L177.02556222222225,32.00053909670953L177.30703777777777,32.00445787778483L177.57352444444444,31.994942208156885L177.8299133333333,31.98923280638013L178.08677555555556,31.914605535675406L178.34332222222224,31.846097560093398L178.6153311111111,31.75752502165173L178.88071333333332,31.716248436859843L179.1380488888889,31.64401473289226L179.4233111111111,31.600674510511737L179.6954777777778,31.574670377083407L179.95281333333332,31.51160240732102L180.22387555555557,31.473761625463567L180.4807377777778,31.403589403256632L180.76000444444446,31.385219946478742L181.02286222222222,31.374198272411974L181.2901377777778,31.343851391425687L181.57019333333332,31.33751020110705L181.8458311111111,31.274373058937357L182.11357999999998,31.236490773635524L182.39805333333334,31.225628340727525L182.69735777777777,31.242844757528985L183.01938222222222,31.31250703558834L183.27608666666666,31.342437464150862L183.5476222222222,31.312930231582953L183.81600222222224,31.271492015495994L184.09116666666668,31.246629085843836L184.34834444444445,31.231711328052512L184.64118,31.25835922481002L184.93038666666666,31.30994877768387L185.20192222222224,31.364636385954412L185.45862666666665,31.397448950916697L185.72842666666665,31.40526955162099L186.00564222222224,31.4336957885898L186.26518666666666,31.450751530771072L186.52204888888886,31.413517222987366L186.78727333333333,31.379309700044047L187.09068,31.382519062824286L187.43037555555557,31.40817855703864L187.72273777777778,31.411707315294166L187.9901711111111,31.413824570247442L188.25839333333334,31.39136104667321L188.5236177777778,31.38974987080178L188.78016444444444,31.38878316527891L189.03671111111112,31.36446926541899L189.30130444444444,31.349880925503015L189.57741555555558,31.341127921553465L189.83696,31.335876119183695L190.12979555555557,31.368325852581194L190.42136888888888,31.41152956916588L190.6782311111111,31.389984046024267L190.9429822222222,31.377056732139295L191.24039333333334,31.393034220354565L191.52155333333334,31.37888683673748L191.79687555555554,31.346664530020973L192.09223555555556,31.35106502253734L192.38554444444443,31.353705318047133L192.7055177777778,31.390890310172352L192.9929888888889,31.425068243720574L193.25016666666667,31.40997418903021L193.5183888888889,31.389050817942888L193.78613777777778,31.37649679529048L194.12914666666666,31.416432134791478L194.3978422222222,31.440393338492072L194.65454666666668,31.442903122439333L194.93996666666666,31.444408992807666L195.20045777777776,31.43344557675556L195.47593777777777,31.43873446539743L195.7825,31.45377473685562L196.0734422222222,31.486530512889743L196.35980888888886,31.518050916783352L196.62929333333332,31.51323154596028L196.9191311111111,31.51033992346646L197.19839777777779,31.520469624856247L197.47135333333333,31.538414383963215L197.74225777777778,31.549181239427412L198.00464222222223,31.56750829097905L198.2697088888889,31.542905970477705L198.54550444444445,31.540009253062976L198.8105711111111,31.5264065477281L199.09062666666668,31.50637798625405L199.37557333333334,31.494360849369627L199.65310444444444,31.499017505512057L199.98191333333335,31.5255431123567L200.2390911111111,31.541458476463504L200.54028888888888,31.562874633200693L200.85868444444446,31.599458203789226L201.11570444444445,31.621408346142346L201.38045555555556,31.634578431554246L201.63684444444445,31.618746606255115L201.93788444444442,31.621114449348795L202.19427333333334,31.586934340385653L202.47716888888888,31.590160151553988L202.7341888888889,31.59209563825496L202.99957111111112,31.58138999200247L203.2561177777778,31.551234991091775L203.51313777777779,31.49754117572604L203.80975999999998,31.512790376211996L204.14330222222222,31.56940764959603L204.49278,31.68644431815116L204.76352666666665,31.74479938101115L205.08665555555555,31.803546295273378L205.38769555555558,31.874395258650026L205.70640666666665,31.964370126381425L205.98409555555557,32.042088923566496L206.2543688888889,32.112454078423724L206.52085555555556,32.15467317133809L206.77992666666665,32.16813768881363L207.0599822222222,32.19995027584514L207.3349888888889,32.219037828064046L207.61488666666668,32.242355034281445L207.87253777777778,32.25634535801191L208.1494377777778,32.25287487736409L208.40598444444447,32.25079258897543L208.68477777777778,32.24954321594225L208.97351111111112,32.26065826700838L209.23005777777777,32.26732729764805L209.49480888888888,32.259464041145804L209.76413555555555,32.254746087244456L210.02068222222223,32.24004837663051L210.29695111111113,32.21936281198904L210.57416666666666,32.183217596657954L210.83071333333334,32.09033110120765L211.1049311111111,32.04646614221059L211.4017111111111,32.04387877997155L211.67656,32.0423263626281L211.94588666666667,32.02953023733599L212.20259111111113,32.02185256216072L212.48059555555557,32.005379018782435L212.76743555555555,31.98362795448236L213.04528222222223,31.970577315902318L213.3299133333333,31.9746138710274L213.62101333333334,32.00076741726161L213.9037511111111,32.016459545002164L214.1609288888889,32.02587482164648L214.47443333333334,32.09085867899864L214.75133333333332,32.15358286995615L215.04259111111114,32.19121738453066L215.31570444444444,32.15446340190982L215.58045555555557,32.120544074064156L215.84536444444444,32.10019247735681L216.10175333333333,32.076114581059244L216.35814222222223,32.049803168394675L216.61500444444445,32.03401632079593L216.8908,32.02454421223666L217.14734666666666,32.006994008828L217.43955111111111,32.008330825055936L217.71960666666666,32.03286452795183L218.02648444444446,32.07131862623561L218.29565333333335,32.07065720865967L218.56781999999998,32.09399423466033L218.84361555555557,32.09612951198761L219.12398666666667,32.085543740110865L219.42770888888887,32.12666003007726L219.68441333333334,32.13946286578397L219.98955555555557,32.17087844375425L220.2648777777778,32.17786085226331L220.61309333333332,32.288850478439684L220.88873111111113,32.33171037759928L221.19024444444443,32.38116019364128L221.4467911111111,32.39896314499336L221.7118577777778,32.40964491580462L221.96840444444445,32.32112073549354L222.2391511111111,32.27987316557997L222.54760666666667,32.338190928156564L222.9358977777778,32.50371564331974L223.23993555555555,32.638629023849916L223.52362,32.707710113894905L223.8169288888889,32.7491587679219L224.10424222222224,32.76216102206499L224.40654444444445,32.75809769966477L224.66293333333334,32.74379276795153L224.99063777777778,32.758941422082785L225.27937111111112,32.768030614561496L225.63326666666666,32.82095188314122L225.91742444444444,32.85270464428902L226.20316,32.871756300977694L226.45954888888886,32.87132035671783L226.71862000000002,32.85919185188874L227.0251822222222,32.91124944035687L227.31438888888889,32.942483993437776L227.6308911111111,32.9849563384455L227.9226222222222,33.0223066837232L228.19668222222225,33.00911833945753L228.4587511111111,33.01307000778422L228.72334444444445,32.97984245734796L229.0220177777778,32.94803898881304L229.29607777777778,32.95269078423837L229.55246666666667,32.94361492322042L229.82431777777776,32.95003634488279L230.08086444444444,32.906421444787725L230.36549555555555,32.90398638127695L230.62756444444443,32.86692452835112L230.93775555555555,32.892155169688095L231.23090666666667,32.93102743103648L231.50686000000002,32.97808240100471L231.79685555555554,33.030049259531864L232.10326,33.07309631292125L232.3624888888889,33.039592116976394L232.63954666666666,32.960154908043904L232.94421555555556,32.959960335776856L233.20344444444444,32.9005089010511L233.46993111111112,32.829239488783344L233.7469888888889,32.75087702660332L233.90492444444442,33.154791886738366L234.23610000000002,33.503940983890345L234.53098666666665,33.737164318727764L234.80331111111113,33.88896525790335L235.09472666666665,33.98004582140865L235.35932,34.02282722123874L235.63054,34.380763542622816L235.90712444444443,34.60739227372636L236.18434,34.75523645066161L236.45808444444444,34.855807631708814L236.71447333333333,34.88055178890485L236.99042666666665,34.88353134494935L237.24681555555554,34.88531907857609L237.5241888888889,34.886391718752066L237.79556666666667,34.8870353028577L238.07294,34.88742145332108L238.35315333333332,34.89952008187217L238.6245311111111,34.89491232072976L239.04595555555554,35.03454639654754L239.33784444444444,35.142060718584474L239.64914,35.24217012662592L239.9232,35.302235771450796L240.2106711111111,35.35014209661887L240.46642888888888,35.378885891719676L240.7966577777778,35.4435976584856L241.05304666666666,35.45869084199893L241.32205777777776,35.45588207722082L241.6095288888889,35.47792843151316L241.92555777777778,35.50302318236166L242.21239777777777,35.529946971143886L242.49166444444444,35.56983512095945L242.7474222222222,35.53443331948321L243.0038111111111,35.47759368716518L243.26288222222223,35.40788909295503L243.51927111111112,35.342332459882726L243.78402222222223,35.30299848003932L244.08632444444444,35.32686584522574L244.3769511111111,35.37678707915694L244.65858444444444,35.43047143267481L244.94400444444446,35.4982828596049L245.25309111111113,35.574570530582264L245.5131088888889,35.62034313316869L245.76949777777776,35.62407281817434L246.02588666666668,35.60257675263151L246.31351555555554,35.55407829848642L246.58268444444442,35.5249792259994L246.8562711111111,35.495655107621104L247.12212666666665,35.48992531148025L247.39382,35.47462275890962L247.65604666666667,35.40610653600169L247.93910000000002,35.40059761707627L248.25560222222222,35.397292265721006L248.52208888888887,35.39530905490787L248.7813177777778,35.22798651937052L249.06074222222222,35.151324611207286L249.32659777777778,35.09346052803622L249.58298666666667,35.05874207813358L249.8633577777778,35.0616448847382L250.13741777777778,35.07525350697412L250.4091111111111,35.071551742042544L250.67985777777778,34.99813131683197L250.96796,34.83541194236156L251.2243488888889,34.702179502859934L251.48342,34.610375364272926L251.7398088888889,34.50782512802829L252.00282444444443,34.410694171462154L252.26757555555554,34.340550922636396L252.53327333333334,34.310329648227025L252.81758888888888,34.26846527042221L253.08344444444447,34.2314797054662L253.3537177777778,34.16182061340015L253.61010666666667,34.096291281614356L253.87580444444444,34.056973682542804L254.16532666666666,34.06898393791923L254.43118222222222,34.08805702941822L254.71770666666666,34.06390006949826L254.97409555555555,34.02567428038711L255.2363222222222,33.96713799210107L255.53215555555556,33.94388315740255L255.78933333333333,33.918063318310374L256.0550311111111,33.90257141485503L256.3257777777778,33.90514321105496L256.5821666666667,33.88295241222866L256.86238000000003,33.8696379329329L257.1549,33.88538312190167L257.41128888888886,33.88296329700981L257.70538666666664,33.94084383005321L257.99412,33.9993060264255L258.2498777777778,34.02251640597575L258.5608577777778,34.04830957197899L258.8172466666667,34.028184656761624L259.1122911111111,34.03984358417742L259.44425555555557,34.08243975544622L259.7145288888889,34.0723966433882L259.9756511111111,34.06637077615335L260.2563377777778,34.050888317539346L260.51272666666665,33.9822664143924L260.77274444444447,33.941093272504276" style="fill: none;" fill="none"></path></g><g><path stroke="rgb(255, 112, 67)" stroke-width="2px" d="M31.72974222222222,145.36666666666667L31.890991111111113,145.36666666666667L32.02952,146.37573599912682L32.159213333333334,147.27536712697906L32.32519555555555,147.7342351901098L32.47145555555556,148.19305832279315L32.59168222222222,148.59959740863323L32.711908888888885,148.94387430840615L32.84160222222222,149.22994854647658L32.96624666666667,149.4660634913338L33.09594,149.66095058274914L33.228631111111106,149.8224782702844L33.34885777777778,149.95725325356221L33.49085777777778,149.98580257266016L33.620866666666664,150.03683932632208L33.775331111111115,150.02293300600078L33.90502444444444,150.0451367766788L34.05570222222222,150.0196718208926L34.17592888888889,150.03215437298812L34.308462222222225,150.00529073626095L34.42868888888889,150.01460289412447L34.58978,149.98936684763223L34.73209555555555,149.94608451896298L34.89097777777778,149.89431713275084L35.014202222222224,149.88699080203443L35.15667555555556,149.9045023775066" style="fill: none;" fill="none"></path></g></g></g></g><g opacity="0.2"><g><g><g><path stroke="rgb(204, 51, 17)" stroke-width="2px" d="M31.734002222222223,145.36666666666667L31.882786666666668,148.33333333333334L32.02131555555555,149.3222241083781L32.14154222222222,149.81666666666666L32.29458666666667,150.11333446502687L32.460568888888886,149.3222241083781L32.62102888888889,149.6047627131144L32.75072222222222,149.81666666666666L32.87094888888889,149.98148085276284L33.039455555555556,149.81666666666666L33.18808222222222,149.68181972503663L33.35485333333334,149.3222241083781L33.48928,149.47435766855875L33.647057777777775,149.6047627131144L33.81824666666667,149.71777928670247L33.95677555555555,149.81666666666666L34.09120222222222,149.9039202372233L34.23904,149.65185248057048L34.390033333333335,149.58245703379313L34.524460000000005,149.66833559672037L34.66677555555555,149.6047627131144L34.84459111111111,149.54696712493896L34.98659111111111,149.4942019144694L35.11123555555555,149.56944255828859L35.24092888888889,149.6386682510376L35.39002888888889,149.58846066792808L35.53313333333333,149.65185248057048L35.66282666666667,149.71071186065674L35.82328666666666,149.66322034200033L35.979171111111114,149.61888624827066L36.14546888888889,149.48171933492026L36.282893333333334,149.53854166666667L36.44903333333333,149.50202191670735L36.61359555555555,149.55490029652913L36.75843555555556,149.5199988683065L36.92599555555556,149.48703829447427L37.103968888888886,149.37567399342856L37.309553333333334,149.11403776804605L37.47979555555556,149.01795132954916L37.7081,148.7783322016398L37.94318888888888,148.55040912628175L38.12920888888889,148.4746026357015L38.35877555555555,148.26433963775634L38.54148222222222,148.26590703328452L38.771995555555556,148.13555291493734L38.95643777777777,148.07536379496256L39.141511111111114,147.95461209615073L39.45627777777778,147.65347410837808L39.66612222222223,147.60680306752522L39.89474222222223,147.50266462961832L40.15428666666667,147.4607863108317L40.36665555555555,147.36346066792805L40.612473333333334,147.32578659057617L40.84772,147.2895044962565L41.090382222222225,147.1466677983602L41.33336,146.9559548060099L41.54683333333333,146.8760232925415L41.897099999999995,146.5431016921997L42.15443555555556,146.42259896596272L42.392680000000006,146.35555744171143L42.67320888888889,146.2420768737793L42.987028888888894,146.08440933227538L43.32861777777778,145.83756434122722L43.601573333333334,145.69114583333334L43.8993,145.45794906616212L44.18866444444445,145.36666666666667L44.46524888888889,145.27811164855956L44.72889555555555,145.2357863108317L45.05912444444444,144.97971235911052L45.47139777777778,144.51904519399008L45.83192,144.28028049468995L46.339175555555556,143.71851914723715L46.81945111111111,143.05022583007812L47.30588,142.15945854187012L47.78647111111111,141.33199818929037L48.11559555555555,140.05789235432943L48.585615555555556,139.24069080352783L48.99426,138.25427277882895L49.33206222222222,137.180171140035L49.706468888888885,136.09583333333333L50.02928222222222,135.8440315246582L50.41788888888889,134.94715309143066L50.69573555555556,133.7502004623413L50.989202222222225,132.61706403096517L51.309175555555555,131.58039315541583L51.606902222222224,130.46434246699016L51.88885111111111,129.3057457605998L52.21340000000001,128.2746201833089L52.4903,127.2000007947286L52.77808666666667,126.18222354253135L53.061928888888886,125.12161169052123L53.432233333333336,124.27753524780273L53.78975777777777,123.45161399841308L54.08006888888889,122.48546177546183L54.41929111111111,121.69578866958618L54.72821999999999,120.86076294581096L55.06523333333333,120.13470799128214L55.42370444444444,119.39319693247478L55.68656222222222,118.4868688583374L56.05986444444444,117.74699875513713L56.41928222222222,116.64933242797852L56.71416888888889,115.46266689300538L57.031933333333335,114.33533322016399L57.32398,113.11900033950805L57.741617777777776,112.2289997736613L58.10056222222222,111.25L58.41454,110.12266632715861L58.73814222222222,108.99533265431722L59.042337777777774,107.86800039609274L59.39008,106.77033265431722L59.67234444444444,105.58366711934407L59.93583333333333,104.4266661008199L60.19900666666667,103.21033322016397L60.52466,102.14233282407125L60.85362666666667,101.01500056584676L61.15056444444445,99.9173335313797L61.41137111111111,98.67133330504099L61.688586666666666,97.51433299382528L61.99341333333333,96.41666666666667L62.297135555555556,95.25966635545095L62.60148888888889,94.132333389918L62.914835555555555,93.03466670910517L63.23859555555555,91.93700002829233L63.59738222222222,90.9283332626025L63.882802222222224,89.71199998408555L64.16412,88.5549999823173L64.44354444444444,87.33866665959358L64.79412666666667,86.27066661715507L65.08159777777777,85.11366683642069L65.39668,83.98633316357929L65.71128888888889,82.85900019804636L65.98866222222222,81.61299997170767L66.28007777777778,80.42633302211762L66.55918666666666,79.21000014146169L66.82236,78.02333319187164L67.14564666666666,77.07400005658468L67.51926444444445,76.09500028292338L67.80010888888889,74.99733395576477L68.16141999999999,73.98866683642069L68.45394,72.92066644032796L68.75561111111111,71.882333389918L69.10966444444445,70.87366627057393L69.46829333333334,69.9539997736613L69.8449088888889,68.975L70.15857111111112,67.87733367284137L70.42206,66.7203326543172L70.7338288888889,65.6523336728414L70.99731777777778,64.61399920781454L71.3215511111111,63.45700101852417L71.60665555555556,62.32966734568278L71.97727555555555,61.26166553497315L72.25543777777777,60.16399920781454L72.56957333333334,59.03666553497314L72.85657111111112,57.968666553497314L73.15019555555554,56.90066757202149L73.56941111111111,56.069998868306484L73.85167555555556,54.94266802469889L74.17512,54.023000113169346L74.47063777777778,52.984665648142496L74.75779333333332,51.88699932098389L75.04463333333332,50.81900033950805L75.32768666666668,49.81033322016398L75.62778,48.86100079218548L75.92850444444444,47.85233367284138L76.2150288888889,46.873333899180096L76.53342444444445,45.805332088470465L76.86491555555556,44.94499886830647L77.19546,43.93633457819621L77.50486222222223,43.04633401234943L77.7876,42.21566530863444L78.07412444444444,41.26633288065594L78.38936444444444,40.58400090535483L78.70665555555556,40.02033265431723L79.03167777777777,39.634668477376295L79.29863777777778,39.13033491770426L79.66673333333334,39.0710002263387L79.94726222222222,38.62600135803223L80.21532666666667,38.29966621398924L80.52488666666667,38.09200045267741L80.80904444444445,37.914002037048334L81.20033333333333,37.35033378601074L81.50973555555557,37.08333333333334L81.77212,37.02399864196778L82.0725288888889,37.02399864196778L82.38319333333334,36.93500226338705L82.70237777777777,36.964663950602215L82.99631777777778,36.994331296285L83.29278222222223,36.905334917704266L83.62916444444444,36.994331296285L83.90843111111111,36.93500226338705L84.24907333333333,37.20200271606447L84.52660444444444,37.05366598765056L84.86929777777779,36.905334917704266L85.2036288888889,37.08333333333334L85.51145333333334,36.994331296285L85.77904444444445,36.875667572021484L86.04710888888889,36.69766915639241L86.35556444444444,36.60866711934406L86.67427555555557,36.75699818929036L86.94155111111111,36.60866711934406L87.22760222222223,36.57899977366131L87.55609555555556,36.668001810709626L87.90210222222221,36.8460002263387L88.17789777777779,36.875667572021484L88.46820888888888,36.57899977366131L88.8068,36.60866711934406L89.17615777777777,36.8460002263387L89.45716,36.81633288065592L89.73453333333333,36.75699818929036L89.99739111111111,36.668001810709626L90.33629777777779,36.78666553497314L90.61682666666667,36.81633288065592L90.91991777777777,36.875667572021484L91.19524,36.75699818929036L91.52657333333333,36.81633288065592L91.79242888888889,36.69766915639241L92.05923111111112,36.727330843607575L92.33660444444445,36.75699818929036L92.65279111111111,36.78666553497314L92.9156488888889,36.727330843607575L93.17282666666667,36.63833446502687L93.47039555555556,36.57899977366131L93.8100911111111,36.60866711934406L94.14899777777777,36.519665082295745L94.42952666666667,36.57899977366131L94.7637,36.69766915639241L95.02924,36.69766915639241L95.32602,36.57899977366131L95.58319777777777,36.519665082295745L95.85994,36.460336049397796L96.16208444444445,36.48999773661296L96.48000666666667,36.668001810709626L96.86719333333333,36.964663950602215L97.19631777777778,37.14266802469891L97.48394666666667,37.20200271606447L97.82900666666666,37.02399864196778L98.08602666666665,36.81633288065592L98.43629333333334,37.14266802469891L98.73244222222223,37.02399864196778L98.9953,36.994331296285L99.27914222222223,36.964663950602215L99.56124888888888,36.8460002263387L99.81842666666667,36.63833446502687L100.09974444444445,36.460336049397796L100.35692222222222,36.40100135803223L100.64044888888888,36.460336049397796L100.91845333333333,36.430668703715014L101.27234888888889,36.48999773661296L101.56897111111111,36.5493324279785L101.85644222222223,36.57899977366131L102.15842888888889,36.519665082295745L102.45536666666668,36.5493324279785L102.73984,36.5493324279785L103.06501999999999,36.60866711934406L103.35974888888889,36.668001810709626L103.64753555555555,36.460336049397796L103.95851555555555,36.57899977366131L104.28148666666667,36.60866711934406L104.58031777777778,36.63833446502687L104.90439333333333,36.727330843607575L105.18082,36.69766915639241L105.44667555555556,36.63833446502687L105.73178,36.63833446502687L106.06974000000001,36.727330843607575L106.32676000000001,36.668001810709626L106.59482444444446,36.668001810709626L106.8669911111111,36.430668703715014L107.16440222222222,36.460336049397796L107.43057333333333,36.37133401234945L107.68727777777778,36.34166666666667L107.95376444444445,36.282331975301105L108.23823777777778,36.22299728393554L108.52476222222222,36.16366825103759L108.79361555555556,36.074666213989275L109.0750911111111,36.074666213989275L109.38196888888888,36.074666213989275L109.66612666666666,36.074666213989275L109.96606222222223,36.16366825103759L110.23191777777778,36.13400090535481L110.48893777777778,36.074666213989275L110.76899333333333,35.77799841562907L111.04826,35.71866938273112L111.33936,35.74833106994629L111.59622222222222,35.629667345682776L111.85308444444445,35.54066530863443L112.10994666666667,35.42200158437092L112.42108444444443,35.42200158437092L112.67857777777778,35.392334238688164L112.98845333333334,35.362666893005354L113.31536888888888,35.45166893005373L113.61467333333334,35.243997510274255L113.87516444444444,35.184668477376306L114.16421333333334,35.21433582305909L114.47961111111111,35.09566644032796L114.79059111111111,35.09566644032796L115.0477688888889,35.06599909464518L115.32230222222222,35.0363317489624L115.59367999999999,34.947335370381666L115.85069999999999,34.769331296285L116.13249111111111,34.798998641967756L116.38966888888888,34.73966395060222L116.67666666666666,34.65066757202149L116.94157555555556,34.38366711934407L117.21879111111112,34.41333446502685L117.48117555555555,34.38366711934407L117.74829333333334,34.17600135803221L118.0084688888889,33.81999886830647L118.28994444444444,33.760664176940935L118.62064666666666,33.84966621398925L118.89612666666667,33.879333559672034L119.15362,33.73100248972574L119.42089555555556,33.701335144042986L119.67807333333333,33.61233310699461L119.97296,33.61233310699461L120.23818444444444,33.464002037048346L120.51271777777778,33.464002037048346L120.79261555555556,33.523331069946295L121.09886222222221,33.64200045267742L121.39090888888889,33.55299841562908L121.70804222222222,33.64200045267742L121.97768444444444,33.671667798360176L122.26531333333334,33.73100248972574L122.59554222222224,33.79033152262369L122.85256222222223,33.64200045267742L123.11968,33.58266576131186L123.38253777777777,33.434334691365564L123.63955777777778,33.40466734568278L123.90588666666666,33.375L124.18026222222223,33.40466734568278L124.44517111111111,33.40466734568278L124.70234888888889,33.315665308634436L125.02153333333332,33.25633061726887L125.29622444444443,32.989335823059065L125.56902222222223,32.840999094645184L125.82651555555556,32.75200271606445L126.11966666666666,32.75200271606445L126.39483111111112,32.8113317489624L126.66194888888889,32.48500226338703L126.93411555555556,32.45533491770428L127.19113555555556,32.42566757202147L127.46961333333333,32.42566757202147L127.7551911111111,32.45533491770428L128.04329333333334,32.54433129628498L128.34985555555556,32.54433129628498L128.62123333333335,32.57399864196779L128.87841111111112,32.48500226338703L129.17929333333333,32.51466395060223L129.44562222222223,32.45533491770428L129.79904444444443,32.57399864196779L130.08667333333335,32.603665987650544L130.39323555555555,32.66300067901611L130.70737111111112,32.66300067901611L130.99042444444444,32.66300067901611L131.2476022222222,32.48500226338703L131.5437511111111,32.42566757202147L131.82096666666666,32.42566757202147L132.07798666666667,32.27733084360759L132.344,32.188334465026855L132.61853333333332,32.09933242797851L132.93913777777777,32.06966508229573L133.25500888888888,32.158667119344074L133.52922666666666,32.188334465026855L133.78956,32.09933242797851L134.04705333333334,31.921334012349433L134.35330000000002,32.039997736612946L134.6104777777778,31.980668703714997L134.86702444444444,31.951001358032244L135.1391911111111,31.832331975301116L135.40709777777778,31.832331975301116L135.71066222222223,31.921334012349433L135.98062,31.951001358032244L136.24694888888888,31.921334012349433L136.51848444444445,31.89166666666668L136.81416,31.89166666666668L137.10888888888888,31.980668703714997L137.39651777777777,31.951001358032244L137.65306444444442,31.89166666666668L137.96704222222223,31.89166666666668L138.2433111111111,31.921334012349433L138.5090088888889,31.951001358032244L138.79963555555557,31.980668703714997L139.05665555555555,31.951001358032244L139.32188,31.921334012349433L139.5889977777778,31.980668703714997L139.84633333333335,31.980668703714997L140.15952222222222,32.039997736612946L140.47570888888887,32.158667119344074L140.73241333333334,32.158667119344074L141.08488888888888,32.30699818929037L141.37614666666667,32.24766915639242L141.64768222222222,32.188334465026855L141.9192177777778,32.21800181070964L142.17623777777777,32.12899977366129L142.50694000000001,32.188334465026855L142.77279555555555,32.09933242797851L143.06642,32.21800181070964L143.34237333333334,32.21800181070964L143.60160222222223,32.188334465026855L143.93072666666666,32.36633288065593L144.19295333333332,32.33666553497315L144.45376,32.33666553497315L144.7412311111111,32.30699818929037L145.07209111111112,32.48500226338703L145.34173333333334,32.42566757202147L145.65271333333334,32.51466395060223L145.9584866666667,32.603665987650544L146.23002222222223,32.633333333333326L146.51623111111113,32.633333333333326L146.78397999999999,32.51466395060223L147.05046666666667,32.48500226338703L147.30796,32.48500226338703L147.56529555555556,32.45533491770428L147.85513333333333,32.51466395060223L148.11183777777777,32.45533491770428L148.40404222222222,32.54433129628498L148.66122000000001,32.51466395060223L148.95752666666667,32.54433129628498L149.23931777777779,32.45533491770428L149.50422666666668,32.42566757202147L149.78522888888887,32.36633288065593L150.04288,32.33666553497315L150.38052444444446,32.396000226338714L150.65647777777775,32.24766915639242L150.97771333333336,32.396000226338714L151.23536444444443,32.36633288065593L151.5247288888889,32.45533491770428L151.80967555555557,32.51466395060223L152.08073777777776,32.51466395060223L152.37625555555556,32.603665987650544L152.6492111111111,32.633333333333326L152.94251999999997,32.75200271606445L153.21216222222222,32.66300067901611L153.4777022222222,32.633333333333326L153.7598088888889,32.633333333333326L154.03481555555555,32.66300067901611L154.3390111111111,32.75200271606445L154.60581333333334,32.72233537038167L154.8773488888889,32.72233537038167L155.15235555555554,32.75200271606445L155.42389111111112,32.78166440327962L155.69700444444445,32.75200271606445L155.99962222222223,32.8113317489624L156.29403555555555,32.8113317489624L156.57488,32.8113317489624L156.83237333333332,32.78166440327962L157.09191777777778,32.78166440327962L157.35162,32.69266802469889L157.60895555555555,32.66300067901611L157.8662911111111,32.45533491770428L158.14934444444447,32.42566757202147L158.40668,32.30699818929037L158.6638577777778,32.21800181070964L158.9639511111111,32.27733084360759L159.24731999999997,32.33666553497315L159.51964444444445,32.30699818929037L159.8208422222222,32.396000226338714L160.13182222222224,32.48500226338703L160.39909777777777,32.48500226338703L160.69335333333333,32.54433129628498L160.9500577777778,32.42566757202147L161.20739333333333,32.30699818929037L161.48950000000002,32.30699818929037L161.75503999999998,32.33666553497315L162.02515555555556,32.36633288065593L162.28217555555557,32.24766915639242L162.53919555555555,32.24766915639242L162.80189555555555,32.27733084360759L163.11303333333333,32.33666553497315L163.39009111111113,32.33666553497315L163.66320444444446,32.27733084360759L163.95651333333333,32.36633288065593L164.2450888888889,32.45533491770428L164.51268,32.45533491770428L164.7973111111111,32.48500226338703L165.07768222222222,32.42566757202147L165.36499555555554,32.36633288065593L165.64836444444444,32.45533491770428L165.9304711111111,32.396000226338714L166.20216444444443,32.36633288065593L166.50446666666667,32.45533491770428L166.76937555555557,32.42566757202147L167.04485555555556,32.45533491770428L167.32475333333332,32.48500226338703L167.58761111111113,32.45533491770428L167.86403777777778,32.48500226338703L168.14456666666666,32.51466395060223L168.42478,32.396000226338714L168.70152222222222,32.45533491770428L169.00035333333332,32.27733084360759L169.28214444444444,32.30699818929037L169.54484444444444,32.30699818929037L169.8168533333333,32.30699818929037L170.09138666666666,32.36633288065593L170.34856444444443,32.188334465026855L170.63351111111112,32.27733084360759L170.8906888888889,32.158667119344074L171.17074444444444,32.188334465026855L171.46405333333334,32.27733084360759L171.7516822222222,32.158667119344074L172.0087022222222,32.12899977366129L172.30327333333335,32.188334465026855L172.56029333333333,32.158667119344074L172.8433466666667,32.039997736612946L173.11819555555553,32.039997736612946L173.37553111111112,31.921334012349433L173.6445422222222,31.832331975301116L173.9392711111111,31.86199932098387L174.24315111111113,31.921334012349433L174.54214000000002,31.980668703714997L174.83765777777776,32.01033604939778L175.09452000000002,32.01033604939778L175.37757333333334,32.06966508229573L175.66409777777776,32.06966508229573L175.96308666666667,32.158667119344074L176.22010666666668,32.039997736612946L176.4854888888889,32.06966508229573L176.7522911111111,31.980668703714997L177.02556222222225,31.951001358032244L177.30703777777777,32.01033604939778L177.57352444444444,31.980668703714997L177.8299133333333,31.980668703714997L178.08677555555556,31.802664629618334L178.34332222222224,31.743335596720385L178.6153311111111,31.624666213989258L178.88071333333332,31.65433355967204L179.1380488888889,31.535664176940912L179.4233111111111,31.535664176940912L179.6954777777778,31.535664176940912L179.95281333333332,31.4170004526774L180.22387555555557,31.4170004526774L180.4807377777778,31.298331069946272L180.76000444444446,31.357665761311836L181.02286222222222,31.357665761311836L181.2901377777778,31.298331069946272L181.57019333333332,31.327998415629082L181.8458311111111,31.179667345682788L182.11357999999998,31.179667345682788L182.39805333333334,31.20933469136557L182.69735777777777,31.268669382731133L183.01938222222222,31.4170004526774L183.27608666666666,31.387333106994646L183.5476222222222,31.268669382731133L183.81600222222224,31.20933469136557L184.09116666666668,31.20933469136557L184.34834444444445,31.20933469136557L184.64118,31.298331069946272L184.93038666666666,31.387333106994646L185.20192222222224,31.44666779836018L185.45862666666665,31.44666779836018L185.72842666666665,31.4170004526774L186.00564222222224,31.476335144042963L186.26518666666666,31.476335144042963L186.52204888888886,31.357665761311836L186.78727333333333,31.327998415629082L187.09068,31.387333106994646L187.43037555555557,31.44666779836018L187.72273777777778,31.4170004526774L187.9901711111111,31.4170004526774L188.25839333333334,31.357665761311836L188.5236177777778,31.387333106994646L188.78016444444444,31.387333106994646L189.03671111111112,31.327998415629082L189.30130444444444,31.327998415629082L189.57741555555558,31.327998415629082L189.83696,31.327998415629082L190.12979555555557,31.4170004526774L190.42136888888888,31.476335144042963L190.6782311111111,31.357665761311836L190.9429822222222,31.357665761311836L191.24039333333334,31.4170004526774L191.52155333333334,31.357665761311836L191.79687555555554,31.298331069946272L192.09223555555556,31.357665761311836L192.38554444444443,31.357665761311836L192.7055177777778,31.44666779836018L192.9929888888889,31.476335144042963L193.25016666666667,31.387333106994646L193.5183888888889,31.357665761311836L193.78613777777778,31.357665761311836L194.12914666666666,31.476335144042963L194.3978422222222,31.476335144042963L194.65454666666668,31.44666779836018L194.93996666666666,31.44666779836018L195.20045777777776,31.4170004526774L195.47593777777777,31.44666779836018L195.7825,31.476335144042963L196.0734422222222,31.535664176940912L196.35980888888886,31.565331522623694L196.62929333333332,31.506002489725745L196.9191311111111,31.506002489725745L197.19839777777779,31.535664176940912L197.47135333333333,31.565331522623694L197.74225777777778,31.565331522623694L198.00464222222223,31.594998868306476L198.2697088888889,31.506002489725745L198.54550444444445,31.535664176940912L198.8105711111111,31.506002489725745L199.09062666666668,31.476335144042963L199.37557333333334,31.476335144042963L199.65310444444444,31.506002489725745L199.98191333333335,31.565331522623694L200.2390911111111,31.565331522623694L200.54028888888888,31.594998868306476L200.85868444444446,31.65433355967204L201.11570444444445,31.65433355967204L201.38045555555556,31.65433355967204L201.63684444444445,31.594998868306476L201.93788444444442,31.624666213989258L202.19427333333334,31.535664176940912L202.47716888888888,31.594998868306476L202.7341888888889,31.594998868306476L202.99957111111112,31.565331522623694L203.2561177777778,31.506002489725745L203.51313777777779,31.4170004526774L203.80975999999998,31.535664176940912L204.14330222222222,31.65433355967204L204.49278,31.86199932098387L204.76352666666665,31.832331975301116L205.08665555555555,31.89166666666668L205.38769555555558,31.980668703714997L205.70640666666665,32.09933242797851L205.98409555555557,32.158667119344074L206.2543688888889,32.21800181070964L206.52085555555556,32.21800181070964L206.77992666666665,32.188334465026855L207.0599822222222,32.24766915639242L207.3349888888889,32.24766915639242L207.61488666666668,32.27733084360759L207.87253777777778,32.27733084360759L208.1494377777778,32.24766915639242L208.40598444444447,32.24766915639242L208.68477777777778,32.24766915639242L208.97351111111112,32.27733084360759L209.23005777777777,32.27733084360759L209.49480888888888,32.24766915639242L209.76413555555555,32.24766915639242L210.02068222222223,32.21800181070964L210.29695111111113,32.188334465026855L210.57416666666666,32.12899977366129L210.83071333333334,31.951001358032244L211.1049311111111,31.980668703714997L211.4017111111111,32.039997736612946L211.67656,32.039997736612946L211.94588666666667,32.01033604939778L212.20259111111113,32.01033604939778L212.48059555555557,31.980668703714997L212.76743555555555,31.951001358032244L213.04528222222223,31.951001358032244L213.3299133333333,31.980668703714997L213.62101333333334,32.039997736612946L213.9037511111111,32.039997736612946L214.1609288888889,32.039997736612946L214.47443333333334,32.188334465026855L214.75133333333332,32.24766915639242L215.04259111111114,32.24766915639242L215.31570444444444,32.09933242797851L215.58045555555557,32.06966508229573L215.84536444444444,32.06966508229573L216.10175333333333,32.039997736612946L216.35814222222223,32.01033604939778L216.61500444444445,32.01033604939778L216.8908,32.01033604939778L217.14734666666666,31.980668703714997L217.43955111111111,32.01033604939778L217.71960666666666,32.06966508229573L218.02648444444446,32.12899977366129L218.29565333333335,32.06966508229573L218.56781999999998,32.12899977366129L218.84361555555557,32.09933242797851L219.12398666666667,32.06966508229573L219.42770888888887,32.188334465026855L219.68441333333334,32.158667119344074L219.98955555555557,32.21800181070964L220.2648777777778,32.188334465026855L220.61309333333332,32.45533491770428L220.88873111111113,32.396000226338714L221.19024444444443,32.45533491770428L221.4467911111111,32.42566757202147L221.7118577777778,32.42566757202147L221.96840444444445,32.188334465026855L222.2391511111111,32.21800181070964L222.54760666666667,32.42566757202147L222.9358977777778,32.75200271606445L223.23993555555555,32.840999094645184L223.52362,32.8113317489624L223.8169288888889,32.8113317489624L224.10424222222224,32.78166440327962L224.40654444444445,32.75200271606445L224.66293333333334,32.72233537038167L224.99063777777778,32.78166440327962L225.27937111111112,32.78166440327962L225.63326666666666,32.90033378601075L225.91742444444444,32.90033378601075L226.20316,32.90033378601075L226.45954888888886,32.870666440327966L226.71862000000002,32.840999094645184L227.0251822222222,32.989335823059065L227.31438888888889,32.989335823059065L227.6308911111111,33.048664855957014L227.9226222222222,33.078332201639824L228.19668222222225,32.989335823059065L228.4587511111111,33.01899751027426L228.72334444444445,32.93000113169353L229.0220177777778,32.90033378601075L229.29607777777778,32.95966847737631L229.55246666666667,32.93000113169353L229.82431777777776,32.95966847737631L230.08086444444444,32.840999094645184L230.36549555555555,32.90033378601075L230.62756444444443,32.8113317489624L230.93775555555555,32.93000113169353L231.23090666666667,32.989335823059065L231.50686000000002,33.048664855957014L231.79685555555554,33.10799954732258L232.10326,33.13766689300539L232.3624888888889,32.989335823059065L232.63954666666666,32.840999094645184L232.94421555555556,32.95966847737631L233.20344444444444,32.8113317489624L233.46993111111112,32.72233537038167L233.7469888888889,32.633333333333326L233.90492444444442,33.760664176940935L234.23610000000002,34.02766462961833L234.53098666666665,34.08699932098389L234.80331111111113,34.116666666666674L235.09472666666665,34.116666666666674L235.35932,34.08699932098389L235.63054,34.917668024698884L235.90712444444443,34.947335370381666L236.18434,34.97700271606445L236.45808444444444,35.006664403279615L236.71447333333333,34.917668024698884L236.99042666666665,34.88800067901613L237.24681555555554,34.88800067901613L237.5241888888889,34.88800067901613L237.79556666666667,34.88800067901613L238.07294,34.88800067901613L238.35315333333332,34.917668024698884L238.6245311111111,34.88800067901613L239.04595555555554,35.243997510274255L239.33784444444444,35.30333220163982L239.64914,35.392334238688164L239.9232,35.392334238688164L240.2106711111111,35.42200158437092L240.46642888888888,35.42200158437092L240.7966577777778,35.54066530863443L241.05304666666666,35.48133061726887L241.32205777777776,35.45166893005373L241.6095288888889,35.51099796295168L241.92555777777778,35.54066530863443L242.21239777777777,35.57033265431721L242.49166444444444,35.629667345682776L242.7474222222222,35.48133061726887L243.0038111111111,35.392334238688164L243.26288222222223,35.30333220163982L243.51927111111112,35.243997510274255L243.78402222222223,35.243997510274255L244.08632444444444,35.362666893005354L244.3769511111111,35.45166893005373L244.65858444444444,35.51099796295168L244.94400444444446,35.599999999999994L245.25309111111113,35.68900203704834L245.5131088888889,35.68900203704834L245.76949777777776,35.629667345682776L246.02588666666668,35.57033265431721L246.31351555555554,35.48133061726887L246.58268444444442,35.48133061726887L246.8562711111111,35.45166893005373L247.12212666666665,35.48133061726887L247.39382,35.45166893005373L247.65604666666667,35.30333220163982L247.93910000000002,35.392334238688164L248.25560222222222,35.392334238688164L248.52208888888887,35.392334238688164L248.7813177777778,34.97700271606445L249.06074222222222,35.0363317489624L249.32659777777778,35.006664403279615L249.58298666666667,35.006664403279615L249.8633577777778,35.06599909464518L250.13741777777778,35.09566644032796L250.4091111111111,35.06599909464518L250.67985777777778,34.88800067901613L250.96796,34.591332880655926L251.2243488888889,34.50233084360758L251.48342,34.47266915639241L251.7398088888889,34.353999773661286L252.00282444444443,34.26499773661297L252.26757555555554,34.23533604939777L252.53327333333334,34.26499773661297L252.81758888888888,34.20566870371502L253.08344444444447,34.17600135803221L253.3537177777778,34.05733197530111L253.61010666666667,33.99799728393555L253.87580444444444,33.99799728393555L254.16532666666666,34.08699932098389L254.43118222222222,34.116666666666674L254.71770666666666,34.02766462961833L254.97409555555555,33.96833559672038L255.2363222222222,33.879333559672034L255.53215555555556,33.909000905354816L255.78933333333333,33.879333559672034L256.0550311111111,33.879333559672034L256.3257777777778,33.909000905354816L256.5821666666667,33.84966621398925L256.86238000000003,33.84966621398925L257.1549,33.909000905354816L257.41128888888886,33.879333559672034L257.70538666666664,34.02766462961833L257.99412,34.08699932098389L258.2498777777778,34.05733197530111L258.5608577777778,34.08699932098389L258.8172466666667,33.99799728393555L259.1122911111111,34.05733197530111L259.44425555555557,34.146334012349456L259.7145288888889,34.05733197530111L259.9756511111111,34.05733197530111L260.2563377777778,34.02766462961833L260.51272666666665,33.879333559672034L260.77274444444447,33.879333559672034" style="fill: none;" fill="none"></path></g><g><path stroke="rgb(255, 112, 67)" stroke-width="2px" d="M31.72974222222222,145.36666666666667L31.890991111111113,145.36666666666667L32.02952,147.34444255828856L32.159213333333334,148.33333333333334L32.32519555555555,148.33333333333334L32.47145555555556,148.8277758916219L32.59168222222222,149.18095480600994L32.711908888888885,149.44583333333333L32.84160222222222,149.65185248057048L32.96624666666667,149.81666666666666L33.09594,149.95151360829672L33.228631111111106,150.06389077504477L33.34885777777778,150.15897566477457L33.49085777777778,150.02857062021891L33.620866666666664,150.11333446502687L33.775331111111115,150.00208333333333L33.90502444444444,150.0784330368042L34.05570222222222,149.98148085276284L34.17592888888889,150.0508762995402L34.308462222222225,149.96499773661296L34.42868888888889,150.02857062021891L34.58978,149.95151360829672L34.73209555555555,149.88116188049315L34.89097777777778,149.81666666666666L35.014202222222224,149.87600135803223L35.15667555555556,149.93076966603599" style="fill: none;" fill="none"></path></g></g></g></g></g></g><g transform="translate(46, 178)" clip-path="url(#clip_1)"><clipPath id="clip_1"><rect width="283" height="21"></rect></clipPath><g><g><line x1="0" y1="0" x2="0" y2="5" style="visibility: inherit;" fill="rgb(0, 0, 0)" stroke="rgb(204, 204, 204)" stroke-width="1px"></line><line x1="31.555555555555554" y1="0" x2="31.555555555555554" y2="5" style="visibility: inherit;" fill="rgb(0, 0, 0)" stroke="rgb(204, 204, 204)" stroke-width="1px"></line><line x1="63.11111111111111" y1="0" x2="63.11111111111111" y2="5" style="visibility: inherit;" fill="rgb(0, 0, 0)" stroke="rgb(204, 204, 204)" stroke-width="1px"></line><line x1="94.66666666666666" y1="0" x2="94.66666666666666" y2="5" style="visibility: inherit;" fill="rgb(0, 0, 0)" stroke="rgb(204, 204, 204)" stroke-width="1px"></line><line x1="126.22222222222221" y1="0" x2="126.22222222222221" y2="5" style="visibility: inherit;" fill="rgb(0, 0, 0)" stroke="rgb(204, 204, 204)" stroke-width="1px"></line><line x1="157.77777777777777" y1="0" x2="157.77777777777777" y2="5" style="visibility: inherit;" fill="rgb(0, 0, 0)" stroke="rgb(204, 204, 204)" stroke-width="1px"></line><line x1="189.33333333333331" y1="0" x2="189.33333333333331" y2="5" style="visibility: inherit;" fill="rgb(0, 0, 0)" stroke="rgb(204, 204, 204)" stroke-width="1px"></line><line x1="220.88888888888889" y1="0" x2="220.88888888888889" y2="5" style="visibility: inherit;" fill="rgb(0, 0, 0)" stroke="rgb(204, 204, 204)" stroke-width="1px"></line><line x1="252.44444444444443" y1="0" x2="252.44444444444443" y2="5" style="visibility: inherit;" fill="rgb(0, 0, 0)" stroke="rgb(204, 204, 204)" stroke-width="1px"></line><line x1="284" y1="0" x2="284" y2="5" style="visibility: inherit;" fill="rgb(0, 0, 0)" stroke="rgb(204, 204, 204)" stroke-width="1px"></line></g><g transform="translate(0, 8)"><text x="0" y="0" dx="0em" dy="0.95em" style="text-anchor: middle; visibility: hidden; font-family: &quot;Helvetica Neue&quot;, sans-serif; font-size: 12px; font-weight: 200;" fill="rgb(50, 49, 63)" stroke="none" stroke-width="1px">-200k</text><text x="31.555555555555554" y="0" dx="0em" dy="0.95em" style="text-anchor: middle; visibility: inherit; font-family: &quot;Helvetica Neue&quot;, sans-serif; font-size: 12px; font-weight: 200;" fill="rgb(50, 49, 63)" stroke="none" stroke-width="1px">0</text><text x="63.11111111111111" y="0" dx="0em" dy="0.95em" style="text-anchor: middle; visibility: hidden; font-family: &quot;Helvetica Neue&quot;, sans-serif; font-size: 12px; font-weight: 200;" fill="rgb(50, 49, 63)" stroke="none" stroke-width="1px">200k</text><text x="94.66666666666666" y="0" dx="0em" dy="0.95em" style="text-anchor: middle; visibility: inherit; font-family: &quot;Helvetica Neue&quot;, sans-serif; font-size: 12px; font-weight: 200;" fill="rgb(50, 49, 63)" stroke="none" stroke-width="1px">400k</text><text x="126.22222222222221" y="0" dx="0em" dy="0.95em" style="text-anchor: middle; visibility: hidden; font-family: &quot;Helvetica Neue&quot;, sans-serif; font-size: 12px; font-weight: 200;" fill="rgb(50, 49, 63)" stroke="none" stroke-width="1px">600k</text><text x="157.77777777777777" y="0" dx="0em" dy="0.95em" style="text-anchor: middle; visibility: inherit; font-family: &quot;Helvetica Neue&quot;, sans-serif; font-size: 12px; font-weight: 200;" fill="rgb(50, 49, 63)" stroke="none" stroke-width="1px">800k</text><text x="189.33333333333331" y="0" dx="0em" dy="0.95em" style="text-anchor: middle; visibility: hidden; font-family: &quot;Helvetica Neue&quot;, sans-serif; font-size: 12px; font-weight: 200;" fill="rgb(50, 49, 63)" stroke="none" stroke-width="1px">1M</text><text x="220.88888888888889" y="0" dx="0em" dy="0.95em" style="text-anchor: middle; visibility: inherit; font-family: &quot;Helvetica Neue&quot;, sans-serif; font-size: 12px; font-weight: 200;" fill="rgb(50, 49, 63)" stroke="none" stroke-width="1px">1.2M</text><text x="252.44444444444443" y="0" dx="0em" dy="0.95em" style="text-anchor: middle; visibility: hidden; font-family: &quot;Helvetica Neue&quot;, sans-serif; font-size: 12px; font-weight: 200;" fill="rgb(50, 49, 63)" stroke="none" stroke-width="1px">1.4M</text><text x="284" y="0" dx="0em" dy="0.95em" style="text-anchor: middle; visibility: hidden; font-family: &quot;Helvetica Neue&quot;, sans-serif; font-size: 12px; font-weight: 200;" fill="rgb(50, 49, 63)" stroke="none" stroke-width="1px">1.6M</text></g><line x1="0" y1="0" x2="284" y2="0" fill="rgb(0, 0, 0)" stroke="rgb(204, 204, 204)" stroke-width="1px"></line></g></g></g></g></svg>