<svg viewBox="0 0 330 200" xmlns="http://www.w3.org/2000/svg"><g><g><g><g><g><line x1="46" y1="178" x2="41" y2="178" style="visibility: inherit;" fill="rgb(0, 0, 0)" stroke="rgb(204, 204, 204)" stroke-width="1px"></line><line x1="46" y1="163.16666666666666" x2="41" y2="163.16666666666666" style="visibility: inherit;" fill="rgb(0, 0, 0)" stroke="rgb(204, 204, 204)" stroke-width="1px"></line><line x1="46" y1="148.33333333333334" x2="41" y2="148.33333333333334" style="visibility: inherit;" fill="rgb(0, 0, 0)" stroke="rgb(204, 204, 204)" stroke-width="1px"></line><line x1="46" y1="133.5" x2="41" y2="133.5" style="visibility: inherit;" fill="rgb(0, 0, 0)" stroke="rgb(204, 204, 204)" stroke-width="1px"></line><line x1="46" y1="118.66666666666667" x2="41" y2="118.66666666666667" style="visibility: inherit;" fill="rgb(0, 0, 0)" stroke="rgb(204, 204, 204)" stroke-width="1px"></line><line x1="46" y1="103.83333333333333" x2="41" y2="103.83333333333333" style="visibility: inherit;" fill="rgb(0, 0, 0)" stroke="rgb(204, 204, 204)" stroke-width="1px"></line><line x1="46" y1="89" x2="41" y2="89" style="visibility: inherit;" fill="rgb(0, 0, 0)" stroke="rgb(204, 204, 204)" stroke-width="1px"></line><line x1="46" y1="74.16666666666666" x2="41" y2="74.16666666666666" style="visibility: inherit;" fill="rgb(0, 0, 0)" stroke="rgb(204, 204, 204)" stroke-width="1px"></line><line x1="46" y1="59.33333333333334" x2="41" y2="59.33333333333334" style="visibility: inherit;" fill="rgb(0, 0, 0)" stroke="rgb(204, 204, 204)" stroke-width="1px"></line><line x1="46" y1="44.5" x2="41" y2="44.5" style="visibility: inherit;" fill="rgb(0, 0, 0)" stroke="rgb(204, 204, 204)" stroke-width="1px"></line><line x1="46" y1="29.666666666666657" x2="41" y2="29.666666666666657" style="visibility: inherit;" fill="rgb(0, 0, 0)" stroke="rgb(204, 204, 204)" stroke-width="1px"></line><line x1="46" y1="14.833333333333343" x2="41" y2="14.833333333333343" style="visibility: inherit;" fill="rgb(0, 0, 0)" stroke="rgb(204, 204, 204)" stroke-width="1px"></line><line x1="46" y1="0" x2="41" y2="0" style="visibility: inherit;" fill="rgb(0, 0, 0)" stroke="rgb(204, 204, 204)" stroke-width="1px"></line></g><g transform="translate(36, 0)"><text x="0" y="178" dx="0em" dy="0.3em" style="text-anchor: end; visibility: hidden; font-family: &quot;Helvetica Neue&quot;, sans-serif; font-size: 12px; font-weight: 200;" fill="rgb(50, 49, 63)" stroke="none" stroke-width="1px">-30</text><text x="0" y="163.16666666666666" dx="0em" dy="0.3em" style="text-anchor: end; visibility: inherit; font-family: &quot;Helvetica Neue&quot;, sans-serif; font-size: 12px; font-weight: 200;" fill="rgb(50, 49, 63)" stroke="none" stroke-width="1px">-25</text><text x="0" y="148.33333333333334" dx="0em" dy="0.3em" style="text-anchor: end; visibility: hidden; font-family: &quot;Helvetica Neue&quot;, sans-serif; font-size: 12px; font-weight: 200;" fill="rgb(50, 49, 63)" stroke="none" stroke-width="1px">-20</text><text x="0" y="133.5" dx="0em" dy="0.3em" style="text-anchor: end; visibility: inherit; font-family: &quot;Helvetica Neue&quot;, sans-serif; font-size: 12px; font-weight: 200;" fill="rgb(50, 49, 63)" stroke="none" stroke-width="1px">-15</text><text x="0" y="118.66666666666667" dx="0em" dy="0.3em" style="text-anchor: end; visibility: hidden; font-family: &quot;Helvetica Neue&quot;, sans-serif; font-size: 12px; font-weight: 200;" fill="rgb(50, 49, 63)" stroke="none" stroke-width="1px">-10</text><text x="0" y="103.83333333333333" dx="0em" dy="0.3em" style="text-anchor: end; visibility: inherit; font-family: &quot;Helvetica Neue&quot;, sans-serif; font-size: 12px; font-weight: 200;" fill="rgb(50, 49, 63)" stroke="none" stroke-width="1px">-5</text><text x="0" y="89" dx="0em" dy="0.3em" style="text-anchor: end; visibility: hidden; font-family: &quot;Helvetica Neue&quot;, sans-serif; font-size: 12px; font-weight: 200;" fill="rgb(50, 49, 63)" stroke="none" stroke-width="1px">0</text><text x="0" y="74.16666666666666" dx="0em" dy="0.3em" style="text-anchor: end; visibility: inherit; font-family: &quot;Helvetica Neue&quot;, sans-serif; font-size: 12px; font-weight: 200;" fill="rgb(50, 49, 63)" stroke="none" stroke-width="1px">5</text><text x="0" y="59.33333333333334" dx="0em" dy="0.3em" style="text-anchor: end; visibility: hidden; font-family: &quot;Helvetica Neue&quot;, sans-serif; font-size: 12px; font-weight: 200;" fill="rgb(50, 49, 63)" stroke="none" stroke-width="1px">10</text><text x="0" y="44.5" dx="0em" dy="0.3em" style="text-anchor: end; visibility: inherit; font-family: &quot;Helvetica Neue&quot;, sans-serif; font-size: 12px; font-weight: 200;" fill="rgb(50, 49, 63)" stroke="none" stroke-width="1px">15</text><text x="0" y="29.666666666666657" dx="0em" dy="0.3em" style="text-anchor: end; visibility: hidden; font-family: &quot;Helvetica Neue&quot;, sans-serif; font-size: 12px; font-weight: 200;" fill="rgb(50, 49, 63)" stroke="none" stroke-width="1px">20</text><text x="0" y="14.833333333333343" dx="0em" dy="0.3em" style="text-anchor: end; visibility: inherit; font-family: &quot;Helvetica Neue&quot;, sans-serif; font-size: 12px; font-weight: 200;" fill="rgb(50, 49, 63)" stroke="none" stroke-width="1px">25</text><text x="0" y="0" dx="0em" dy="0.3em" style="text-anchor: end; visibility: hidden; font-family: &quot;Helvetica Neue&quot;, sans-serif; font-size: 12px; font-weight: 200;" fill="rgb(50, 49, 63)" stroke="none" stroke-width="1px">30</text></g><line x1="46" y1="0" x2="46" y2="178" fill="rgb(0, 0, 0)" stroke="rgb(204, 204, 204)" stroke-width="1px"></line></g></g><g transform="translate(46, 0)" clip-path="url(#clip_0)"><clipPath id="clip_0"><rect width="283" height="177"></rect></clipPath><g><g><g><line x1="0" y1="0" x2="0" y2="178" fill="rgb(0, 0, 0)" stroke="rgb(60, 60, 60)" stroke-width="1px" opacity="0.25"></line><line x1="31.555555555555554" y1="0" x2="31.555555555555554" y2="178" fill="rgb(0, 0, 0)" stroke="rgb(60, 60, 60)" stroke-width="1px" opacity="0.25"></line><line x1="63.11111111111111" y1="0" x2="63.11111111111111" y2="178" fill="rgb(0, 0, 0)" stroke="rgb(60, 60, 60)" stroke-width="1px" opacity="0.25"></line><line x1="94.66666666666666" y1="0" x2="94.66666666666666" y2="178" fill="rgb(0, 0, 0)" stroke="rgb(60, 60, 60)" stroke-width="1px" opacity="0.25"></line><line x1="126.22222222222221" y1="0" x2="126.22222222222221" y2="178" fill="rgb(0, 0, 0)" stroke="rgb(60, 60, 60)" stroke-width="1px" opacity="0.25"></line><line x1="157.77777777777777" y1="0" x2="157.77777777777777" y2="178" fill="rgb(0, 0, 0)" stroke="rgb(60, 60, 60)" stroke-width="1px" opacity="0.25"></line><line x1="189.33333333333331" y1="0" x2="189.33333333333331" y2="178" fill="rgb(0, 0, 0)" stroke="rgb(60, 60, 60)" stroke-width="1px" opacity="0.25"></line><line x1="220.88888888888889" y1="0" x2="220.88888888888889" y2="178" fill="rgb(0, 0, 0)" stroke="rgb(60, 60, 60)" stroke-width="1px" opacity="0.25"></line><line x1="252.44444444444443" y1="0" x2="252.44444444444443" y2="178" fill="rgb(0, 0, 0)" stroke="rgb(60, 60, 60)" stroke-width="1px" opacity="0.25"></line><line x1="284" y1="0" x2="284" y2="178" fill="rgb(0, 0, 0)" stroke="rgb(60, 60, 60)" stroke-width="1px" opacity="0.25"></line></g><g><line x1="0" y1="178" x2="284" y2="178" fill="rgb(0, 0, 0)" stroke="rgb(60, 60, 60)" stroke-width="1px" opacity="0.25"></line><line x1="0" y1="163.16666666666666" x2="284" y2="163.16666666666666" fill="rgb(0, 0, 0)" stroke="rgb(60, 60, 60)" stroke-width="1px" opacity="0.25"></line><line x1="0" y1="148.33333333333334" x2="284" y2="148.33333333333334" fill="rgb(0, 0, 0)" stroke="rgb(60, 60, 60)" stroke-width="1px" opacity="0.25"></line><line x1="0" y1="133.5" x2="284" y2="133.5" fill="rgb(0, 0, 0)" stroke="rgb(60, 60, 60)" stroke-width="1px" opacity="0.25"></line><line x1="0" y1="118.66666666666667" x2="284" y2="118.66666666666667" fill="rgb(0, 0, 0)" stroke="rgb(60, 60, 60)" stroke-width="1px" opacity="0.25"></line><line x1="0" y1="103.83333333333333" x2="284" y2="103.83333333333333" fill="rgb(0, 0, 0)" stroke="rgb(60, 60, 60)" stroke-width="1px" opacity="0.25"></line><line x1="0" y1="89" x2="284" y2="89" fill="rgb(0, 0, 0)" stroke="rgb(60, 60, 60)" stroke-width="1px" opacity="0.25"></line><line x1="0" y1="74.16666666666666" x2="284" y2="74.16666666666666" fill="rgb(0, 0, 0)" stroke="rgb(60, 60, 60)" stroke-width="1px" opacity="0.25"></line><line x1="0" y1="59.33333333333334" x2="284" y2="59.33333333333334" fill="rgb(0, 0, 0)" stroke="rgb(60, 60, 60)" stroke-width="1px" opacity="0.25"></line><line x1="0" y1="44.5" x2="284" y2="44.5" fill="rgb(0, 0, 0)" stroke="rgb(60, 60, 60)" stroke-width="1px" opacity="0.25"></line><line x1="0" y1="29.666666666666657" x2="284" y2="29.666666666666657" fill="rgb(0, 0, 0)" stroke="rgb(60, 60, 60)" stroke-width="1px" opacity="0.25"></line><line x1="0" y1="14.833333333333343" x2="284" y2="14.833333333333343" fill="rgb(0, 0, 0)" stroke="rgb(60, 60, 60)" stroke-width="1px" opacity="0.25"></line><line x1="0" y1="0" x2="284" y2="0" fill="rgb(0, 0, 0)" stroke="rgb(60, 60, 60)" stroke-width="1px" opacity="0.25"></line></g></g></g><g><g><line x1="0" y1="89" x2="284" y2="89" fill="rgb(0, 0, 0)" stroke="rgb(153, 153, 153)" stroke-width="1.5px"></line></g></g><g><g><line x1="31.555555555555554" y1="0" x2="31.555555555555554" y2="178" fill="rgb(0, 0, 0)" stroke="rgb(153, 153, 153)" stroke-width="1.5px"></line></g></g><g><g><g><g><g><path stroke="rgb(204, 51, 17)" stroke-width="2px" d="M31.734002222222223,145.36666666666667L31.882786666666668,149.075L32.02131555555555,150.21020408163267L32.14154222222222,150.7110294117647L32.29458666666667,150.96648160999308L32.460568888888886,148.61693519513068L32.62102888888889,149.7210698201164L32.75072222222222,150.36343109481754L32.87094888888889,150.7418724740644L33.039455555555556,149.77259597342393L33.18808222222222,149.19479467127394L33.35485333333334,147.66020299738236L33.48928,149.11802581620603L33.647057777777775,149.99149998045104L33.81824666666667,150.51514619885972L33.95677555555555,150.8291763106618L34.09120222222222,151.01753766968284L34.23904,148.75695968427414L34.390033333333335,148.58749881763487L34.524460000000005,149.6725389613677L34.66677555555555,149.13684495866107L34.84459111111111,148.81543607809152L34.98659111111111,148.62259345725178L35.11123555555555,149.69356114900438L35.24092888888889,150.3361385162686L35.39002888888889,149.53501507652427L35.53313333333333,150.24100976849334L35.66282666666667,150.66460612122407L35.82328666666666,149.73209666247857L35.979171111111114,149.17259120712842L36.14546888888889,147.65022118900993L36.282893333333334,149.1101328295954L36.44903333333333,148.79941301625308L36.61359555555555,149.79964783840975L36.75843555555556,149.2131220262964L36.92599555555556,148.86120654548137L37.103968888888886,147.4633905853049L37.309553333333334,144.2513676725894L37.47979555555556,144.69748727121421L37.7081,142.59182569324713L37.94318888888888,141.32842874826832L38.12920888888889,142.943723916405L38.35877555555555,141.5395676827709L38.54148222222222,144.25707394346665L38.771995555555556,143.51424436600277L38.95643777777777,144.25521328631453L39.141511111111114,143.51312797176095L39.45627777777778,139.50787678296666L39.66612222222223,141.85139273647823L39.89474222222223,142.07083564188872L40.15428666666667,143.38916805180628L40.36665555555555,142.9935008310826L40.612473333333334,143.9427671653179L40.84772,144.512326965858L41.090382222222225,142.48072951284684L41.33336,140.0751043743739L41.54683333333333,141.00506262462454L41.897099999999995,135.62970424144066L42.15443555555556,137.15115587819784L42.392680000000006,139.2506935269188L42.67320888888889,139.32374944948464L42.987028888888894,138.18091633635743L43.32861777777778,135.12188313514775L43.601573333333334,135.65979654775532L43.8993,133.6092112619865L44.18866444444445,135.93886009052525L44.46524888888889,137.3366493876485L44.72889555555555,139.3619896325891L45.05912444444444,134.64386044622012L45.47139777777778,125.87964960106541L45.83192,126.55445642730592L46.339175555555556,117.46600718971688L46.81945111111111,108.45293764716345L47.30588,95.9250959216314L47.78647111111111,89.59505755297884L48.11559555555555,71.5570345317873L48.585615555555556,73.78755405240571L48.99426,69.19253243144344L49.33206222222222,62.875519458866066L49.706468888888885,57.89864500865296L50.02928222222222,81.01918700519178L50.41788888888889,73.53151220311507L50.69573555555556,58.35890732186904L50.989202222222225,50.442011059788086L51.309175555555555,48.06520663587287L51.606902222222224,43.079123981523736L51.88885111111111,37.71414105558088L52.21340000000001,38.05515130001521L52.4903,35.88642411334246L52.77808666666667,35.77185446800547L53.061928888888886,33.32977934746995L53.432233333333336,38.98453427514863L53.78975777777777,42.37738723175585L54.08006888888889,38.47976567238683L54.41929111111111,42.074526070098756L54.72821999999999,41.85804897539259L55.06523333333333,45.288162718568884L55.42370444444444,46.159564297808004L55.68656222222222,39.56240524535147L56.05986444444444,41.537443147210894L56.41928222222222,39.16246588832655L56.71416888888889,36.55081286632927L57.031933333333335,37.3571543864642L57.32398,34.280959298545184L57.741617777777776,45.488575579127115L58.10056222222222,46.27981201414295L58.41454,43.19455387515242L58.73814222222222,41.343398991758136L59.042337777777774,40.23270606172153L59.39008,39.56629030369959L59.67234444444444,35.60644084888642L59.93583333333333,33.23053117599852L60.19900666666667,31.804985372265776L60.52466,36.88299122335948L60.85362666666667,37.556461400682366L61.15056444444445,39.147210173742735L61.41137111111111,34.168326104245665L61.688586666666666,32.367662329214056L61.99341333333333,34.847264064195116L62.297135555555556,35.14835843851705L62.60148888888889,35.32901506311023L62.914835555555555,36.6240757045328L63.23859555555555,37.401112089386345L63.59738222222222,42.61400058696515L63.882802222222224,37.43506701884573L64.16412,35.51437354464079L64.44354444444444,33.175290793451126L64.79412666666667,37.70517447607071L65.08159777777777,35.676438018975745L65.39668,35.645862811385456L65.71128888888889,34.44085102016459L65.98866222222222,31.34451061209876L66.28007777777778,30.67337303392594L66.55918666666666,30.27069048702222L66.82236,30.02908095888L67.14564666666666,39.377448575328L67.51926444444445,42.613135811863486L67.80010888888889,37.43454815378476L68.16141999999999,40.26072889227086L68.45394,37.209770668695825L68.75561111111111,36.565862401217515L69.10966444444445,39.73951744073051L69.46829333333334,42.83037713110497L69.8449088888889,45.871559611996304L70.15857111111112,40.57626910053111L70.42206,36.212428126985344L70.7338288888889,35.96745687619122L70.99731777777778,33.44714079238139L71.3215511111111,31.934951142095485L71.60665555555556,31.02763735192397L71.97727555555555,34.04324907782106L72.25543777777777,33.479282780025954L72.56957333333334,33.1409030013489L72.85657111111112,35.31120846747601L73.15019555555554,34.24005841381896L73.56941111111111,41.90403504829135L73.85167555555556,37.00908769564148L74.17512,36.44545261738489L74.47063777777778,36.107271570430925L74.75779333333332,34.71769627559189L75.04463333333332,33.88395109868847L75.32768666666668,34.5703706592131L75.62778,34.982222395527856L75.92850444444444,35.22933343731671L76.2150288888889,34.19093339572336L76.53342444444445,33.56789337076734L76.86491555555556,41.500736022460416L77.19546,41.513774946809576L77.50486222222223,40.334931634752394L77.7876,36.06762564751813L78.07412444444444,34.693908721844195L78.38936444444444,35.056345233106526L78.70665555555556,36.46047380653056L79.03167777777777,37.302950950585L79.29863777777778,34.24843723701767L79.66673333333334,35.975729008877266L79.94726222222222,34.6387707386597L80.21532666666667,32.649929109862455L80.52488666666667,32.64329079925085L80.80904444444445,32.63930781288383L81.20033333333333,43.31691802106363L81.50973555555557,40.230150812638186L81.77212,36.004757154249575L82.0725288888889,37.0295209592164L82.38319333333334,36.457712575529854L82.70237777777777,37.30129421198458L82.99631777777778,35.434109860524075L83.29278222222223,33.12713258298112L83.62916444444444,36.48961288312199L83.90843111111111,33.760434396539864L84.24907333333333,42.80292730459061L84.52660444444444,38.735089716087685L84.86929777777779,36.29438716298597L85.2036288888889,41.94996563112491L85.51145333333334,40.5966460453416L85.77904444444445,36.22465429387165L86.04710888888889,34.788125909656316L86.35556444444444,36.299542212460466L86.67427555555557,39.5797253274763L86.94155111111111,35.61450186315244L87.22760222222223,34.42203445122479L87.55609555555556,37.26655400406821L87.90210222222221,44.906599069107585L88.17789777777779,39.9972927747979L88.46820888888888,37.051708998212064L88.8068,42.40435873226059L89.17615777777777,50.36261523935636L89.45716,44.457569143613796L89.73453333333333,39.72787481950158L89.99739111111111,35.703391558367656L90.33629777777779,38.03536826835389L90.61682666666667,35.87455429434567L90.91991777777777,35.7647325766074L91.19524,34.51217287929779L91.52657333333333,38.50730372757869L91.79242888888889,34.97104890321387L92.05923111111112,32.84929600859499L92.33660444444445,32.76291093849031L92.65279111111111,36.27107989642752L92.9156488888889,33.62931460452319L93.17282666666667,30.85758876271393L93.47039555555556,31.567886590961677L93.8100911111111,35.55406528791033L94.14899777777777,37.94577250607952L94.42952666666667,37.0074635036477L94.7637,40.00447810218864L95.02924,35.869353527979854L95.32602,34.57494545012125L95.58319777777777,31.424967270072756L95.85994,30.721647028710322L96.16208444444445,32.67298821722619L96.48000666666667,37.403792930335726L96.86719333333333,46.17560909153477L97.19631777777778,46.692032121587545L97.48394666666667,42.25521927295253L97.82900666666666,39.59313156377152L98.08602666666665,34.4358789382629L98.43629333333334,45.58152736295773L98.73244222222223,40.40224975110797L98.9953,36.108016517331464L99.27914222222223,34.718143243732186L99.56124888888888,33.884219279572676L99.81842666666667,31.010531567743612L100.09974444444445,31.659652273979503L100.35692222222222,29.675791364387692L100.64044888888888,32.04547481863261L100.91845333333333,32.28061822451289L101.27234888888889,33.60837093470775L101.56897111111111,34.40502256082465L101.85644222222223,33.69634686982812L102.15842888888889,33.27114145523021L102.45536666666668,34.20268487313811L102.73984,33.57494425721623L103.06501999999999,37.94496655432971L103.35974888888889,38.193646599264525L103.64753555555555,35.96952129289204L103.95851555555555,38.19504610906853L104.28148666666667,38.34369433210779L104.58031777777778,38.43288326593134L104.90439333333333,39.673063292892124L105.18082,35.67050464240194L105.44667555555556,33.268969452107825L105.73178,34.2013816712647L106.06974000000001,38.32082900275884L106.32676000000001,33.67249740165528L106.59482444444446,33.256831774326514L106.8669911111111,31.820765731262554L107.16440222222222,36.89245943875753L107.43057333333333,34.002142329921185L107.68727777777778,31.081285397952712L107.95376444444445,29.328771238771623L108.23823777777778,29.463929409929648L108.52476222222222,30.731690979291102L108.79361555555556,30.305681254241335L109.0750911111111,30.05007541921148L109.38196888888888,33.45671191819355L109.66612666666666,33.127360484249465L109.96606222222223,35.30308295721633L110.23191777777778,33.04851644099645L110.48893777777778,30.50910986459789L110.76899333333333,30.172132585425402L111.04826,29.969946217921887L111.33936,31.035301064086468L111.59622222222222,29.301180638451882L111.85308444444445,28.26070838307112L112.10994666666667,27.636425029842684L112.42108444444443,29.635188351238952L112.67857777777778,28.46111301074336L112.98845333333334,32.50333447311269L113.31536888888888,34.92866735053428L113.61467333333334,35.19720041032056L113.87516444444444,31.798320246192333L114.16421333333334,33.31899214771542L114.47961111111111,35.41806195529591L114.79059111111111,36.677503839844206L115.0477688888889,32.68650230390651L115.32230222222222,31.478568049010562L115.59367999999999,30.753807496073023L115.85069999999999,29.13228449764381L116.13249111111111,30.53270403191962L116.38966888888888,28.999622419151763L116.67666666666666,30.4531067848244L116.94157555555556,30.138530737561297L117.21879111111112,32.32311844253678L117.48117555555555,31.260537732188766L117.74829333333334,30.6229893059799L118.0084688888889,29.053793583587947L118.28994444444444,29.298942816819448L118.62064666666666,34.19269902342498L118.89612666666667,33.56895274738832L119.15362,30.821371648432972L119.42089555555556,30.359489655726463L119.67807333333333,28.895693793435896L119.97296,30.390749609394874L120.23818444444444,30.1011164323036L120.51271777777778,29.927336526048833L120.79261555555556,32.19640191562928L121.09886222222221,37.11784114937757L121.39090888888889,35.32403802295988L121.70804222222222,36.62108948044258L121.97768444444444,33.83932035493223L122.26531333333334,35.73025887962601L122.59554222222224,40.42482199444228L122.85256222222223,34.93489319666537L123.11968,32.82760258466587L123.38253777777777,31.56322821746619L123.63955777777778,29.617936930479715L123.90588666666666,29.637428824954497L124.18026222222223,29.64912396163936L124.44517111111111,29.656141043650308L124.70234888888889,28.47368462619019L125.02153333333332,32.510877442380774L125.29622444444443,32.559859798761806L125.56902222222223,32.58924921259043L125.82651555555556,30.23354952755426L126.11966666666666,32.38012971653254L126.39483111111112,32.48141116325286L126.66194888888889,31.35551336461839L126.93411555555556,30.679974685437713L127.19113555555556,29.08798481126263L127.46961333333333,30.506124220090925L127.7551911111111,32.54367453205455L128.04329333333334,33.76620471923272L128.34985555555556,33.31305616487296L128.62123333333335,31.854500365590468L128.87841111111112,29.79270021935426L129.17929333333333,32.11562013161256L129.44562222222223,31.13603874563421L129.79904444444443,37.66828991404719L130.08667333333335,36.840973948428314L130.39323555555555,37.53125103572367L130.70737111111112,36.75875062143419L130.99042444444444,35.108583706193855L131.2476022222222,31.74515022371631L131.5437511111111,32.100423467563104L131.82096666666666,32.313587413871204L132.07798666666667,30.068152448322707L132.344,29.90755813566031L132.61853333333332,29.811201548062854L132.93913777777777,33.313387595504395L133.25500888888888,35.41469922396931L133.52922666666666,34.30215286771491L133.78956,31.261291720628947L134.04705333333334,29.43677503237737L134.35330000000002,33.0887316860931L134.6104777777778,30.533239011655866L134.86702444444444,28.99994340699351L135.1391911111111,30.453299377529447L135.40709777777778,30.138646293184337L135.71066222222223,32.32318777591058L135.98062,31.260579332213013L136.24694888888888,29.436347599327803L136.51848444444445,29.52847522626334L136.81416,29.583751802424672L137.10888888888888,33.17691774812147L137.39651777777777,34.14615064887289L137.65306444444442,31.167690389323752L137.96704222222223,34.1272809002609L138.2433111111111,33.52970187348987L138.5090088888889,31.984487790760596L138.79963555555557,32.2440260077897L139.05665555555555,30.026415604673815L139.32188,29.882516029470963L139.5889977777778,30.982842951015897L139.84633333333335,29.269705770609562L140.15952222222222,30.61515679569908L140.47570888888887,36.16909407741943L140.73241333333334,32.381456446451665L141.08488888888888,40.78887386787099L141.37614666666667,37.526657654055924L141.64768222222222,34.38266125910022L141.9192177777778,32.496263422126816L142.17623777777777,30.17775805327608L142.50694000000001,35.90665483196565L142.77279555555555,33.41065956584606L143.06642,35.47306240617431L143.34237333333334,33.15050411037126L143.60160222222223,30.570302466222756L143.93072666666666,36.14218147973364L144.19295333333332,33.55197555450687L144.45376,30.811185332704127L144.7412311111111,30.353377866289122L145.07209111111112,37.19869338644014L145.34173333333334,34.185882698530776L145.65271333333334,35.938196285785125L145.9584866666667,36.98958443813774L146.23002222222223,34.060417329549324L146.51623111111113,32.30291706439627L146.78397999999999,31.248416905304396L147.05046666666667,30.615716809849317L147.30796,29.04943008590959L147.56529555555556,28.10965805154575L147.85513333333333,29.919128164260798L148.11183777777777,28.631476898556457L148.40404222222222,32.605552805800556L148.66122000000001,30.243331683480335L148.95752666666667,33.572665676754866L149.23931777777779,34.38359940605292L149.50422666666668,32.49682631029842L149.78522888888887,32.55142911951239L150.04288,30.210857471707442L150.38052444444446,35.92651448302445L150.65647777777775,34.609242023148L150.97771333333336,37.37887854722214L151.23536444444443,33.10732712833328L151.5247288888889,35.29106294366662L151.80967555555557,34.227971099533306L152.08073777777776,32.403449326386635L152.37625555555556,34.86873626249866L152.6492111111111,33.97457509083253L152.94251999999997,35.811411721166195L153.21216222222222,33.353513699366374L153.4777022222222,31.878774886286493L153.7598088888889,32.18059826510523L154.03481555555555,31.17502562572983L154.3390111111111,36.50501537543789L154.60581333333334,33.76967589192941L154.8773488888889,32.12847220182431L155.15235555555554,32.33041665442792L155.42389111111112,31.264916659323433L155.69700444444445,30.62561666226074L155.99962222222223,34.98870333068976L156.29403555555555,35.23322199841388L156.57488,34.19326653238164L156.83237333333332,31.195959919428986L157.09191777777778,29.397575951657387L157.35162,28.318545570994445L157.60895555555555,27.671127342596662L157.8662911111111,27.282676405557993L158.14934444444447,29.42293917666811L158.40668,28.333763506000878L158.6638577777778,27.680258103600522L158.9639511111111,32.03482152882697L159.24731999999997,32.27422625062951L159.51964444444445,31.231202417044358L159.8208422222222,35.352054783559964L160.13182222222224,35.45123287013598L160.39909777777777,33.137406388748246L160.69335333333333,34.12244383324895L160.9500577777778,31.153466299949343L161.20739333333333,29.372079779969624L161.48950000000002,30.676581201315116L161.75503999999998,30.272615387455716L162.02515555555556,30.03023589914011L162.28217555555557,28.698141539484055L162.53919555555555,27.898884923690446L162.80189555555555,28.60599762088094L163.11303333333333,32.59026523919522L163.39009111111113,31.4208258101838L163.66320444444446,30.71916215277693L163.95651333333333,33.85816395833285L164.2450888888889,34.55489837499971L164.51268,32.59960569166648L164.7973111111111,32.61309674833319L165.07768222222222,32.62119138233325L165.36499555555554,31.43938149606663L165.64836444444444,33.103628897639965L165.9304711111111,32.91551067191733L166.20216444444443,31.615973069817045L166.50446666666667,34.3962505085569L166.76937555555557,32.504416971800794L167.04485555555556,31.36931684974715L167.32475333333332,31.874923443181643L167.58761111111113,30.991620732575655L167.86403777777778,30.46163910621206L168.14456666666666,32.51698346372723L168.42478,32.56352341156969L168.70152222222222,32.59144738027513L169.00035333333332,33.7948684281651L169.28214444444444,34.516921056899065L169.54484444444444,32.57681930080611L169.8168533333333,31.41275824715035L170.09138666666666,31.90098828162354L170.34856444444443,29.820592968974125L170.63351111111112,33.31902244805113L170.8906888888889,30.671413468830707L171.17074444444444,31.456181414631743L171.46405333333334,33.11370884877903L171.7516822222222,32.921558642600786L172.0087022222222,30.43293518556044L172.30327333333335,31.313094444669616L172.56029333333333,29.467856666801765L172.8433466666667,31.920714000081034L173.11819555555553,31.019095066715295L173.37553111111112,29.291457040029172L173.6445422222222,29.441540890684166L173.9392711111111,30.71825786774383L174.24315111111113,32.67095472064631L174.54214000000002,33.84257283238779L174.83765777777776,33.35887703276603L175.09452000000002,30.69532621965959L175.37757333333334,31.470529065129085L175.66409777777776,31.93565077241081L175.96308666666667,33.40139046344646L176.22010666666668,30.720834278067883L176.4854888888889,30.299167233507404L176.7522911111111,30.0461670067711L177.02556222222225,31.081033537396024L177.30703777777777,32.8886201224376L177.57352444444444,31.59983874012923L177.8299133333333,29.639903244077544L178.08677555555556,28.46394194644651L178.34332222222224,27.758365167867908L178.6153311111111,28.521685767387424L178.88071333333332,28.979678127099106L179.1380488888889,28.067806876259482L179.4233111111111,29.894017459089014L179.6954777777778,29.803077142120088L179.95281333333332,28.561846285272054L180.22387555555557,30.190441104496585L180.4807377777778,28.79426466269794L180.76000444444446,31.516558797618757L181.02286222222222,30.77660194523793L181.2901377777778,29.145961167142758L181.57019333333332,30.540910033618957L181.8458311111111,30.19121268683807L182.11357999999998,29.9813942787695L182.39805333333334,31.042169900595013L182.69735777777777,34.051968607023696L183.01938222222222,38.231181164214206L183.27608666666666,33.618708698528536L183.5476222222222,32.03789188578378L183.81600222222224,31.08940179813692L184.09116666666668,31.706974412215487L184.34834444444445,29.7041846473293L184.64118,32.06251078839759L184.93038666666666,33.477506473038545L185.20192222222224,33.13983721715644L185.45862666666665,30.56390233029387L185.72842666666665,30.205008064843014L186.00564222222224,31.176338172239127L186.26518666666666,29.38580290334349L186.52204888888886,28.311481742006094L186.78727333333333,28.853555711870314L187.09068,31.552133427122214L187.43037555555557,37.91794672293997L187.72273777777778,35.80410136709733L187.9901711111111,33.349127486925056L188.25839333333334,31.87614315882172L188.5236177777778,30.992352561959677L188.78016444444444,29.275411537175813L189.03671111111112,28.245246922305483L189.30130444444444,28.81381482004997L189.57741555555558,29.154955558696656L189.83696,28.17297333521799L190.12979555555557,31.143784001130797L190.42136888888888,32.926270400678476L190.6782311111111,30.435762240407087L190.9429822222222,30.128124010910938L191.24039333333334,32.31687440654656L191.52155333333334,32.44345797726126L191.79687555555554,31.33274145302343L192.09223555555556,33.03964487181406L192.38554444444443,32.87712025642176L192.7055177777778,36.33960548718639L192.9929888888889,34.85709662564517L193.25016666666667,31.59425797538711L193.5183888888889,30.823221451898917L193.78613777777778,30.360599537806024L194.12914666666666,38.38969305601694L194.3978422222222,34.90048250027684L194.65454666666668,31.62028950016611L194.93996666666666,32.02550703343297L195.20045777777776,29.895304220059813L195.47593777777777,30.99051586536922L195.7825,34.02097618588817L196.0734422222222,35.8392523781996L196.35980888888886,35.743551426919765L196.62929333333332,33.31279752281853L196.9191311111111,34.2276785136911L197.19839777777779,33.58994044154801L197.47135333333333,33.20729759826213L197.74225777777778,32.977711892290614L198.00464222222223,31.65329380204102L198.2697088888889,30.858642947891298L198.54550444444445,30.38185243540144L198.8105711111111,30.095778127907522L199.09062666666668,31.110800210077855L199.37557333333334,31.71981345938005L199.65310444444444,30.898554742294692L199.98191333333335,33.9657995120435L200.2390911111111,31.059479707226075L200.54028888888888,34.06235449100231L200.85868444444446,34.67741269460137L201.11570444444445,31.48644761676084L201.38045555555556,30.758535236723162L201.63684444444445,29.13512114203391L201.93788444444442,32.90773935188699L202.19427333333334,30.42464361113221L202.47716888888888,33.681452833345986L202.7341888888889,30.8888717000076L202.99957111111112,30.399989686671205L203.2561177777778,28.919993812002758L203.51313777777779,28.03199628720165L203.80975999999998,32.24586443898764L204.14330222222222,35.96085199672592L204.49278,41.74984453136889L204.76352666666665,36.91657338548799L205.08665555555555,38.763277364626106L205.38769555555558,38.68463308544236L205.70640666666665,38.63744651793209L205.98409555555557,36.235801244092556L206.2543688888889,34.794814079788864L206.52085555555556,32.74355511453999L206.77992666666665,30.326133068723976L207.0599822222222,31.24901317456772L207.3349888888889,31.802741238073963L207.61488666666668,32.1349780761777L207.87253777777778,29.96098684570663L208.1494377777778,29.843258774090657L208.40598444444447,28.585955264454384L208.68477777777778,31.391573158672657L208.97351111111112,31.888277228536936L209.23005777777777,29.812966337122134L209.49480888888888,29.754446468939932L209.76413555555555,29.719334548030616L210.02068222222223,28.511600728818365L210.29695111111113,28.973627103957682L210.57416666666666,30.43750959570795L210.83071333333334,28.942505757424783L211.1049311111111,29.232170121121527L211.4017111111111,31.77930207267292L211.67656,30.934247910270443L211.94588666666667,30.42721541282893L212.20259111111113,28.93632924769736L212.48059555555557,30.41513088195174L212.76743555555555,31.302411862504385L213.04528222222223,31.83478045083595L213.3299133333333,30.967534937168267L213.62101333333334,32.82052096230095L213.9037511111111,32.745645910713904L214.1609288888889,30.327387546428355L214.47443333333334,34.80976586119036L214.75133333333332,35.1258595167142L215.04259111111114,35.31551571002851L215.31570444444444,34.242642759350446L215.58045555555557,32.41225232227694L215.84536444444444,31.314018060032822L216.10175333333333,29.4684108360197L216.35814222222223,28.36104650161184L216.61500444444445,27.696627900967087L216.8908,27.297976740580253L217.14734666666666,27.058786044348153L217.43955111111111,29.288604959942234L217.71960666666666,30.626496309298687L218.02648444444446,34.98923111891253L218.29565333333335,32.8602053380142L218.56781999999998,32.76945653614183L218.84361555555557,30.3416739216851L219.12398666666667,31.25833768634439L219.42770888888887,36.55500261180663L219.68441333333334,32.613001567083984L219.98955555555557,36.18113427358372L220.2648777777778,33.5753472308169L220.61309333333332,47.43854167182349L220.88873111111113,39.1431250030941L221.19024444444443,36.539208335189784L221.4467911111111,32.603525001113866L221.7118577777778,31.428781667334988L221.96840444444445,29.537269000400983L222.2391511111111,30.775694733573943L222.54760666666667,37.45208350681105L222.9358977777778,48.57791677075332L223.23993555555555,43.386750062451966L223.52362,37.898716704137854L223.8169288888889,38.16589668914938L224.10424222222224,37.13953801348964L224.40654444444445,35.33705614142713L224.66293333333334,31.88223368485626L224.99063777777778,35.74267354424708L225.27937111111112,34.4989374598816L225.63326666666666,38.49936247592896L225.91742444444444,36.1529508188907L226.20316,33.558437158001084L226.45954888888886,30.81506229480067L226.71862000000002,29.169037376880397L227.0251822222222,35.30142242612823L227.31438888888889,34.234186789010295L227.6308911111111,35.967178740072825L227.9226222222222,34.63364057737704L228.19668222222225,32.646851013092885L228.4587511111111,31.4547772745224L228.72334444444445,30.73953303138009L229.0220177777778,31.497053152161385L229.29607777777778,31.951565224630173L229.55246666666667,29.850939134778088L229.82431777777776,29.777230147533544L230.08086444444444,28.546338088520116L230.36549555555555,30.18113618644537L230.62756444444443,29.97534837853391L230.93775555555555,33.41187569378701L231.23090666666667,34.287125416272204L231.50686000000002,33.625608583096664L231.79685555555554,33.22869848319135L232.10326,36.55055242324812L232.3624888888889,32.6103314539489L232.63954666666666,33.80619887236932L232.94421555555556,36.89705265675494L233.20344444444444,32.818231594052975L233.46993111111112,31.557605623098453L233.7469888888889,30.801230040525752L233.90492444444442,76.6274046909821L234.23610000000002,69.70977614792258L234.53098666666665,56.065865688753576L234.80331111111113,45.50618607991879L235.09472666666665,40.357044981284616L235.35932,36.08089365543745L235.63054,67.92853619326246L235.90712444444443,52.62378838262414L236.18434,44.62760636290781L236.45808444444444,38.64323048441136L236.71447333333333,33.865938290646824L236.99042666666665,32.18622964105478L237.24681555555554,29.991737784632846L237.5241888888889,29.86170933744637L237.79556666666667,29.78369226913449L238.07294,28.550215361480696L238.35315333333332,30.183462550221748L238.6245311111111,29.97674419679973L239.04595555555554,42.90604651807982L239.33784444444444,39.9836279108479L239.64914,41.790176746508706L239.9232,36.94077271457192L240.2106711111111,35.21779696207648L240.46642888888888,31.810678177245904L240.7966577777778,36.88640690634753L241.05304666666666,32.811844143808514L241.32205777777776,31.553773152951777L241.6095288888889,33.17226389177105L241.92555777777778,35.3300250017293L242.21239777777777,35.4380150010376L242.49166444444444,34.316142333955895L242.7474222222222,31.269685400373533L243.0038111111111,29.441811240224126L243.26288222222223,28.34508674413445L243.51927111111112,27.687052046480687L243.78402222222223,28.478897894555075L244.08632444444444,33.70067207006639L244.3769511111111,34.46040324203983L244.65858444444444,33.729575278557206L244.94400444444446,34.477745167134316L245.25309111111113,34.926647100280576L245.5131088888889,31.635988260168375L245.76949777777776,29.661592956101003L246.02588666666668,28.476955773660592L246.31351555555554,30.13950679752972L246.58268444444442,29.950370745184472L246.8562711111111,29.836889113777374L247.12212666666665,29.768800134933088L247.39382,29.727946747626504L247.65604666666667,29.703434715242565L247.93910000000002,32.06206082914554L248.25560222222222,35.85056983082066L248.52208888888887,33.37700856515906L248.7813177777778,30.70620513909543L249.06074222222222,31.47705641679059L249.32659777777778,30.752900516741022L249.58298666666667,29.13174031004462L249.8633577777778,31.719044186026792L250.13741777777778,30.89809317828272L250.4091111111111,30.40552257363632L250.67985777777778,30.109980210848448L250.96796,32.30598812650908L251.2243488888889,30.063592875905442L251.48342,28.718155725543284L251.7398088888889,27.91089343532596L252.00282444444443,27.426536061195577L252.26757555555554,28.32258830338401L252.53327333333334,28.86021964869707L252.81758888888888,31.556131789218227L253.08344444444447,30.800345740197628L253.3537177777778,31.53354077745189L253.61010666666667,29.600124466471158L253.87580444444444,29.626741346549352L254.16532666666666,32.0160448079296L254.43118222222222,31.076293551424442L254.71770666666666,32.88577613085465L254.97409555555555,30.411465678512798L255.2363222222222,30.11354607377436L255.53215555555556,32.3081276442646L255.78933333333333,30.064876586558768L256.0550311111111,29.90559261860193L256.3257777777778,30.996688904494476L256.5821666666667,29.27801334269668L256.86238000000003,30.620141338951328L257.1549,31.42541813670414L257.41128888888886,29.535250882022495L257.70538666666664,34.33448386254682L257.99412,36.02735698419477L258.2498777777778,32.296414190516884L258.5608577777778,35.991181847643446L258.8172466666667,32.27470910858608L259.1122911111111,34.7914921318183L259.44425555555557,37.48822861242431L259.7145288888889,35.54627050078793L259.9756511111111,32.00776230047276L260.2563377777778,32.25799071361698L260.51272666666665,30.034794428170215L260.77274444444447,28.700876656902125" style="fill: none;" fill="none"></path></g><g><path stroke="rgb(255, 112, 67)" stroke-width="2px" d="M31.72974222222222,145.36666666666667L31.890991111111113,145.36666666666667L32.02952,148.3938775510204L32.159213333333334,149.72941176470587L32.32519555555555,149.1238954429794L32.47145555555556,150.03693609022557L32.59168222222222,150.55671205457082L32.711908888888885,150.8591062947842L32.84160222222222,151.03725914715827L32.96624666666667,151.14299483154514L33.09594,151.2060255726L33.228631111111106,151.24369734681267L33.34885777777778,151.26624786062368L33.49085777777778,150.092161987127L33.620866666666664,150.57552446205403L33.775331111111115,149.67839492046193L33.90502444444444,150.32714676429242L34.05570222222222,149.52954038703967L34.17592888888889,150.23776738872596L34.308462222222225,149.47596591389998L34.42868888888889,150.2055955541894L34.58978,149.45668080850348L34.73209555555555,149.0073382698416L34.89097777777778,148.73773501775528L35.014202222222224,149.76264392449872L35.15667555555556,150.37758740368042" style="fill: none;" fill="none"></path></g></g></g></g><g opacity="0.2"><g><g><g><path stroke="rgb(204, 51, 17)" stroke-width="2px" d="M31.734002222222223,145.36666666666667L31.882786666666668,151.3L32.02131555555555,151.3L32.14154222222222,151.3L32.29458666666667,151.3L32.460568888888886,145.36666666666667L32.62102888888889,151.3L32.75072222222222,151.3L32.87094888888889,151.3L33.039455555555556,148.33333333333334L33.18808222222222,148.33333333333334L33.35485333333334,145.36666666666667L33.48928,151.3L33.647057777777775,151.3L33.81824666666667,151.3L33.95677555555555,151.3L34.09120222222222,151.3L34.23904,145.36666666666667L34.390033333333335,148.33333333333334L34.524460000000005,151.3L34.66677555555555,148.33333333333334L34.84459111111111,148.33333333333334L34.98659111111111,148.33333333333334L35.11123555555555,151.3L35.24092888888889,151.3L35.39002888888889,148.33333333333334L35.53313333333333,151.3L35.66282666666667,151.3L35.82328666666666,148.33333333333334L35.979171111111114,148.33333333333334L36.14546888888889,145.36666666666667L36.282893333333334,151.3L36.44903333333333,148.33333333333334L36.61359555555555,151.3L36.75843555555556,148.33333333333334L36.92599555555556,148.33333333333334L37.103968888888886,145.36666666666667L37.309553333333334,139.43333333333334L37.47979555555556,145.36666666666667L37.7081,139.43333333333334L37.94318888888888,139.43333333333334L38.12920888888889,145.36666666666667L38.35877555555555,139.43333333333334L38.54148222222222,148.33333333333334L38.771995555555556,142.4L38.95643777777777,145.36666666666667L39.141511111111114,142.4L39.45627777777778,133.5L39.66612222222223,145.36666666666667L39.89474222222223,142.4L40.15428666666667,145.36666666666667L40.36665555555555,142.4L40.612473333333334,145.36666666666667L40.84772,145.36666666666667L41.090382222222225,139.43333333333334L41.33336,136.46666666666667L41.54683333333333,142.4L41.897099999999995,127.56666666666666L42.15443555555556,139.43333333333334L42.392680000000006,142.4L42.67320888888889,139.43333333333334L42.987028888888894,136.46666666666667L43.32861777777778,130.53333333333333L43.601573333333334,136.46666666666667L43.8993,130.53333333333333L44.18866444444445,139.43333333333334L44.46524888888889,139.43333333333334L44.72889555555555,142.4L45.05912444444444,127.56666666666666L45.47139777777778,112.73333333333333L45.83192,127.56666666666666L46.339175555555556,103.83333333333333L46.81945111111111,94.93333333333334L47.30588,77.13333333333334L47.78647111111111,80.1L48.11559555555555,44.5L48.585615555555556,77.13333333333334L48.99426,62.3L49.33206222222222,53.400000000000006L49.706468888888885,50.43333333333334L50.02928222222222,115.7L50.41788888888889,62.3L50.69573555555556,35.599999999999994L50.989202222222225,38.56666666666666L51.309175555555555,44.5L51.606902222222224,35.599999999999994L51.88885111111111,29.666666666666657L52.21340000000001,38.56666666666666L52.4903,32.633333333333326L52.77808666666667,35.599999999999994L53.061928888888886,29.666666666666657L53.432233333333336,47.46666666666667L53.78975777777777,47.46666666666667L54.08006888888889,32.633333333333326L54.41929111111111,47.46666666666667L54.72821999999999,41.53333333333333L55.06523333333333,50.43333333333334L55.42370444444444,47.46666666666667L55.68656222222222,29.666666666666657L56.05986444444444,44.5L56.41928222222222,35.599999999999994L56.71416888888889,32.633333333333326L57.031933333333335,38.56666666666666L57.32398,29.666666666666657L57.741617777777776,62.3L58.10056222222222,47.46666666666667L58.41454,38.56666666666666L58.73814222222222,38.56666666666666L59.042337777777774,38.56666666666666L59.39008,38.56666666666666L59.67234444444444,29.666666666666657L59.93583333333333,29.666666666666657L60.19900666666667,29.666666666666657L60.52466,44.5L60.85362666666667,38.56666666666666L61.15056444444445,41.53333333333333L61.41137111111111,26.700000000000017L61.688586666666666,29.666666666666657L61.99341333333333,38.56666666666666L62.297135555555556,35.599999999999994L62.60148888888889,35.599999999999994L62.914835555555555,38.56666666666666L63.23859555555555,38.56666666666666L63.59738222222222,50.43333333333334L63.882802222222224,29.666666666666657L64.16412,32.633333333333326L64.44354444444444,29.666666666666657L64.79412666666667,44.5L65.08159777777777,32.633333333333326L65.39668,35.599999999999994L65.71128888888889,32.633333333333326L65.98866222222222,26.700000000000017L66.28007777777778,29.666666666666657L66.55918666666666,29.666666666666657L66.82236,29.666666666666657L67.14564666666666,53.400000000000006L67.51926444444445,47.46666666666667L67.80010888888889,29.666666666666657L68.16141999999999,44.5L68.45394,32.633333333333326L68.75561111111111,35.599999999999994L69.10966444444445,44.5L69.46829333333334,47.46666666666667L69.8449088888889,50.43333333333334L70.15857111111112,32.633333333333326L70.42206,29.666666666666657L70.7338288888889,35.599999999999994L70.99731777777778,29.666666666666657L71.3215511111111,29.666666666666657L71.60665555555556,29.666666666666657L71.97727555555555,38.56666666666666L72.25543777777777,32.633333333333326L72.56957333333334,32.633333333333326L72.85657111111112,38.56666666666666L73.15019555555554,32.633333333333326L73.56941111111111,53.400000000000006L73.85167555555556,29.666666666666657L74.17512,35.599999999999994L74.47063777777778,35.599999999999994L74.75779333333332,32.633333333333326L75.04463333333332,32.633333333333326L75.32768666666668,35.599999999999994L75.62778,35.599999999999994L75.92850444444444,35.599999999999994L76.2150288888889,32.633333333333326L76.53342444444445,32.633333333333326L76.86491555555556,53.400000000000006L77.19546,41.53333333333333L77.50486222222223,38.56666666666666L77.7876,29.666666666666657L78.07412444444444,32.633333333333326L78.38936444444444,35.599999999999994L78.70665555555556,38.56666666666666L79.03167777777777,38.56666666666666L79.29863777777778,29.666666666666657L79.66673333333334,38.56666666666666L79.94726222222222,32.633333333333326L80.21532666666667,29.666666666666657L80.52488666666667,32.633333333333326L80.80904444444445,32.633333333333326L81.20033333333333,59.33333333333334L81.50973555555557,35.599999999999994L81.77212,29.666666666666657L82.0725288888889,38.56666666666666L82.38319333333334,35.599999999999994L82.70237777777777,38.56666666666666L82.99631777777778,32.633333333333326L83.29278222222223,29.666666666666657L83.62916444444444,41.53333333333333L83.90843111111111,29.666666666666657L84.24907333333333,56.36666666666666L84.52660444444444,32.633333333333326L84.86929777777779,32.633333333333326L85.2036288888889,50.43333333333334L85.51145333333334,38.56666666666666L85.77904444444445,29.666666666666657L86.04710888888889,32.633333333333326L86.35556444444444,38.56666666666666L86.67427555555557,44.5L86.94155111111111,29.666666666666657L87.22760222222223,32.633333333333326L87.55609555555556,41.53333333333333L87.90210222222221,56.36666666666666L88.17789777777779,32.633333333333326L88.46820888888888,32.633333333333326L88.8068,50.43333333333334L89.17615777777777,62.3L89.45716,35.599999999999994L89.73453333333333,32.633333333333326L89.99739111111111,29.666666666666657L90.33629777777779,41.53333333333333L90.61682666666667,32.633333333333326L90.91991777777777,35.599999999999994L91.19524,32.633333333333326L91.52657333333333,44.5L91.79242888888889,29.666666666666657L92.05923111111112,29.666666666666657L92.33660444444445,32.633333333333326L92.65279111111111,41.53333333333333L92.9156488888889,29.666666666666657L93.17282666666667,26.700000000000017L93.47039555555556,32.633333333333326L93.8100911111111,41.53333333333333L94.14899777777777,41.53333333333333L94.42952666666667,35.599999999999994L94.7637,44.5L95.02924,29.666666666666657L95.32602,32.633333333333326L95.58319777777777,26.700000000000017L95.85994,29.666666666666657L96.16208444444445,35.599999999999994L96.48000666666667,44.5L96.86719333333333,59.33333333333334L97.19631777777778,47.46666666666667L97.48394666666667,35.599999999999994L97.82900666666666,35.599999999999994L98.08602666666665,26.700000000000017L98.43629333333334,62.3L98.73244222222223,32.633333333333326L98.9953,29.666666666666657L99.27914222222223,32.633333333333326L99.56124888888888,32.633333333333326L99.81842666666667,26.700000000000017L100.09974444444445,32.633333333333326L100.35692222222222,26.700000000000017L100.64044888888888,35.599999999999994L100.91845333333333,32.633333333333326L101.27234888888889,35.599999999999994L101.56897111111111,35.599999999999994L101.85644222222223,32.633333333333326L102.15842888888889,32.633333333333326L102.45536666666668,35.599999999999994L102.73984,32.633333333333326L103.06501999999999,44.5L103.35974888888889,38.56666666666666L103.64753555555555,32.633333333333326L103.95851555555555,41.53333333333333L104.28148666666667,38.56666666666666L104.58031777777778,38.56666666666666L104.90439333333333,41.53333333333333L105.18082,29.666666666666657L105.44667555555556,29.666666666666657L105.73178,35.599999999999994L106.06974000000001,44.5L106.32676000000001,26.700000000000017L106.59482444444446,32.633333333333326L106.8669911111111,29.666666666666657L107.16440222222222,44.5L107.43057333333333,29.666666666666657L107.68727777777778,26.700000000000017L107.95376444444445,26.700000000000017L108.23823777777778,29.666666666666657L108.52476222222222,32.633333333333326L108.79361555555556,29.666666666666657L109.0750911111111,29.666666666666657L109.38196888888888,38.56666666666666L109.66612666666666,32.633333333333326L109.96606222222223,38.56666666666666L110.23191777777778,29.666666666666657L110.48893777777778,26.700000000000017L110.76899333333333,29.666666666666657L111.04826,29.666666666666657L111.33936,32.633333333333326L111.59622222222222,26.700000000000017L111.85308444444445,26.700000000000017L112.10994666666667,26.700000000000017L112.42108444444443,32.633333333333326L112.67857777777778,26.700000000000017L112.98845333333334,38.56666666666666L113.31536888888888,38.56666666666666L113.61467333333334,35.599999999999994L113.87516444444444,26.700000000000017L114.16421333333334,35.599999999999994L114.47961111111111,38.56666666666666L114.79059111111111,38.56666666666666L115.0477688888889,26.700000000000017L115.32230222222222,29.666666666666657L115.59367999999999,29.666666666666657L115.85069999999999,26.700000000000017L116.13249111111111,32.633333333333326L116.38966888888888,26.700000000000017L116.67666666666666,32.633333333333326L116.94157555555556,29.666666666666657L117.21879111111112,35.599999999999994L117.48117555555555,29.666666666666657L117.74829333333334,29.666666666666657L118.0084688888889,26.700000000000017L118.28994444444444,29.666666666666657L118.62064666666666,41.53333333333333L118.89612666666667,32.633333333333326L119.15362,26.700000000000017L119.42089555555556,29.666666666666657L119.67807333333333,26.700000000000017L119.97296,32.633333333333326L120.23818444444444,29.666666666666657L120.51271777777778,29.666666666666657L120.79261555555556,35.599999999999994L121.09886222222221,44.5L121.39090888888889,32.633333333333326L121.70804222222222,38.56666666666666L121.97768444444444,29.666666666666657L122.26531333333334,38.56666666666666L122.59554222222224,47.46666666666667L122.85256222222223,26.700000000000017L123.11968,29.666666666666657L123.38253777777777,29.666666666666657L123.63955777777778,26.700000000000017L123.90588666666666,29.666666666666657L124.18026222222223,29.666666666666657L124.44517111111111,29.666666666666657L124.70234888888889,26.700000000000017L125.02153333333332,38.56666666666666L125.29622444444443,32.633333333333326L125.56902222222223,32.633333333333326L125.82651555555556,26.700000000000017L126.11966666666666,35.599999999999994L126.39483111111112,32.633333333333326L126.66194888888889,29.666666666666657L126.93411555555556,29.666666666666657L127.19113555555556,26.700000000000017L127.46961333333333,32.633333333333326L127.7551911111111,35.599999999999994L128.04329333333334,35.599999999999994L128.34985555555556,32.633333333333326L128.62123333333335,29.666666666666657L128.87841111111112,26.700000000000017L129.17929333333333,35.599999999999994L129.44562222222223,29.666666666666657L129.79904444444443,47.46666666666667L130.08667333333335,35.599999999999994L130.39323555555555,38.56666666666666L130.70737111111112,35.599999999999994L130.99042444444444,32.633333333333326L131.2476022222222,26.700000000000017L131.5437511111111,32.633333333333326L131.82096666666666,32.633333333333326L132.07798666666667,26.700000000000017L132.344,29.666666666666657L132.61853333333332,29.666666666666657L132.93913777777777,38.56666666666666L133.25500888888888,38.56666666666666L133.52922666666666,32.633333333333326L133.78956,26.700000000000017L134.04705333333334,26.700000000000017L134.35330000000002,38.56666666666666L134.6104777777778,26.700000000000017L134.86702444444444,26.700000000000017L135.1391911111111,32.633333333333326L135.40709777777778,29.666666666666657L135.71066222222223,35.599999999999994L135.98062,29.666666666666657L136.24694888888888,26.700000000000017L136.51848444444445,29.666666666666657L136.81416,29.666666666666657L137.10888888888888,38.56666666666666L137.39651777777777,35.599999999999994L137.65306444444442,26.700000000000017L137.96704222222223,38.56666666666666L138.2433111111111,32.633333333333326L138.5090088888889,29.666666666666657L138.79963555555557,32.633333333333326L139.05665555555555,26.700000000000017L139.32188,29.666666666666657L139.5889977777778,32.633333333333326L139.84633333333335,26.700000000000017L140.15952222222222,32.633333333333326L140.47570888888887,44.5L140.73241333333334,26.700000000000017L141.08488888888888,53.400000000000006L141.37614666666667,32.633333333333326L141.64768222222222,29.666666666666657L141.9192177777778,29.666666666666657L142.17623777777777,26.700000000000017L142.50694000000001,44.5L142.77279555555555,29.666666666666657L143.06642,38.56666666666666L143.34237333333334,29.666666666666657L143.60160222222223,26.700000000000017L143.93072666666666,44.5L144.19295333333332,29.666666666666657L144.45376,26.700000000000017L144.7412311111111,29.666666666666657L145.07209111111112,47.46666666666667L145.34173333333334,29.666666666666657L145.65271333333334,38.56666666666666L145.9584866666667,38.56666666666666L146.23002222222223,29.666666666666657L146.51623111111113,29.666666666666657L146.78397999999999,29.666666666666657L147.05046666666667,29.666666666666657L147.30796,26.700000000000017L147.56529555555556,26.700000000000017L147.85513333333333,32.633333333333326L148.11183777777777,26.700000000000017L148.40404222222222,38.56666666666666L148.66122000000001,26.700000000000017L148.95752666666667,38.56666666666666L149.23931777777779,35.599999999999994L149.50422666666668,29.666666666666657L149.78522888888887,32.633333333333326L150.04288,26.700000000000017L150.38052444444446,44.5L150.65647777777775,32.633333333333326L150.97771333333336,41.53333333333333L151.23536444444443,26.700000000000017L151.5247288888889,38.56666666666666L151.80967555555557,32.633333333333326L152.08073777777776,29.666666666666657L152.37625555555556,38.56666666666666L152.6492111111111,32.633333333333326L152.94251999999997,38.56666666666666L153.21216222222222,29.666666666666657L153.4777022222222,29.666666666666657L153.7598088888889,32.633333333333326L154.03481555555555,29.666666666666657L154.3390111111111,44.5L154.60581333333334,29.666666666666657L154.8773488888889,29.666666666666657L155.15235555555554,32.633333333333326L155.42389111111112,29.666666666666657L155.69700444444445,29.666666666666657L155.99962222222223,41.53333333333333L156.29403555555555,35.599999999999994L156.57488,32.633333333333326L156.83237333333332,26.700000000000017L157.09191777777778,26.700000000000017L157.35162,26.700000000000017L157.60895555555555,26.700000000000017L157.8662911111111,26.700000000000017L158.14934444444447,32.633333333333326L158.40668,26.700000000000017L158.6638577777778,26.700000000000017L158.9639511111111,38.56666666666666L159.24731999999997,32.633333333333326L159.51964444444445,29.666666666666657L159.8208422222222,41.53333333333333L160.13182222222224,35.599999999999994L160.39909777777777,29.666666666666657L160.69335333333333,35.599999999999994L160.9500577777778,26.700000000000017L161.20739333333333,26.700000000000017L161.48950000000002,32.633333333333326L161.75503999999998,29.666666666666657L162.02515555555556,29.666666666666657L162.28217555555557,26.700000000000017L162.53919555555555,26.700000000000017L162.80189555555555,29.666666666666657L163.11303333333333,38.56666666666666L163.39009111111113,29.666666666666657L163.66320444444446,29.666666666666657L163.95651333333333,38.56666666666666L164.2450888888889,35.599999999999994L164.51268,29.666666666666657L164.7973111111111,32.633333333333326L165.07768222222222,32.633333333333326L165.36499555555554,29.666666666666657L165.64836444444444,35.599999999999994L165.9304711111111,32.633333333333326L166.20216444444443,29.666666666666657L166.50446666666667,38.56666666666666L166.76937555555557,29.666666666666657L167.04485555555556,29.666666666666657L167.32475333333332,32.633333333333326L167.58761111111113,29.666666666666657L167.86403777777778,29.666666666666657L168.14456666666666,35.599999999999994L168.42478,32.633333333333326L168.70152222222222,32.633333333333326L169.00035333333332,35.599999999999994L169.28214444444444,35.599999999999994L169.54484444444444,29.666666666666657L169.8168533333333,29.666666666666657L170.09138666666666,32.633333333333326L170.34856444444443,26.700000000000017L170.63351111111112,38.56666666666666L170.8906888888889,26.700000000000017L171.17074444444444,32.633333333333326L171.46405333333334,35.599999999999994L171.7516822222222,32.633333333333326L172.0087022222222,26.700000000000017L172.30327333333335,32.633333333333326L172.56029333333333,26.700000000000017L172.8433466666667,35.599999999999994L173.11819555555553,29.666666666666657L173.37553111111112,26.700000000000017L173.6445422222222,29.666666666666657L173.9392711111111,32.633333333333326L174.24315111111113,35.599999999999994L174.54214000000002,35.599999999999994L174.83765777777776,32.633333333333326L175.09452000000002,26.700000000000017L175.37757333333334,32.633333333333326L175.66409777777776,32.633333333333326L175.96308666666667,35.599999999999994L176.22010666666668,26.700000000000017L176.4854888888889,29.666666666666657L176.7522911111111,29.666666666666657L177.02556222222225,32.633333333333326L177.30703777777777,35.599999999999994L177.57352444444444,29.666666666666657L177.8299133333333,26.700000000000017L178.08677555555556,26.700000000000017L178.34332222222224,26.700000000000017L178.6153311111111,29.666666666666657L178.88071333333332,29.666666666666657L179.1380488888889,26.700000000000017L179.4233111111111,32.633333333333326L179.6954777777778,29.666666666666657L179.95281333333332,26.700000000000017L180.22387555555557,32.633333333333326L180.4807377777778,26.700000000000017L180.76000444444446,35.599999999999994L181.02286222222222,29.666666666666657L181.2901377777778,26.700000000000017L181.57019333333332,32.633333333333326L181.8458311111111,29.666666666666657L182.11357999999998,29.666666666666657L182.39805333333334,32.633333333333326L182.69735777777777,38.56666666666666L183.01938222222222,44.5L183.27608666666666,26.700000000000017L183.5476222222222,29.666666666666657L183.81600222222224,29.666666666666657L184.09116666666668,32.633333333333326L184.34834444444445,26.700000000000017L184.64118,35.599999999999994L184.93038666666666,35.599999999999994L185.20192222222224,32.633333333333326L185.45862666666665,26.700000000000017L185.72842666666665,29.666666666666657L186.00564222222224,32.633333333333326L186.26518666666666,26.700000000000017L186.52204888888886,26.700000000000017L186.78727333333333,29.666666666666657L187.09068,35.599999999999994L187.43037555555557,47.46666666666667L187.72273777777778,32.633333333333326L187.9901711111111,29.666666666666657L188.25839333333334,29.666666666666657L188.5236177777778,29.666666666666657L188.78016444444444,26.700000000000017L189.03671111111112,26.700000000000017L189.30130444444444,29.666666666666657L189.57741555555558,29.666666666666657L189.83696,26.700000000000017L190.12979555555557,35.599999999999994L190.42136888888888,35.599999999999994L190.6782311111111,26.700000000000017L190.9429822222222,29.666666666666657L191.24039333333334,35.599999999999994L191.52155333333334,32.633333333333326L191.79687555555554,29.666666666666657L192.09223555555556,35.599999999999994L192.38554444444443,32.633333333333326L192.7055177777778,41.53333333333333L192.9929888888889,32.633333333333326L193.25016666666667,26.700000000000017L193.5183888888889,29.666666666666657L193.78613777777778,29.666666666666657L194.12914666666666,50.43333333333334L194.3978422222222,29.666666666666657L194.65454666666668,26.700000000000017L194.93996666666666,32.633333333333326L195.20045777777776,26.700000000000017L195.47593777777777,32.633333333333326L195.7825,38.56666666666666L196.0734422222222,38.56666666666666L196.35980888888886,35.599999999999994L196.62929333333332,29.666666666666657L196.9191311111111,35.599999999999994L197.19839777777779,32.633333333333326L197.47135333333333,32.633333333333326L197.74225777777778,32.633333333333326L198.00464222222223,29.666666666666657L198.2697088888889,29.666666666666657L198.54550444444445,29.666666666666657L198.8105711111111,29.666666666666657L199.09062666666668,32.633333333333326L199.37557333333334,32.633333333333326L199.65310444444444,29.666666666666657L199.98191333333335,38.56666666666666L200.2390911111111,26.700000000000017L200.54028888888888,38.56666666666666L200.85868444444446,35.599999999999994L201.11570444444445,26.700000000000017L201.38045555555556,29.666666666666657L201.63684444444445,26.700000000000017L201.93788444444442,38.56666666666666L202.19427333333334,26.700000000000017L202.47716888888888,38.56666666666666L202.7341888888889,26.700000000000017L202.99957111111112,29.666666666666657L203.2561177777778,26.700000000000017L203.51313777777779,26.700000000000017L203.80975999999998,38.56666666666666L204.14330222222222,41.53333333333333L204.49278,50.43333333333334L204.76352666666665,29.666666666666657L205.08665555555555,41.53333333333333L205.38769555555558,38.56666666666666L205.70640666666665,38.56666666666666L205.98409555555557,32.633333333333326L206.2543688888889,32.633333333333326L206.52085555555556,29.666666666666657L206.77992666666665,26.700000000000017L207.0599822222222,32.633333333333326L207.3349888888889,32.633333333333326L207.61488666666668,32.633333333333326L207.87253777777778,26.700000000000017L208.1494377777778,29.666666666666657L208.40598444444447,26.700000000000017L208.68477777777778,35.599999999999994L208.97351111111112,32.633333333333326L209.23005777777777,26.700000000000017L209.49480888888888,29.666666666666657L209.76413555555555,29.666666666666657L210.02068222222223,26.700000000000017L210.29695111111113,29.666666666666657L210.57416666666666,32.633333333333326L210.83071333333334,26.700000000000017L211.1049311111111,29.666666666666657L211.4017111111111,35.599999999999994L211.67656,29.666666666666657L211.94588666666667,29.666666666666657L212.20259111111113,26.700000000000017L212.48059555555557,32.633333333333326L212.76743555555555,32.633333333333326L213.04528222222223,32.633333333333326L213.3299133333333,29.666666666666657L213.62101333333334,35.599999999999994L213.9037511111111,32.633333333333326L214.1609288888889,26.700000000000017L214.47443333333334,41.53333333333333L214.75133333333332,35.599999999999994L215.04259111111114,35.599999999999994L215.31570444444444,32.633333333333326L215.58045555555557,29.666666666666657L215.84536444444444,29.666666666666657L216.10175333333333,26.700000000000017L216.35814222222223,26.700000000000017L216.61500444444445,26.700000000000017L216.8908,26.700000000000017L217.14734666666666,26.700000000000017L217.43955111111111,32.633333333333326L217.71960666666666,32.633333333333326L218.02648444444446,41.53333333333333L218.29565333333335,29.666666666666657L218.56781999999998,32.633333333333326L218.84361555555557,26.700000000000017L219.12398666666667,32.633333333333326L219.42770888888887,44.5L219.68441333333334,26.700000000000017L219.98955555555557,41.53333333333333L220.2648777777778,29.666666666666657L220.61309333333332,68.23333333333333L220.88873111111113,26.700000000000017L221.19024444444443,32.633333333333326L221.4467911111111,26.700000000000017L221.7118577777778,29.666666666666657L221.96840444444445,26.700000000000017L222.2391511111111,32.633333333333326L222.54760666666667,47.46666666666667L222.9358977777778,65.26666666666667L223.23993555555555,35.599999999999994L223.52362,29.666666666666657L223.8169288888889,38.56666666666666L224.10424222222224,35.599999999999994L224.40654444444445,32.633333333333326L224.66293333333334,26.700000000000017L224.99063777777778,41.53333333333333L225.27937111111112,32.633333333333326L225.63326666666666,44.5L225.91742444444444,32.633333333333326L226.20316,29.666666666666657L226.45954888888886,26.700000000000017L226.71862000000002,26.700000000000017L227.0251822222222,44.5L227.31438888888889,32.633333333333326L227.6308911111111,38.56666666666666L227.9226222222222,32.633333333333326L228.19668222222225,29.666666666666657L228.4587511111111,29.666666666666657L228.72334444444445,29.666666666666657L229.0220177777778,32.633333333333326L229.29607777777778,32.633333333333326L229.55246666666667,26.700000000000017L229.82431777777776,29.666666666666657L230.08086444444444,26.700000000000017L230.36549555555555,32.633333333333326L230.62756444444443,29.666666666666657L230.93775555555555,38.56666666666666L231.23090666666667,35.599999999999994L231.50686000000002,32.633333333333326L231.79685555555554,32.633333333333326L232.10326,41.53333333333333L232.3624888888889,26.700000000000017L232.63954666666666,35.599999999999994L232.94421555555556,41.53333333333333L233.20344444444444,26.700000000000017L233.46993111111112,29.666666666666657L233.7469888888889,29.666666666666657L233.90492444444442,145.36666666666667L234.23610000000002,59.33333333333334L234.53098666666665,35.599999999999994L234.80331111111113,29.666666666666657L235.09472666666665,32.633333333333326L235.35932,29.666666666666657L235.63054,115.7L235.90712444444443,29.666666666666657L236.18434,32.633333333333326L236.45808444444444,29.666666666666657L236.71447333333333,26.700000000000017L236.99042666666665,29.666666666666657L237.24681555555554,26.700000000000017L237.5241888888889,29.666666666666657L237.79556666666667,29.666666666666657L238.07294,26.700000000000017L238.35315333333332,32.633333333333326L238.6245311111111,29.666666666666657L239.04595555555554,62.3L239.33784444444444,35.599999999999994L239.64914,44.5L239.9232,29.666666666666657L240.2106711111111,32.633333333333326L240.46642888888888,26.700000000000017L240.7966577777778,44.5L241.05304666666666,26.700000000000017L241.32205777777776,29.666666666666657L241.6095288888889,35.599999999999994L241.92555777777778,38.56666666666666L242.21239777777777,35.599999999999994L242.49166444444444,32.633333333333326L242.7474222222222,26.700000000000017L243.0038111111111,26.700000000000017L243.26288222222223,26.700000000000017L243.51927111111112,26.700000000000017L243.78402222222223,29.666666666666657L244.08632444444444,41.53333333333333L244.3769511111111,35.599999999999994L244.65858444444444,32.633333333333326L244.94400444444446,35.599999999999994L245.25309111111113,35.599999999999994L245.5131088888889,26.700000000000017L245.76949777777776,26.700000000000017L246.02588666666668,26.700000000000017L246.31351555555554,32.633333333333326L246.58268444444442,29.666666666666657L246.8562711111111,29.666666666666657L247.12212666666665,29.666666666666657L247.39382,29.666666666666657L247.65604666666667,29.666666666666657L247.93910000000002,35.599999999999994L248.25560222222222,41.53333333333333L248.52208888888887,29.666666666666657L248.7813177777778,26.700000000000017L249.06074222222222,32.633333333333326L249.32659777777778,29.666666666666657L249.58298666666667,26.700000000000017L249.8633577777778,35.599999999999994L250.13741777777778,29.666666666666657L250.4091111111111,29.666666666666657L250.67985777777778,29.666666666666657L250.96796,35.599999999999994L251.2243488888889,26.700000000000017L251.48342,26.700000000000017L251.7398088888889,26.700000000000017L252.00282444444443,26.700000000000017L252.26757555555554,29.666666666666657L252.53327333333334,29.666666666666657L252.81758888888888,35.599999999999994L253.08344444444447,29.666666666666657L253.3537177777778,32.633333333333326L253.61010666666667,26.700000000000017L253.87580444444444,29.666666666666657L254.16532666666666,35.599999999999994L254.43118222222222,29.666666666666657L254.71770666666666,35.599999999999994L254.97409555555555,26.700000000000017L255.2363222222222,29.666666666666657L255.53215555555556,35.599999999999994L255.78933333333333,26.700000000000017L256.0550311111111,29.666666666666657L256.3257777777778,32.633333333333326L256.5821666666667,26.700000000000017L256.86238000000003,32.633333333333326L257.1549,32.633333333333326L257.41128888888886,26.700000000000017L257.70538666666664,41.53333333333333L257.99412,38.56666666666666L258.2498777777778,26.700000000000017L258.5608577777778,41.53333333333333L258.8172466666667,26.700000000000017L259.1122911111111,38.56666666666666L259.44425555555557,41.53333333333333L259.7145288888889,32.633333333333326L259.9756511111111,26.700000000000017L260.2563377777778,32.633333333333326L260.51272666666665,26.700000000000017L260.77274444444447,26.700000000000017" style="fill: none;" fill="none"></path></g><g><path stroke="rgb(255, 112, 67)" stroke-width="2px" d="M31.72974222222222,145.36666666666667L31.890991111111113,145.36666666666667L32.02952,151.3L32.159213333333334,151.3L32.32519555555555,148.33333333333334L32.47145555555556,151.3L32.59168222222222,151.3L32.711908888888885,151.3L32.84160222222222,151.3L32.96624666666667,151.3L33.09594,151.3L33.228631111111106,151.3L33.34885777777778,151.3L33.49085777777778,148.33333333333334L33.620866666666664,151.3L33.775331111111115,148.33333333333334L33.90502444444444,151.3L34.05570222222222,148.33333333333334L34.17592888888889,151.3L34.308462222222225,148.33333333333334L34.42868888888889,151.3L34.58978,148.33333333333334L34.73209555555555,148.33333333333334L34.89097777777778,148.33333333333334L35.014202222222224,151.3L35.15667555555556,151.3" style="fill: none;" fill="none"></path></g></g></g></g></g></g><g transform="translate(46, 178)" clip-path="url(#clip_1)"><clipPath id="clip_1"><rect width="283" height="21"></rect></clipPath><g><g><line x1="0" y1="0" x2="0" y2="5" style="visibility: inherit;" fill="rgb(0, 0, 0)" stroke="rgb(204, 204, 204)" stroke-width="1px"></line><line x1="31.555555555555554" y1="0" x2="31.555555555555554" y2="5" style="visibility: inherit;" fill="rgb(0, 0, 0)" stroke="rgb(204, 204, 204)" stroke-width="1px"></line><line x1="63.11111111111111" y1="0" x2="63.11111111111111" y2="5" style="visibility: inherit;" fill="rgb(0, 0, 0)" stroke="rgb(204, 204, 204)" stroke-width="1px"></line><line x1="94.66666666666666" y1="0" x2="94.66666666666666" y2="5" style="visibility: inherit;" fill="rgb(0, 0, 0)" stroke="rgb(204, 204, 204)" stroke-width="1px"></line><line x1="126.22222222222221" y1="0" x2="126.22222222222221" y2="5" style="visibility: inherit;" fill="rgb(0, 0, 0)" stroke="rgb(204, 204, 204)" stroke-width="1px"></line><line x1="157.77777777777777" y1="0" x2="157.77777777777777" y2="5" style="visibility: inherit;" fill="rgb(0, 0, 0)" stroke="rgb(204, 204, 204)" stroke-width="1px"></line><line x1="189.33333333333331" y1="0" x2="189.33333333333331" y2="5" style="visibility: inherit;" fill="rgb(0, 0, 0)" stroke="rgb(204, 204, 204)" stroke-width="1px"></line><line x1="220.88888888888889" y1="0" x2="220.88888888888889" y2="5" style="visibility: inherit;" fill="rgb(0, 0, 0)" stroke="rgb(204, 204, 204)" stroke-width="1px"></line><line x1="252.44444444444443" y1="0" x2="252.44444444444443" y2="5" style="visibility: inherit;" fill="rgb(0, 0, 0)" stroke="rgb(204, 204, 204)" stroke-width="1px"></line><line x1="284" y1="0" x2="284" y2="5" style="visibility: inherit;" fill="rgb(0, 0, 0)" stroke="rgb(204, 204, 204)" stroke-width="1px"></line></g><g transform="translate(0, 8)"><text x="0" y="0" dx="0em" dy="0.95em" style="text-anchor: middle; visibility: hidden; font-family: &quot;Helvetica Neue&quot;, sans-serif; font-size: 12px; font-weight: 200;" fill="rgb(50, 49, 63)" stroke="none" stroke-width="1px">-200k</text><text x="31.555555555555554" y="0" dx="0em" dy="0.95em" style="text-anchor: middle; visibility: inherit; font-family: &quot;Helvetica Neue&quot;, sans-serif; font-size: 12px; font-weight: 200;" fill="rgb(50, 49, 63)" stroke="none" stroke-width="1px">0</text><text x="63.11111111111111" y="0" dx="0em" dy="0.95em" style="text-anchor: middle; visibility: hidden; font-family: &quot;Helvetica Neue&quot;, sans-serif; font-size: 12px; font-weight: 200;" fill="rgb(50, 49, 63)" stroke="none" stroke-width="1px">200k</text><text x="94.66666666666666" y="0" dx="0em" dy="0.95em" style="text-anchor: middle; visibility: inherit; font-family: &quot;Helvetica Neue&quot;, sans-serif; font-size: 12px; font-weight: 200;" fill="rgb(50, 49, 63)" stroke="none" stroke-width="1px">400k</text><text x="126.22222222222221" y="0" dx="0em" dy="0.95em" style="text-anchor: middle; visibility: hidden; font-family: &quot;Helvetica Neue&quot;, sans-serif; font-size: 12px; font-weight: 200;" fill="rgb(50, 49, 63)" stroke="none" stroke-width="1px">600k</text><text x="157.77777777777777" y="0" dx="0em" dy="0.95em" style="text-anchor: middle; visibility: inherit; font-family: &quot;Helvetica Neue&quot;, sans-serif; font-size: 12px; font-weight: 200;" fill="rgb(50, 49, 63)" stroke="none" stroke-width="1px">800k</text><text x="189.33333333333331" y="0" dx="0em" dy="0.95em" style="text-anchor: middle; visibility: hidden; font-family: &quot;Helvetica Neue&quot;, sans-serif; font-size: 12px; font-weight: 200;" fill="rgb(50, 49, 63)" stroke="none" stroke-width="1px">1M</text><text x="220.88888888888889" y="0" dx="0em" dy="0.95em" style="text-anchor: middle; visibility: inherit; font-family: &quot;Helvetica Neue&quot;, sans-serif; font-size: 12px; font-weight: 200;" fill="rgb(50, 49, 63)" stroke="none" stroke-width="1px">1.2M</text><text x="252.44444444444443" y="0" dx="0em" dy="0.95em" style="text-anchor: middle; visibility: hidden; font-family: &quot;Helvetica Neue&quot;, sans-serif; font-size: 12px; font-weight: 200;" fill="rgb(50, 49, 63)" stroke="none" stroke-width="1px">1.4M</text><text x="284" y="0" dx="0em" dy="0.95em" style="text-anchor: middle; visibility: hidden; font-family: &quot;Helvetica Neue&quot;, sans-serif; font-size: 12px; font-weight: 200;" fill="rgb(50, 49, 63)" stroke="none" stroke-width="1px">1.6M</text></g><line x1="0" y1="0" x2="284" y2="0" fill="rgb(0, 0, 0)" stroke="rgb(204, 204, 204)" stroke-width="1px"></line></g></g></g></g></svg>