<svg viewBox="0 0 330 200" xmlns="http://www.w3.org/2000/svg"><g><g><g><g><g><line x1="34" y1="178" x2="29" y2="178" style="visibility: inherit;" fill="rgb(0, 0, 0)" stroke="rgb(204, 204, 204)" stroke-width="1px"></line><line x1="34" y1="155.75" x2="29" y2="155.75" style="visibility: inherit;" fill="rgb(0, 0, 0)" stroke="rgb(204, 204, 204)" stroke-width="1px"></line><line x1="34" y1="133.5" x2="29" y2="133.5" style="visibility: inherit;" fill="rgb(0, 0, 0)" stroke="rgb(204, 204, 204)" stroke-width="1px"></line><line x1="34" y1="111.25" x2="29" y2="111.25" style="visibility: inherit;" fill="rgb(0, 0, 0)" stroke="rgb(204, 204, 204)" stroke-width="1px"></line><line x1="34" y1="89" x2="29" y2="89" style="visibility: inherit;" fill="rgb(0, 0, 0)" stroke="rgb(204, 204, 204)" stroke-width="1px"></line><line x1="34" y1="66.75" x2="29" y2="66.75" style="visibility: inherit;" fill="rgb(0, 0, 0)" stroke="rgb(204, 204, 204)" stroke-width="1px"></line><line x1="34" y1="44.5" x2="29" y2="44.5" style="visibility: inherit;" fill="rgb(0, 0, 0)" stroke="rgb(204, 204, 204)" stroke-width="1px"></line><line x1="34" y1="22.25" x2="29" y2="22.25" style="visibility: inherit;" fill="rgb(0, 0, 0)" stroke="rgb(204, 204, 204)" stroke-width="1px"></line><line x1="34" y1="0" x2="29" y2="0" style="visibility: inherit;" fill="rgb(0, 0, 0)" stroke="rgb(204, 204, 204)" stroke-width="1px"></line></g><g transform="translate(24, 0)"><text x="0" y="178" dx="0em" dy="0.3em" style="text-anchor: end; visibility: hidden; font-family: &quot;Helvetica Neue&quot;, sans-serif; font-size: 12px; font-weight: 200;" fill="rgb(50, 49, 63)" stroke="none" stroke-width="1px">-5</text><text x="0" y="155.75" dx="0em" dy="0.3em" style="text-anchor: end; visibility: inherit; font-family: &quot;Helvetica Neue&quot;, sans-serif; font-size: 12px; font-weight: 200;" fill="rgb(50, 49, 63)" stroke="none" stroke-width="1px">0</text><text x="0" y="133.5" dx="0em" dy="0.3em" style="text-anchor: end; visibility: hidden; font-family: &quot;Helvetica Neue&quot;, sans-serif; font-size: 12px; font-weight: 200;" fill="rgb(50, 49, 63)" stroke="none" stroke-width="1px">5</text><text x="0" y="111.25" dx="0em" dy="0.3em" style="text-anchor: end; visibility: inherit; font-family: &quot;Helvetica Neue&quot;, sans-serif; font-size: 12px; font-weight: 200;" fill="rgb(50, 49, 63)" stroke="none" stroke-width="1px">10</text><text x="0" y="89" dx="0em" dy="0.3em" style="text-anchor: end; visibility: hidden; font-family: &quot;Helvetica Neue&quot;, sans-serif; font-size: 12px; font-weight: 200;" fill="rgb(50, 49, 63)" stroke="none" stroke-width="1px">15</text><text x="0" y="66.75" dx="0em" dy="0.3em" style="text-anchor: end; visibility: inherit; font-family: &quot;Helvetica Neue&quot;, sans-serif; font-size: 12px; font-weight: 200;" fill="rgb(50, 49, 63)" stroke="none" stroke-width="1px">20</text><text x="0" y="44.5" dx="0em" dy="0.3em" style="text-anchor: end; visibility: hidden; font-family: &quot;Helvetica Neue&quot;, sans-serif; font-size: 12px; font-weight: 200;" fill="rgb(50, 49, 63)" stroke="none" stroke-width="1px">25</text><text x="0" y="22.25" dx="0em" dy="0.3em" style="text-anchor: end; visibility: inherit; font-family: &quot;Helvetica Neue&quot;, sans-serif; font-size: 12px; font-weight: 200;" fill="rgb(50, 49, 63)" stroke="none" stroke-width="1px">30</text><text x="0" y="0" dx="0em" dy="0.3em" style="text-anchor: end; visibility: hidden; font-family: &quot;Helvetica Neue&quot;, sans-serif; font-size: 12px; font-weight: 200;" fill="rgb(50, 49, 63)" stroke="none" stroke-width="1px">35</text></g><line x1="34" y1="0" x2="34" y2="178" fill="rgb(0, 0, 0)" stroke="rgb(204, 204, 204)" stroke-width="1px"></line></g></g><g transform="translate(34, 0)" clip-path="url(#clip_0)"><clipPath id="clip_0"><rect width="295" height="177"></rect></clipPath><g><g><g><line x1="0" y1="0" x2="0" y2="178" fill="rgb(0, 0, 0)" stroke="rgb(60, 60, 60)" stroke-width="1px" opacity="0.25"></line><line x1="32.888888888888886" y1="0" x2="32.888888888888886" y2="178" fill="rgb(0, 0, 0)" stroke="rgb(60, 60, 60)" stroke-width="1px" opacity="0.25"></line><line x1="65.77777777777777" y1="0" x2="65.77777777777777" y2="178" fill="rgb(0, 0, 0)" stroke="rgb(60, 60, 60)" stroke-width="1px" opacity="0.25"></line><line x1="98.66666666666666" y1="0" x2="98.66666666666666" y2="178" fill="rgb(0, 0, 0)" stroke="rgb(60, 60, 60)" stroke-width="1px" opacity="0.25"></line><line x1="131.55555555555554" y1="0" x2="131.55555555555554" y2="178" fill="rgb(0, 0, 0)" stroke="rgb(60, 60, 60)" stroke-width="1px" opacity="0.25"></line><line x1="164.44444444444446" y1="0" x2="164.44444444444446" y2="178" fill="rgb(0, 0, 0)" stroke="rgb(60, 60, 60)" stroke-width="1px" opacity="0.25"></line><line x1="197.33333333333331" y1="0" x2="197.33333333333331" y2="178" fill="rgb(0, 0, 0)" stroke="rgb(60, 60, 60)" stroke-width="1px" opacity="0.25"></line><line x1="230.22222222222223" y1="0" x2="230.22222222222223" y2="178" fill="rgb(0, 0, 0)" stroke="rgb(60, 60, 60)" stroke-width="1px" opacity="0.25"></line><line x1="263.1111111111111" y1="0" x2="263.1111111111111" y2="178" fill="rgb(0, 0, 0)" stroke="rgb(60, 60, 60)" stroke-width="1px" opacity="0.25"></line><line x1="296" y1="0" x2="296" y2="178" fill="rgb(0, 0, 0)" stroke="rgb(60, 60, 60)" stroke-width="1px" opacity="0.25"></line></g><g><line x1="0" y1="178" x2="296" y2="178" fill="rgb(0, 0, 0)" stroke="rgb(60, 60, 60)" stroke-width="1px" opacity="0.25"></line><line x1="0" y1="155.75" x2="296" y2="155.75" fill="rgb(0, 0, 0)" stroke="rgb(60, 60, 60)" stroke-width="1px" opacity="0.25"></line><line x1="0" y1="133.5" x2="296" y2="133.5" fill="rgb(0, 0, 0)" stroke="rgb(60, 60, 60)" stroke-width="1px" opacity="0.25"></line><line x1="0" y1="111.25" x2="296" y2="111.25" fill="rgb(0, 0, 0)" stroke="rgb(60, 60, 60)" stroke-width="1px" opacity="0.25"></line><line x1="0" y1="89" x2="296" y2="89" fill="rgb(0, 0, 0)" stroke="rgb(60, 60, 60)" stroke-width="1px" opacity="0.25"></line><line x1="0" y1="66.75" x2="296" y2="66.75" fill="rgb(0, 0, 0)" stroke="rgb(60, 60, 60)" stroke-width="1px" opacity="0.25"></line><line x1="0" y1="44.5" x2="296" y2="44.5" fill="rgb(0, 0, 0)" stroke="rgb(60, 60, 60)" stroke-width="1px" opacity="0.25"></line><line x1="0" y1="22.25" x2="296" y2="22.25" fill="rgb(0, 0, 0)" stroke="rgb(60, 60, 60)" stroke-width="1px" opacity="0.25"></line><line x1="0" y1="0" x2="296" y2="0" fill="rgb(0, 0, 0)" stroke="rgb(60, 60, 60)" stroke-width="1px" opacity="0.25"></line></g></g></g><g><g><line x1="0" y1="155.75" x2="296" y2="155.75" fill="rgb(0, 0, 0)" stroke="rgb(153, 153, 153)" stroke-width="1.5px"></line></g></g><g><g><line x1="32.888888888888886" y1="0" x2="32.888888888888886" y2="178" fill="rgb(0, 0, 0)" stroke="rgb(153, 153, 153)" stroke-width="1.5px"></line></g></g><g><g><g><g><g><path stroke="rgb(204, 51, 17)" stroke-width="2px" d="M35.247186666666664,-54.94830832410847L35.39156888888889,3.924904021088537L35.53167555555556,40.08179285173583L35.68576,61.64143437468316L35.843133333333334,76.38802538175374L35.98324,82.63911219910065L36.131568888888886,86.47829946432662L36.316897777777776,88.82463156361611L36.46489777777778,90.7937292535913L36.594808888888885,91.26609839866579L36.729982222222226,92.45389240041547L36.885382222222226,93.88719239264348L37.03453333333333,93.32902215113893L37.16970666666667,93.57644494820899L37.33694666666666,92.88746764814216L37.49941777777778,92.90007077111486L37.672742222222226,93.0842311772823L37.81597333333333,93.52197585210887L37.98913333333333,93.53005438906199L38.160648888888886,93.05576565970422L38.31160888888889,93.29983873732913L38.48624888888889,93.2862469693691L38.67174222222222,92.77402259632868L38.88601333333333,91.74900698355654L39.06344888888889,90.97818718554795L39.3014,91.70151377179884L39.54642222222222,91.35022249467012L39.740302222222226,90.43965372188877L39.97956888888889,88.42637792972604L40.16999555555555,87.31615173170334L40.410248888888894,88.58399649722264L40.60248444444444,95.28491965015532L40.79537777777778,96.15285944393426L41.123444444444445,97.35616522464564L41.34215555555556,97.9378826369925L41.58043555555556,98.91942847670416L41.850946666666665,97.78726232588517L42.072288888888885,96.37233355366908L42.328493333333334,95.48682315542379L42.57368,95.20528790112752L42.826595555555556,95.01308498356579L43.079840000000004,94.89335641845364L43.30233333333333,94.83959129324137L43.667399999999994,94.8265042380725L43.93560888888889,94.84717577434985L44.18392,94.95018490873223L44.476302222222216,94.90610801173712L44.803382222222226,95.28713944312017L45.15940444444445,95.37946788523244L45.443893333333335,95.3429397490838L45.7542,95.49692029399985L46.05579111111111,95.50640245105811L46.34406222222222,95.33504168883555L46.61884888888889,95.36667381701227L46.96303111111111,95.31935565815782L47.39272444444445,95.60720802990446L47.76848,94.48974639921099L48.29716888888889,94.31450642793602L48.797737777777776,94.83798877268569L49.304719999999996,95.24002264898739L49.80561777777778,95.50804204321933L50.148648888888886,95.87459725962302L50.63852888888889,95.83915242926012L51.06444,95.18303771838983L51.416515555555556,93.32461230770016L51.80674222222222,91.0830846072153L52.14319555555556,89.57158156877254L52.54822222222222,88.37310343650277L52.83780888888889,88.16426661054668L53.143675555555554,87.67835093999133L53.47716888888889,86.65343697466987L53.78747555555556,86.06153609990203L54.081337777777776,85.50813475274515L54.4196,85.3281799735038L54.7082,85.79160595544627L55.00814666666666,85.56388620739251L55.30398222222222,85.94345598819895L55.689933333333336,85.75625790001776L56.06256444444444,86.19893626238004L56.36514222222222,86.2199124471253L56.71869777777778,85.75930201386844L57.040679999999995,85.4728812228169L57.39193333333333,85.60049013200556L57.76555111111111,86.24619659842942L58.03951555555555,85.77390289939578L58.42859111111111,85.4651807060071L58.803195555555554,85.11824988783766L59.11054222222222,85.54236743605954L59.44173333333333,85.16989559743894L59.74612,85.59361161001976L60.181404444444446,85.27233092551502L60.55551555555556,85.34718653062029L60.882760000000005,85.496603868598L61.220035555555555,85.68181051146642L61.537084444444446,85.08757934887204L61.89952,84.89837398719189L62.19371111111111,85.23992736930487L62.46833333333333,85.07156180259487L62.742626666666666,85.30769603083671L63.08204,85.06686642068706L63.42490666666667,85.30126983104995L63.734391111111115,85.49255629407675L64.00621777777778,85.61733177678174L64.29514666666667,85.25011853323214L64.61285333333333,85.29594113794465L64.92940888888889,85.36416887740792L65.24662222222223,85.1678963345319L65.5732088888889,85.49742109310804L65.91064888888889,85.62716813285458L66.28459555555555,85.32237719654624L66.58207555555555,85.58941022371998L66.87528,85.66650318989605L67.1665111111111,85.67231507235438L67.53190666666667,85.98222859343095L67.83152444444444,85.96744087004782L68.15992,85.62765482583119L68.48782222222222,85.54004433821721L68.77691555555556,85.54879489821842L69.08064444444445,85.58545651961953L69.37154666666667,85.16321399050706L69.64583999999999,85.50870127104373L69.98278666666667,85.91613024367483L70.3721911111111,85.60943194564337L70.66490222222222,85.06229891500564L71.04147999999999,85.07733813119943L71.34636,85.14639517303118L71.66077777777778,84.8497880162943L72.02979111111111,85.3186714471667L72.40357333333333,85.60259534724288L72.79610222222222,85.29288359765849L73.12301777777778,85.37011078527354L73.39764,85.5888187332796L73.72258222222221,85.56295312427562L73.99720444444445,85.55863073458123L74.33513777777777,85.40829188221603L74.6322888888889,85.53454023476786L75.0185688888889,85.0870513121864L75.30848444444445,85.36102393153791L75.63589333333334,85.13227924158265L75.93501777777779,85.31444330483728L76.24104888888888,85.39417228859695L76.67797777777777,85.20823970891256L76.97216888888889,85.31287889157069L77.30928,85.28815589710673L77.61728444444445,85.16432134130359L77.91657333333333,85.26338700186466L78.21553333333333,85.31909350711857L78.51054666666667,85.74728719329092L78.82332,85.64401761016398L79.13675111111111,85.12214127135964L79.43538222222223,85.21202850671226L79.76723111111112,85.40329864699609L80.1127288888889,85.34112440990786L80.45724,84.8986594405614L80.77971555555555,85.23114751141327L81.0744,85.55525169349347L81.3730311111111,85.67472196565053L81.7015911111111,85.48028752890814L82.0322888888889,85.27179672770257L82.37104444444444,84.92264899762006L82.64928444444445,84.65217792243679L83.03293333333335,85.03406897575209L83.32531555555556,85.55447605723472L83.60470666666667,85.68468796893558L83.92734666666666,85.4872449140823L84.22351111111111,85.6534345186398L84.63133333333333,85.53248162488016L84.9538088888889,85.39560876023694L85.22728000000001,85.33984614450887L85.54038222222222,85.30352821969481L85.86417333333334,85.62515665425951L86.19684444444444,85.18569301446733L86.50320444444445,85.31957367229734L86.81219555555556,85.87187258701489L87.16279111111112,85.89305530727485L87.45385777777778,85.72574248993742L87.80889333333333,85.46289849689214L88.09815111111111,85.6837588620818L88.45532444444446,85.29975940660455L88.80378222222222,85.60985995457065L89.12461333333334,84.99118094161445L89.40351111111111,84.89872153112468L89.68290222222222,85.70981643384205L90.0043911111111,85.6214621602625L90.33656888888889,85.43966400498928L90.61513777777778,85.433201421945L90.91327555555556,85.35815958836596L91.25564888888889,85.3261155787642L91.61627555555555,85.25996406695457L91.90372444444445,85.61369509590395L92.20630222222222,85.32914175923305L92.55919999999999,85.0212671752908L92.94416444444444,85.30309609390129L93.23704,85.18248612771528L93.52613333333333,85.12194860869704L93.80009777777778,85.67637860354219L94.15332444444445,85.70311777339242L94.44570666666667,85.58331900921978L94.76160444444444,85.5086999206991L95.04856000000001,85.43709205324953L95.39389333333332,85.59155975541773L95.67098222222222,85.9013201305944L95.94905777777778,86.3264616340207L96.23815111111112,85.73415479718489L96.56769777777778,85.71923276936317L96.84166222222223,85.24544209692064L97.10970666666667,85.37324389966238L97.41984888888888,85.3341832897181L97.77389777777778,85.12241501457183L98.12712444444443,84.67136320857219L98.41950666666666,85.31703551166065L98.7678,85.11748717995171L99.04456,84.92219896538069L99.35387999999999,84.7005458272875L99.62192444444443,85.33821856006267L99.91036,85.2181957997339L100.22527111111111,84.95951042875392L100.55662666666667,85.64755573692764L100.96017333333333,85.96843395485189L101.30320444444445,85.67098455580297L101.60298666666667,85.3592070779337L101.96262666666667,85.02755938775142L102.23050666666666,85.51648709062815L102.59557333333333,85.2419706540351L102.90423555555556,85.25113984328773L103.1782,84.81117962588233L103.47403555555556,85.40708064311363L103.76806222222221,85.81528773828516L104.03610666666667,85.30776028945547L104.32931111111111,85.35093232342305L104.59735555555557,85.0278840705675L104.89286222222222,85.04349594145549L105.18261333333332,85.11881929415186L105.55146222222221,85.06980661021305L105.86061777777778,85.33978569189686L106.16023555555556,85.52343375492083L106.47498222222222,85.58018232707971L106.78446666666667,85.8068598540115L107.08096,85.75963896462248L107.41987999999999,85.43148856371002L107.72706222222223,85.11446169977997L108.02700888888889,85.3446295497752L108.3511288888889,85.39467205512148L108.68774666666667,85.75006001178994L108.99920444444444,85.72234901061398L109.33697333333333,85.61268701714721L109.62508,85.6149493036416L109.9021688888889,85.82052246914786L110.19932,85.62024389378121L110.55156000000001,85.33211871786051L110.81944,84.59087996484719L111.09883111111112,84.7443838596456L111.38249777777777,85.28049483299928L111.69247555555556,84.83879452705787L111.96989333333333,84.92123707390074L112.23744444444445,85.36875542793418L112.51519111111111,85.29592164512721L112.81168444444445,85.21019537065176L113.11031555555556,85.56860184916108L113.3905288888889,85.16688521533162L113.68389777777777,85.43086837666601L114.00374222222221,85.40060552917343L114.29990666666666,85.16726761437907L114.61251555555556,85.1601975475398L114.88960444444444,85.70426101891084L115.15748444444444,85.53002147798469L115.44937333333333,85.90103687360721L115.74044,85.31508390852711L116.04384,85.40339744060577L116.31155555555556,85.39755899887884L116.57927111111113,85.24696576584341L116.84698666666667,85.5173812722502L117.1712711111111,85.40783570381032L117.43964444444444,85.11190662248151L117.76261333333333,84.77077079691419L118.10334222222222,85.25254912899689L118.41529333333334,85.48486735657906L118.6867911111111,85.31519392392669L118.98805333333333,85.56609969175834L119.31677777777777,85.975297365409L119.64089777777778,85.63349758733622L119.90894222222222,85.95738485306092L120.19507555555556,85.6471046903705L120.47792,85.58125824802967L120.74579999999999,85.20974884911688L121.03949777777777,84.69167320778556L121.30754222222221,84.90138534099214L121.60666666666667,85.60344606512994L121.88276888888889,85.5873672644747L122.17169777777778,85.91175177576855L122.44516888888889,85.5901010685129L122.72357333333333,86.03045443612116L122.99474222222223,85.59063878487216L123.28811111111112,85.66227332371871L123.63278666666666,85.1128056980276L123.91990666666668,84.94707356316472L124.18828,85.46310976518764L124.46684888888889,84.85575247868046L124.73489333333333,85.34574577965823L125.04223999999999,85.28477420424514L125.31867111111112,85.17229423293526L125.60480444444444,85.71099109512005L125.8965288888889,85.26600942529102L126.21571555555555,84.89101102779425L126.52010222222222,84.85497198838064L126.85063555555556,85.16699161969463L127.1316711111111,85.57693426396156L127.43145333333334,84.95446709981981L127.77563555555557,85.18958894366872L128.04351555555556,85.85978365871223L128.32192,85.33067232688015L128.59588444444444,85.51264903974382L128.86376444444446,85.50242668886092L129.14134666666666,85.24122936307852L129.42731555555557,85.89710992085615L129.7034177777778,85.50687202398586L129.97146222222221,85.55638826718692L130.30413333333334,85.2984192563937L130.59043111111112,85.29057184421097L130.87475555555557,84.90973769881175L131.1431288888889,85.12169459377435L131.44866666666667,85.08146409818356L131.73545777777778,84.98225717442526L132.01386222222223,85.08317264495669L132.2975288888889,85.39799478875624L132.5654088888889,85.34291419045346L132.85565333333332,85.30037148866782L133.15329777777777,85.01572822614746L133.45357333333334,85.12876930644654L133.77308888888888,85.32928388840283L134.05593333333334,85.00801318124726L134.32397777777777,85.58539083263753L134.63757333333334,85.49281992591308L134.91515555555554,85.05455673978858L135.2835111111111,85.37844189909775L135.58329333333333,85.65793349807072L135.9028088888889,85.3109155706442L136.2302177777778,85.53451662372807L136.5252311111111,85.3868346423582L136.79327555555557,84.86299819294665L137.10193777777778,85.23571803655655L137.39086666666668,85.47702982477207L137.65874666666667,85.3086427834741L137.936,85.72588148993918L138.22213333333332,85.79904903937975L138.55628444444443,85.85106211405754L138.88550222222221,85.3892770999775L139.17130666666668,85.45947869742547L139.44264,85.51251653745553L139.71101333333334,85.69790382811296L140.0302,85.25627279537241L140.29824444444444,85.43971471939872L140.56563111111112,85.2768934831285L140.84929777777776,85.5700169530668L141.12852444444445,85.60139980120408L141.44491555555555,85.53425588490337L141.72628,85.377660865079L142.00386222222224,85.48654973178543L142.2868711111111,85.69371763509176L142.59504,85.75742637420691L142.9022222222222,86.07958390298484L143.20200444444444,85.65877794494033L143.4693911111111,85.40149033111214L143.79663555555555,85.79646726156402L144.08457777777778,85.59151578250605L144.3615022222222,85.48882540883467L144.6644088888889,85.89980130685477L144.93228888888888,85.53503299053376L145.20872,85.76882111725727L145.48712444444445,85.95275642691564L145.75533333333334,86.24102492701121L146.08175555555556,85.68266530258123L146.41130222222222,85.64287724627653L146.67885333333334,85.75224095424176L147.0462222222222,85.42713123941516L147.34978666666666,85.77435144414957L147.63279555555556,85.12232601541552L147.91580444444446,84.54188254772589L148.18368444444442,85.15987676679471L148.52836000000002,85.09315266072379L148.80544888888886,85.45041052496211L149.11147999999997,85.52342124936447L149.39909333333333,85.36324275587478L149.66927555555554,85.62900711211252L150.01230666666666,85.76804771132876L150.28561333333332,85.26209457223183L150.55743999999999,85.75360642137866L150.85705777777775,85.49137571729862L151.2018977777778,85.22142586754347L151.48293333333334,84.99919497517696L151.80705333333333,85.37537655084104L152.12574666666669,85.63423166780932L152.40875555555556,85.7064382583455L152.70705777777778,85.7662775820825L152.98612,85.54363390841087L153.26386666666667,85.40344597004652L153.53224,85.44786077203037L153.8004488888889,84.57029445088911L154.10253333333333,84.96645777176028L154.37008444444444,84.9052596613777L154.67463555555554,85.49261771470381L154.94268,85.24212734955594L155.25150666666664,85.43857949887541L155.54520444444444,85.09854099461333L155.8213066666667,85.34363612478315L156.1141822222222,85.29819383231006L156.38272,85.59860635523322L156.73463111111113,85.62914100125029L157.02224444444442,85.25067193290349L157.35705333333334,85.5304030262277L157.6255911111111,85.62612168329032L157.92718222222223,85.14557180605574L158.2241688888889,85.11793144346622L158.50668444444443,85.71489260555116L158.8146888888889,85.60348722196107L159.09917777777775,85.2987523940592L159.40488,85.1283205167883L159.68591555555554,85.49331274845801L159.96267555555553,84.81226034652353L160.25670222222223,84.92576174075103L160.54332888888888,86.50766789039788L160.86037777777776,86.39535322142135L161.13845333333333,86.65372070284181L161.4214622222222,87.10493311292824L161.70808888888888,86.85189978246032L161.99109777777778,86.80290998437486L162.2757511111111,86.19956755053093L162.59115555555556,85.82089563972407L162.89800888888888,85.62503248194845L163.19072,84.92783683383462L163.45909333333333,85.14151199486253L163.72960444444445,85.03885500804422L164.00027999999998,85.08792007193469L164.2684888888889,85.2580156005949L164.53669777777776,85.11122709259571L164.83171111111113,85.48912540045488L165.09992,85.8871156440205L165.36796444444445,85.78037546551384L165.68073777777778,85.55197550819015L165.97608,85.59290735462721L166.2599111111111,85.00805119835982L166.57383555555555,84.99345079042703L166.89795555555557,84.9031899391305L167.17652444444445,85.08751237503834L167.48321333333334,84.88457354135602L167.75076444444446,84.75739678518349L168.01897333333332,85.3423302029155L168.31300000000002,85.16253900614872L168.58975999999998,84.99187566809351L168.87128888888887,85.1637747119218L169.1391688888889,85.10365829410253L169.40704888888888,84.4335690304166L169.6808488888889,84.5892660978154L170.00513333333333,84.76185761706327L170.2938977777778,85.28427380333122L170.57855111111112,85.42377995735275L170.88425333333333,85.6720092540137L171.18502222222222,86.15063801319312L171.46391999999997,85.88966423339194L171.76057777777777,85.90918109695046L172.05279555555555,85.6937671153541L172.35224888888888,85.40530302815411L172.6475911111111,85.67570527728064L172.9416177777778,85.37201086244384L173.2247911111111,85.32942029691577L173.53986666666668,84.85094014201665L173.8159688888889,85.32787079449953L174.1030888888889,84.62930643818653L174.39481333333333,84.89384198821709L174.6687777777778,84.99990731619074L174.95688444444443,85.05436621512337L175.24926666666667,85.06951954367976L175.54132,85.31850284101499L175.82975555555555,85.73028331853111L176.14121333333333,86.70268001232837L176.4349111111111,86.91717971607623L176.7087111111111,86.9431121471201L176.99221333333332,86.47495919958799L177.27834666666666,86.48197196064022L177.54639111111112,86.73763795696276L177.8433777777778,86.10313951017008L178.11142222222222,85.16317730809178L178.40331111111112,85.09010147610263L178.70901333333333,85.01054482197141L179.00879555555554,85.12336079439743L179.27667555555556,86.3337445268704L179.58369333333334,86.8132067304655L179.85157333333333,89.4069331134441L180.14658666666668,91.65212924749152L180.43304888888886,92.85029286068972L180.70125777777778,94.24576607896266L180.98163555555556,91.8838061782919L181.28881777777778,92.21661942322271L181.60553777777778,90.4987488908721L181.91716000000002,90.92435317058283L182.22516444444443,90.97705658923935L182.49288,93.19072408110708L182.78789333333333,92.87108148235566L183.08652444444442,91.1599158877044L183.39814666666666,90.76849721633847L183.66602666666668,93.67119953372153L183.94262222222224,94.73252826057717L184.22069777777776,95.9308242912462L184.50551555555558,94.71950848313395L184.79888444444444,92.65782764084473L185.0766311111111,91.54588711337647L185.34385333333333,93.1940726809287L185.61156888888888,93.2588804371705L185.87895555555556,94.52080382153693L186.16245777777777,93.06550946501079L186.43905333333333,94.06351622740735L186.70726222222223,94.33311799526399L187.00457777777777,92.76415355777853L187.28824444444444,92.87244892940588L187.5564533333333,92.039805894051L187.8389688888889,93.57892860707878L188.10668444444445,93.21357872567914L188.39775111111112,93.03897166778054L188.67171555555555,92.85903695422056L188.95028444444446,91.91699480055358L189.2421733333333,92.42015043639293L189.52945777777776,91.69935897674054L189.80852,92.38116312316592L190.10501333333332,91.78820285970887L190.41696444444443,89.39138235196424L190.75259555555556,90.96285242524715L191.02014666666668,90.21529669455869L191.30315555555555,90.72996289069762L191.58287555555557,93.14509775242394L191.8696666666667,92.23617299319021L192.13771111111112,92.27950813246198L192.44292,90.71805272264736L192.74434666666667,89.20664866544875L193.02735555555557,91.4400113092546L193.29490666666666,92.33255557934548L193.57610666666665,91.36197687101428L193.86503555555555,91.7573873860363L194.13554666666667,90.9986206068232L194.4032622222222,91.30730798802581L194.67969333333332,90.39942330218439L194.99591999999998,91.58185824690511L195.3499688888889,91.66260631166847L195.65468444444446,93.38709778358312L195.93341777777778,92.78729733210665L196.21297333333334,93.91771992911018L196.48940444444446,95.37884341757963L196.7567911111111,94.5567736713974L197.02417777777777,93.79444452815582L197.2999511111111,93.46563911374409L197.5877288888889,92.0979595561981L197.85824000000002,92.4183042943573L198.1634488888889,91.27683182359313L198.46734222222221,93.43399235129698L198.73505777777777,92.27832553696838L199.01099555555555,90.81615528769618L199.32097333333334,89.1401349717815L199.61401333333333,89.15761163797615L199.90096888888888,90.42543686727664L200.20880888888888,90.65561501801002L200.51451111111112,90.1995403708219L200.84800444444446,90.93531754143234L201.14762222222222,91.98866223887917L201.41566666666668,93.09392970798204L201.69522222222224,91.61361965416545L201.97428444444444,90.39031540440723L202.33178666666666,89.28572585992339L202.61183555555556,88.44909817464543L202.87938666666668,87.78406772665616L203.17686666666665,87.57261238129401L203.44836444444442,87.49437540073073L203.73548444444444,87.13420307933615L204.05499999999998,86.62910194098549L204.35823555555555,85.8393615514016L204.6567022222222,85.56668263137196L204.93757333333332,88.32105366146477L205.23965777777778,91.57522235724875L205.53072444444444,92.56141744144885L205.8152133333333,91.71385798745233L206.09756444444443,90.40683331664131L206.37103555555558,91.06610831365423L206.64730222222224,90.10523507562539L206.9347511111111,89.60314657668627L207.21101777777778,91.2194808148167L207.50290666666666,92.53546753780971L207.79989333333333,92.33050976310331L208.0891511111111,90.31241810151434L208.43185333333335,89.19036822693643L208.69989777777778,88.46013320193946L209.01382222222222,88.04357641164219L209.34567111111113,87.62182240261886L209.6135511111111,86.54023453577906L209.88948888888888,86.05140569796892L210.15671111111112,86.45680918568809L210.4704711111111,85.90890244409108L210.73769333333334,85.9468610511104L211.03254222222222,86.15025280391453L211.3004222222222,86.00851386115121L211.57701777777777,86.2954236395667L211.84440444444445,86.00905538842142L212.11228444444444,85.39927413728869L212.42144,85.29769034068008L212.76907555555556,85.40379160690439L213.13332000000003,87.48679366378865L213.41550666666666,89.85359507720995L213.75228888888887,90.06950705242949L214.0660488888889,90.53679006214615L214.39822666666666,93.27215790340708L214.6876488888889,93.23510880225543L214.96934222222222,93.22614052625683L215.24708888888887,92.93789502818696L215.51710666666665,93.26107255005425L215.80899555555555,93.35492094626181L216.09562222222223,93.27525870484205L216.38734666666667,93.39239607144648L216.65588444444444,94.76789514714035L216.94448444444444,95.98170554455253L217.21187111111112,94.73426708588678L217.50244444444445,93.54021835928964L217.8033777777778,93.50043037775639L218.07076444444442,92.90977435137918L218.3467022222222,92.85943566337878L218.62740888888888,92.87201216325553L218.89479555555556,92.25054978910323L219.1827377777778,93.45433759440921L219.47166666666666,93.75286857455934L219.73905333333335,94.04973874193409L220.02485777777778,91.53509003700006L220.33417777777777,89.45047647703402L220.62064,88.5597430547995L220.90134666666665,88.11986278539435L221.1688977777778,87.54046713260135L221.4586488888889,89.39787345735623L221.75760888888888,91.80790885453459L222.04719555555556,93.34159786322734L222.34385333333333,93.23055045377626L222.64725333333334,91.36953365666517L222.94193777777778,91.7151830808094L223.20998222222224,89.97386099670952L223.53673333333336,92.4150685702242L223.82533333333333,94.07599482026562L224.12889777777778,92.39088507346429L224.4135511111111,92.43971414954733L224.6894888888889,93.5760387253241L224.9655911111111,92.04513215014197L225.23281333333335,92.00281436317478L225.50003555555554,90.21890266819784L225.76775111111112,89.50965472271436L226.0552,92.23615816718574L226.32258666666667,93.22121480158708L226.6271377777778,93.99942466647471L226.91902666666667,95.92956071037678L227.2388711111111,97.24796652876512L227.51941333333335,96.23479121257768L227.80308,94.89152854758444L228.09052888888888,93.69236290262903L228.3827466666667,92.83291150454738L228.6993022222222,90.99528117015397L228.96685333333332,89.87214066406749L229.2848888888889,91.22739925516046L229.57184444444445,91.53777183611629L229.93477333333334,91.65896091890001L230.2220577777778,94.87854738492764L230.5363111111111,96.63701435243485L230.80369777777778,97.61599040696261L231.07996444444444,98.16712676447176L231.34735111111112,98.5450188717934L231.62953777777776,96.83955437193468L231.95102666666665,95.60705213457439L232.35572444444446,94.78631330436524L232.67260888888887,93.1890649563435L232.96828,94.05950155772946L233.27398222222223,94.42874044727193L233.57343555555556,96.84641710848157L233.88851111111111,98.09036285358992L234.15573333333333,95.8093946759601L234.49728444444446,93.8194002905309L234.79821777777778,92.48726971380827L235.16706666666667,92.1712861790235L235.4632311111111,91.68990416133256L235.76104,91.82059996368795L236.0282622222222,92.40321746493764L236.29828,92.02010241881243L236.61779555555555,92.71061426958579L236.91922222222223,92.52814260578833L237.24909777777776,93.5631124082606L237.55315555555555,96.1493468608499L237.83879555555558,96.24810508764033L238.11193777777777,97.47263824865963L238.38771111111112,97.42237817243186L238.69900444444445,96.3215817725387L238.98464444444443,94.43604852412504L239.25186666666667,95.77653225931144L239.53520444444445,92.39547921581637L239.8025911111111,90.6124814686988L240.0992488888889,89.14905378447857L240.37239111111109,88.10000563875964L240.6956888888889,87.67839812049944L241.00122666666667,87.32141852623035L241.28884000000002,86.37408858445768L241.59108888888886,85.96870711033037L241.91044,86.02863345732982L242.1806222222222,86.06234511727509L242.46938666666665,85.5697333109046L242.7869288888889,85.45847666333108L243.0571111111111,85.10280301612609L243.33485777777778,85.13420280958411L243.62362222222222,85.23759886470553L243.7882311111111,85.44353189496468L244.13340000000002,85.41013883607549L244.44074666666666,85.55381378565409L244.7245777777778,85.3972501244198L245.02830666666665,85.45144438541237L245.30408,85.40948815224353L245.58676,85.18707381175626L245.8750311111111,85.16955702356498L246.16396,85.79244676144124L246.4492711111111,85.96644801444532L246.71649333333335,86.29344722358417L247.00410666666664,85.9670997138502L247.2713288888889,85.82492329571735L247.5604222222222,85.7761637895947L247.84326666666666,85.87676142988475L248.13235999999998,85.7438261946313L248.42441333333332,85.90254060508443L248.70725777777778,85.4523563485243L249.14648888888888,85.55432455664265L249.45071111111113,85.37887006357543L249.77516,85.294618009062L250.0608,85.69999723823751L250.36041777777777,85.5381339478009L250.6269822222222,85.55828035876233L250.97116444444447,85.46487116935896L251.23838666666666,85.62088748051553L251.51876444444443,84.98452269216675L251.81838222222223,85.81998958575903L252.14776444444445,90.02765710823641L252.44672444444444,91.39559611125533L252.7377911111111,89.96558406140652L253.00435555555555,91.77877699247746L253.2715777777778,92.46737356014101L253.54159555555555,92.58577060596376L253.8088177777778,94.51781375823157L254.08475555555555,94.13329821358762L254.3998311111111,94.14582603890086L254.7027377777778,94.71444090913764L254.9962711111111,95.3479653114738L255.2937511111111,97.30136877504954L255.6158977777778,98.43784568672163L255.88690222222223,99.31568230369558L256.15412444444445,97.73497119175715L256.42134666666664,95.84001134054257L256.72112888888887,96.24834709058041L257.0016711111111,96.73445018702647L257.2868177777778,100.16284904822052L257.56390666666664,96.78919897284712L257.84708,96.00032426957253L258.12038666666666,95.52146207120397L258.41540000000003,96.40102885023582L258.74527555555557,95.72313846263783L259.0230222222222,94.86359384723602L259.2932044444445,94.25723200719415L259.58443555555556,93.9417557578138L259.86152444444446,93.37199351435015L260.12874666666664,92.9745366313762L260.42096444444445,94.9888987671558L260.70660444444445,95.76306456394339L260.98977777777776,97.41146258632746L261.27196444444445,97.78034749579672L261.57223999999997,95.70258929581787L261.8394622222222,91.95099470526782L262.10948,90.05417710727934L262.3767022222222,88.8707554327636L262.65083111111113,92.03669276161129L262.9267688888889,92.55329455329857L263.2036933333333,92.73877839442419L263.50002222222224,93.16941337225633L263.77711111111114,92.97988816999076L264.05880444444443,92.94255387367414L264.3260266666667,91.06517803419594L264.6029511111111,92.18376143782714L264.9047066666667,91.46962354665624L265.1817955555556,92.85441090396421L265.4804266666667,93.83248043138609L265.7476488888889,93.7941995434691L266.02095555555553,96.19972025708732L266.32928888888887,96.80533899400459L266.5973333333333,96.1610791822304L266.87425777777776,92.85852084994494L267.15644444444445,90.62071837926017L267.4236666666667,89.41680572238032L267.71572000000003,88.80063078526535L268.0206,88.86011832787919L268.2878222222222,90.69993799349265L268.59434666666664,91.61032378089783L268.89528,93.18648859150622L269.16184444444445,91.2785017364467L269.48596444444445,91.8232680722025L269.75318666666664,94.37819532894773L270.06069777777776,96.59495146479418L270.4066888888889,95.7009591639412L270.68838222222223,95.2444941652043L270.9605377777778,98.55519724680326L271.2530844444444,101.06801615234221L271.52030666666667,102.84245558068756L271.7913111111111,99.3830165117121" style="fill: none;" fill="none"></path></g><g><path stroke="rgb(255, 112, 67)" stroke-width="2px" d="M35.20245777777778,-56.92163382139239L35.33763111111111,0.8432553886816834L35.49467555555556,38.541769769588115L35.61998222222222,61.035953097423985L35.758115555555555,74.63814600799614L35.88342222222222,82.94840636286771L36.05132,86.75319864481713L36.19964888888889,90.38805859880725L36.36524444444444,92.3824974913187L36.493675555555555,93.40175961707008L36.64216888888889,95.92429201825927" style="fill: none;" fill="none"></path></g></g></g></g><g opacity="0.2"><g><g><g><path stroke="rgb(204, 51, 17)" stroke-width="2px" d="M34.59039555555555,-0.6791349411010685L34.76421333333334,96.66922812461853L34.90432,91.1210765838623L35.06876444444445,94.32652492523194L35.247186666666664,90.86823220252991L35.39156888888889,92.19320058822632L35.53167555555556,94.30182571411133L35.68576,93.97542266845703L35.843133333333334,98.50566539764405L35.98324,92.01517105102539L36.131568888888886,92.23686981201172L36.316897777777776,92.34405250549317L36.46489777777778,93.74733691215515L36.594808888888885,91.97464652061463L36.729982222222226,94.23557496070862L36.885382222222226,96.03713626861573L37.03453333333333,92.4917682170868L37.16970666666667,93.9475787639618L37.33694666666666,91.85400233268739L37.49941777777778,92.9189754486084L37.672742222222226,93.36047172546387L37.81597333333333,94.1785927772522L37.98913333333333,93.54217219352722L38.160648888888886,92.34433259963988L38.31160888888889,93.66594834327698L38.48624888888889,93.26585931777954L38.67174222222222,92.005686044693L38.88601333333333,90.21148357391358L39.06344888888889,89.82195749282836L39.3014,92.78650364875794L39.54642222222222,90.8232855796814L39.740302222222226,89.07380056381226L39.97956888888889,85.40646424293519L40.16999555555555,85.65081243515014L40.410248888888894,90.48576364517213L40.60248444444444,105.33630437850952L40.79537777777778,97.45476913452148L41.123444444444445,99.16112389564513L41.34215555555556,98.81045875549317L41.58043555555556,100.39174723625183L41.850946666666665,96.08901309967041L42.072288888888885,94.24994039535522L42.328493333333334,94.15855755805968L42.57368,94.78298501968384L42.826595555555556,94.72478060722351L43.079840000000004,94.71376357078553L43.30233333333333,94.75894360542297L43.667399999999994,94.80687365531922L43.93560888888889,94.87818307876587L44.18392,95.10469861030579L44.476302222222216,94.8399926662445L44.803382222222226,95.8586865901947L45.15940444444445,95.51796054840088L45.443893333333335,95.28814754486085L45.7542,95.72789111137389L46.05579111111111,95.52062568664552L46.34406222222222,95.07800054550171L46.61884888888889,95.41412200927734L46.96303111111111,95.24837841987609L47.39272444444445,96.0389865875244L47.76848,92.81355395317077L48.29716888888889,94.05164647102356L48.797737777777776,95.62321228981018L49.304719999999996,95.84307346343995L49.80561777777778,95.91007113456726L50.148648888888886,96.42443008422852L50.63852888888889,95.78598518371582L51.06444,94.19886565208435L51.416515555555556,90.53697419166565L51.80674222222222,87.72079305648803L52.14319555555556,87.3043270111084L52.54822222222222,86.57538623809815L52.83780888888889,87.85101137161254L53.143675555555554,86.94947743415833L53.47716888888889,85.11606602668762L53.78747555555556,85.17368478775025L54.081337777777776,84.67803273200988L54.4196,85.05824780464172L54.7082,86.48674492835998L55.00814666666666,85.22230658531188L55.30398222222222,86.51281065940857L55.689933333333336,85.47546076774597L56.06256444444444,86.86295380592347L56.36514222222222,86.25137672424316L56.71869777777778,85.06838636398315L57.040679999999995,85.04325003623963L57.39193333333333,85.79190349578857L57.76555111111111,87.21475629806518L58.03951555555555,85.06546235084534L58.42859111111111,85.00209741592407L58.803195555555554,84.5978536605835L59.11054222222222,86.17854375839234L59.44173333333333,84.61118783950806L59.74612,86.22918562889099L60.181404444444446,84.79040989875793L60.55551555555556,85.4594699382782L60.882760000000005,85.72072987556457L61.220035555555555,85.95962047576904L61.537084444444446,84.19623260498047L61.89952,84.61456594467163L62.19371111111111,85.75225744247436L62.46833333333333,84.8190134525299L62.742626666666666,85.66189737319947L63.08204,84.70562200546264L63.42490666666667,85.65287494659424L63.734391111111115,85.77948598861694L64.00621777777778,85.80449500083924L64.29514666666667,84.69929866790771L64.61285333333333,85.36467504501343L64.92940888888889,85.46651048660279L65.24662222222223,84.87348752021789L65.5732088888889,85.99170823097229L65.91064888888889,85.82178869247437L66.28459555555555,84.86519079208374L66.58207555555555,85.98995976448059L66.87528,85.78214263916016L67.1665111111111,85.68103289604187L67.53190666666667,86.44709887504578L67.83152444444444,85.94525928497315L68.15992,85.11797575950622L68.48782222222222,85.40862860679627L68.77691555555556,85.56192073822021L69.08064444444445,85.6404489517212L69.37154666666667,84.52985019683838L69.64583999999999,86.02693219184876L69.98278666666667,86.52727370262146L70.3721911111111,85.14938449859619L70.66490222222222,84.24159936904907L71.04147999999999,85.09989695549011L71.34636,85.2499807357788L71.66077777777778,84.40487728118896L72.02979111111111,86.02199659347534L72.40357333333333,86.02848119735718L72.79610222222222,84.82831597328186L73.12301777777778,85.48595156669617L73.39764,85.9168806552887L73.72258222222221,85.52415471076965L73.99720444444445,85.55214715003967L74.33513777777777,85.18278360366821L74.6322888888889,85.72391276359558L75.0185688888889,84.41581792831421L75.30848444444445,85.77198286056519L75.63589333333334,84.78916220664978L75.93501777777779,85.58768939971924L76.24104888888888,85.51376576423645L76.67797777777777,84.92934083938599L76.97216888888889,85.46983766555786L77.30928,85.25107140541077L77.61728444444445,84.97856950759888L77.91657333333333,85.4119854927063L78.21553333333333,85.40265326499939L78.51054666666667,86.38957772254943L78.82332,85.48911323547364L79.13675111111111,84.33932676315308L79.43538222222223,85.34685935974122L79.76723111111112,85.69020385742188L80.1127288888889,85.24786305427551L80.45724,84.23496198654175L80.77971555555555,85.72987961769104L81.0744,86.04140796661378L81.3730311111111,85.85392737388611L81.7015911111111,85.18863587379455L82.0322888888889,84.95906052589416L82.37104444444444,84.39892740249634L82.64928444444445,84.24647130966187L83.03293333333335,85.60690555572509L83.32531555555556,86.33508667945861L83.60470666666667,85.88000583648682L83.92734666666666,85.19108033180237L84.22351111111111,85.90271892547608L84.63133333333333,85.35105228424072L84.9538088888889,85.1902994632721L85.22728000000001,85.25620222091675L85.54038222222222,85.24905133247375L85.86417333333334,86.10759930610656L86.19684444444444,84.52649755477906L86.50320444444445,85.52039465904235L86.81219555555556,86.70032095909119L87.16279111111112,85.9248293876648L87.45385777777778,85.47477326393127L87.80889333333333,85.06863250732422L88.09815111111111,86.01504940986634L88.45532444444446,84.72376022338867L88.80378222222222,86.07501077651978L89.12461333333334,84.06316242218017L89.40351111111111,84.76003241539001L89.68290222222222,86.9264587879181L90.0043911111111,85.48893074989319L90.33656888888889,85.16696677207946L90.61513777777778,85.42350754737853L90.91327555555556,85.24559683799744L91.25564888888889,85.27804956436157L91.61627555555555,85.16073679924011L91.90372444444445,86.144291639328L92.20630222222222,84.90231175422669L92.55919999999999,84.55945529937745L92.94416444444444,85.72583947181701L93.23704,85.00157117843628L93.52613333333333,85.03114233016967L93.80009777777778,86.50802359580993L94.15332444444445,85.74322652816772L94.44570666666667,85.40362086296082L94.76160444444444,85.39677128791809L95.04856000000001,85.32968025207519L95.39389333333332,85.82326130867004L95.67098222222222,86.36596069335937L95.94905777777778,86.96417388916015L96.23815111111112,84.84569454193115L96.56769777777778,85.69684972763062L96.84166222222223,84.53475608825684L97.10970666666667,85.56494660377503L97.41984888888888,85.27559237480163L97.77389777777778,84.80476260185242L98.12712444444443,83.99478549957276L98.41950666666666,86.28554396629333L98.7678,84.8181646823883L99.04456,84.62926664352418L99.35387999999999,84.3680661201477L99.62192444444443,86.29472765922546L99.91036,85.03816165924073L100.22527111111111,84.57148237228394L100.55662666666667,86.67962369918823L100.96017333333333,86.44975128173829L101.30320444444445,85.22481045722961L101.60298666666667,84.89154086112976L101.96262666666667,84.53008785247803L102.23050666666666,86.24987864494324L102.59557333333333,84.8301959991455L102.90423555555556,85.26489362716674L103.1782,84.15123929977418L103.47403555555556,86.30093216896057L103.76806222222221,86.42759838104249L104.03610666666667,84.54646911621094L104.32931111111111,85.41569037437439L104.59735555555557,84.54331169128417L104.89286222222222,85.06691374778748L105.18261333333332,85.23180432319641L105.55146222222221,84.99628758430481L105.86061777777778,85.74475431442261L106.16023555555556,85.79890584945679L106.47498222222222,85.66530518531799L106.78446666666667,86.14687614440918L107.08096,85.68880763053895L107.41987999999999,84.9392629623413L107.72706222222223,84.6389214038849L108.02700888888889,85.68988132476807L108.3511288888889,85.46973581314087L108.68774666666667,86.2831419467926L108.99920444444444,85.6807825088501L109.33697333333333,85.44819402694702L109.62508,85.61834273338317L109.9021688888889,86.12888221740722L110.19932,85.3198260307312L110.55156000000001,84.89993095397949L110.81944,83.47902183532715L111.09883111111112,84.97463970184326L111.38249777777777,86.08466129302978L111.69247555555556,84.17624406814575L111.96989333333333,85.04490089416504L112.23744444444445,86.04003295898437L112.51519111111111,85.18667097091675L112.81168444444445,85.0816059589386L113.11031555555556,86.10621156692505L113.3905288888889,84.5643102645874L113.68389777777777,85.8268431186676L114.00374222222221,85.35521125793457L114.29990666666666,84.8172607421875L114.61251555555556,85.14959244728088L114.88960444444444,86.5203562259674L115.15748444444444,85.26866216659546L115.44937333333333,86.45755996704102L115.74044,84.43615446090698L116.04384,85.53586773872375L116.31155555555556,85.38880133628845L116.57927111111113,85.02107591629029L116.84698666666667,85.92300453186036L117.1712711111111,85.24351735115052L117.43964444444444,84.66801300048829L117.76261333333333,84.25906705856323L118.10334222222222,85.97521662712097L118.41529333333334,85.83334469795227L118.6867911111111,85.06068377494812L118.98805333333333,85.94245834350586L119.31677777777777,86.58909387588501L119.64089777777778,85.12079792022705L119.90894222222222,86.44321575164795L120.19507555555556,85.18168444633484L120.47792,85.48248858451844L120.74579999999999,84.65248475074767L121.03949777777777,83.91455974578858L121.30754222222221,85.215953540802L121.60666666666667,86.65653715133666L121.88276888888889,85.56324906349182L122.17169777777778,86.39832854270935L122.44516888888889,85.1076250076294L122.72357333333333,86.69098448753357L122.99474222222223,84.93091530799866L123.28811111111112,85.76972513198852L123.63278666666666,84.28860425949097L123.91990666666668,84.69847536087036L124.18828,86.23716406822204L124.46684888888889,83.94471654891967L124.73489333333333,86.08073573112488L125.04223999999999,85.1933168411255L125.31867111111112,85.00357427597046L125.60480444444444,86.51903638839721L125.8965288888889,84.59853692054749L126.21571555555555,84.32851343154907L126.52010222222222,84.80091342926025L126.85063555555556,85.63502106666564L127.1316711111111,86.19184823036194L127.43145333333334,84.02076635360717L127.77563555555557,85.54227170944213L128.04351555555556,86.86507573127747L128.32192,84.53700532913209L128.59588444444444,85.7856141090393L128.86376444444446,85.48709316253662L129.14134666666666,84.84943337440491L129.42731555555557,86.88093075752258L129.7034177777778,84.92151517868042L129.97146222222221,85.63066263198853L130.30413333333334,84.91146574020385L130.59043111111112,85.27880072593689L130.87475555555557,84.33848648071289L131.1431288888889,85.43962993621827L131.44866666666667,85.02111835479737L131.73545777777778,84.83344678878784L132.01386222222223,85.23454585075379L132.2975288888889,85.87022800445557L132.5654088888889,85.26029329299926L132.85565333333332,85.23655743598938L133.15329777777777,84.58876333236694L133.45357333333334,85.29833092689515L133.77308888888888,85.63005576133727L134.05593333333334,84.52610712051391L134.32397777777777,86.4514573097229L134.63757333333334,85.35396356582642L134.91515555555554,84.3971619606018L135.2835111111111,85.86426963806153L135.58329333333333,86.07717089653015L135.9028088888889,84.79038867950439L136.2302177777778,85.86991820335388L136.5252311111111,85.16531167030334L136.79327555555557,84.07724351882935L137.10193777777778,85.79479780197144L137.39086666666668,85.83899750709534L137.65874666666667,85.0560622215271L137.936,86.35173954963685L138.22213333333332,85.90880036354065L138.55628444444443,85.92908172607422L138.88550222222221,84.69659957885742L139.17130666666668,85.56478109359742L139.44264,85.5920732975006L139.71101333333334,85.97598476409912L140.0302,84.5938262462616L140.29824444444444,85.71487760543823L140.56563111111112,85.03266162872315L140.84929777777776,86.00970215797425L141.12852444444445,85.64847407341003L141.44491555555555,85.43354001045228L141.72628,85.14276833534241L142.00386222222224,85.64988303184509L142.2868711111111,86.00446949005126L142.59504,85.85298948287964L142.9022222222222,86.56282019615173L143.20200444444444,85.02756900787354L143.4693911111111,85.01555891036988L143.79663555555555,86.38893265724182L144.08457777777778,85.28408856391907L144.3615022222222,85.33478984832763L144.6644088888889,86.51626515388489L144.93228888888888,84.98788051605224L145.20872,86.11950330734253L145.48712444444445,86.2286593914032L145.75533333333334,86.67342767715454L146.08175555555556,84.84512586593628L146.41130222222222,85.58319516181946L146.67885333333334,85.91628651618957L147.0462222222222,84.9394666671753L147.34978666666666,86.29518175125122L147.63279555555556,84.14428787231445L147.91580444444446,83.67121734619141L148.18368444444442,86.08686809539795L148.52836000000002,84.99306650161743L148.80544888888886,85.98629732131958L149.11147999999997,85.63293733596802L149.39909333333333,85.12297501564026L149.66927555555554,86.02765364646912L150.01230666666666,85.97660861015319L150.28561333333332,84.50316486358642L150.55743999999999,86.49087419509888L150.85705777777775,85.09802966117859L151.2018977777778,84.81650109291077L151.48293333333334,84.6658486366272L151.80705333333333,85.93964891433716L152.12574666666669,86.02251434326172L152.40875555555556,85.81474814414977L152.70705777777778,85.856036567688L152.98612,85.20966839790344L153.26386666666667,85.1931640625L153.53224,85.5144829750061L153.8004488888889,83.25394496917724L154.10253333333333,85.56070275306702L154.37008444444444,84.81346249580383L154.67463555555554,86.373654794693L154.94268,84.86639180183411L155.25150666666664,85.73325772285462L155.54520444444444,84.58848323822022L155.8213066666667,85.71127882003785L156.1141822222222,85.23003039360046L156.38272,86.04922513961792L156.73463111111113,85.67494297027588L157.02224444444442,84.6829683303833L157.35705333333334,85.94999966621398L157.6255911111111,85.76969966888427L157.92718222222223,84.42474699020386L158.2241688888889,85.0764708995819L158.50668444444443,86.61033434867859L158.8146888888889,85.43637914657593L159.09917777777775,84.84165015220643L159.40488,84.87267270088196L159.68591555555554,86.04080109596252L159.96267555555553,83.79068174362183L160.25670222222223,85.09601383209228L160.54332888888888,88.88052711486816L160.86037777777776,86.22688121795655L161.13845333333333,87.04127192497253L161.4214622222222,87.78175172805786L161.70808888888888,86.47234978675843L161.99109777777778,86.7294252872467L162.2757511111111,85.29455389976502L162.59115555555556,85.25288777351379L162.89800888888888,85.33123774528504L163.19072,83.88204336166382L163.45909333333333,85.46202473640442L163.72960444444445,84.88486952781678L164.00027999999998,85.16151766777038L164.2684888888889,85.5131588935852L164.53669777777776,84.89104433059693L164.83171111111113,86.05597286224365L165.09992,86.4841010093689L165.36796444444445,85.62026519775391L165.68073777777778,85.20937557220459L165.97608,85.65430512428284L166.2599111111111,84.13076696395873L166.57383555555555,84.97155017852783L166.89795555555557,84.76779866218567L167.17652444444445,85.36399602890015L167.48321333333334,84.58016529083253L167.75076444444446,84.56663165092468L168.01897333333332,86.21973032951355L168.31300000000002,84.89285221099854L168.58975999999998,84.73588066101074L168.87128888888887,85.42162327766418L169.1391688888889,85.01348366737366L169.40704888888888,83.42843513488769L169.6808488888889,84.82281169891357L170.00513333333333,85.02074489593505L170.2938977777778,86.06789808273315L170.57855111111112,85.63303918838501L170.88425333333333,86.04435319900513L171.18502222222222,86.86858115196227L171.46391999999997,85.49820356369018L171.76057777777777,85.9384563922882L172.05279555555555,85.3706461429596L172.35224888888888,84.97260689735413L172.6475911111111,86.08130865097046L172.9416177777778,84.9164692401886L173.2247911111111,85.26553444862365L173.53986666666668,84.13321990966797L173.8159688888889,86.04326677322388L174.1030888888889,83.58145990371705L174.39481333333333,85.29064531326294L174.6687777777778,85.15900530815125L174.95688444444443,85.13605456352234L175.24926666666667,85.09224953651429L175.54132,85.69197778701782L175.82975555555555,86.3479540348053L176.14121333333333,88.1612750530243L176.4349111111111,87.238929271698L176.7087111111111,86.98201079368592L176.99221333333332,85.7727297782898L177.27834666666666,86.49249110221862L177.54639111111112,87.12113695144653L177.8433777777778,85.15139183998107L178.11142222222222,83.75323400497436L178.40331111111112,84.9804877281189L178.70901333333333,84.89120984077454L179.00879555555554,85.2925847530365L179.27667555555556,88.14932012557983L179.58369333333334,87.53240003585816L179.85157333333333,93.29752268791198L180.14658666666668,95.01992344856262L180.43304888888886,94.64753828048707L180.70125777777778,96.33897590637207L180.98163555555556,88.34086632728577L181.28881777777778,92.71583929061889L181.60553777777778,87.9219430923462L181.91716000000002,91.56275959014893L182.22516444444443,91.05611171722411L182.49288,96.5112253189087L182.78789333333333,92.39161758422851L183.08652444444442,88.59316749572754L183.39814666666666,90.18136920928954L183.66602666666668,98.02525300979615L183.94262222222224,96.32452135086059L184.22069777777776,97.72826833724976L184.50551555555558,92.90253477096557L184.79888444444444,89.56530637741089L185.0766311111111,89.87797632217406L185.34385333333333,95.66635103225708L185.61156888888888,93.35609207153321L185.87895555555556,96.41368889808655L186.16245777777777,90.88256793022155L186.43905333333333,95.5605263710022L186.70726222222223,94.73752064704895L187.00457777777777,90.41070690155028L187.28824444444444,93.03489198684692L187.5564533333333,90.79084134101868L187.8389688888889,95.88761267662049L188.10668444444445,92.66555390357972L188.39775111111112,92.77706108093263L188.67171555555555,92.58913488388062L188.95028444444446,90.5039315700531L189.2421733333333,93.17488389015197L189.52945777777776,90.61817178726197L189.80852,93.40386934280396L190.10501333333332,90.89876246452332L190.41696444444443,85.79615159034729L190.75259555555556,93.3200575351715L191.02014666666668,89.093963098526L191.30315555555555,91.501962184906L191.58287555555557,96.76780004501343L191.8696666666667,90.8727858543396L192.13771111111112,92.34451084136963L192.44292,88.37586960792541L192.74434666666667,86.93954257965088L193.02735555555557,94.79005527496338L193.29490666666666,93.67137198448181L193.57610666666665,89.90610880851746L193.86503555555555,92.35050315856934L194.13554666666667,89.86047043800353L194.4032622222222,91.77033905982971L194.67969333333332,89.03759627342224L194.99591999999998,93.35551066398621L195.3499688888889,91.78372840881347L195.65468444444446,95.97383499145508L195.93341777777778,91.88759665489196L196.21297333333334,95.61335382461549L196.48940444444446,97.5705286502838L196.7567911111111,93.32366905212403L197.02417777777777,92.65095081329345L197.2999511111111,92.97243099212646L197.5877288888889,90.04644021987916L197.85824000000002,92.89882140159607L198.1634488888889,89.5646231174469L198.46734222222221,96.66973314285279L198.73505777777777,90.54482531547546L199.01099555555555,88.62289991378785L199.32097333333334,86.62610449790955L199.61401333333333,89.18382663726807L199.90096888888888,92.32717471122741L200.20880888888888,91.00088224411012L200.51451111111112,89.51542840003968L200.84800444444446,92.03898329734803L201.14762222222222,93.56867928504944L201.41566666666668,94.75183091163636L201.69522222222224,89.39315457344055L201.97428444444444,88.5553590297699L202.33178666666666,87.62884154319764L202.61183555555556,87.19415664672852L202.87938666666668,86.78652205467225L203.17686666666665,87.25542936325073L203.44836444444442,87.37701992988586L203.73548444444444,86.59394459724426L204.05499999999998,85.87145023345947L204.35823555555555,84.65475096702576L204.6567022222222,85.15766425132752L204.93757333333332,92.452610206604L205.23965777777778,96.45647540092467L205.53072444444444,94.04071006774903L205.8152133333333,90.44251880645753L206.09756444444443,88.4462963104248L206.37103555555558,92.05502080917358L206.64730222222224,88.66392521858215L206.9347511111111,88.85001382827758L207.21101777777778,93.64398217201233L207.50290666666666,94.50944762229919L207.79989333333333,92.02307310104369L208.0891511111111,87.28528060913087L208.43185333333335,87.50729341506958L208.69989777777778,87.36478066444397L209.01382222222222,87.41874122619629L209.34567111111113,86.98919138908386L209.6135511111111,84.9178527355194L209.88948888888888,85.31816244125366L210.15671111111112,87.06491441726685L210.4704711111111,85.08704233169556L210.73769333333334,86.0037989616394L211.03254222222222,86.45534043312072L211.3004222222222,85.79590544700622L211.57701777777777,86.72578830718994L211.84440444444445,85.5795030117035L212.11228444444444,84.4846022605896L212.42144,85.14531464576721L212.76907555555556,85.56294350624084L213.13332000000003,90.611296749115L213.41550666666666,93.40379719734192L213.75228888888887,90.3933750152588L214.0660488888889,91.23771457672119L214.39822666666666,97.37520966529847L214.6876488888889,93.17953515052795L214.96934222222222,93.2126881122589L215.24708888888887,92.50552678108215L215.51710666666665,93.74583883285523L215.80899555555555,93.49569354057313L216.09562222222223,93.1557653427124L216.38734666666667,93.56810212135315L216.65588444444444,96.83114376068114L216.94448444444444,97.80242114067077L217.21187111111112,92.86310939788818L217.50244444444445,91.74914526939392L217.8033777777778,93.44074840545655L218.07076444444442,92.02379031181336L218.3467022222222,92.78392763137818L218.62740888888888,92.89087691307067L218.89479555555556,91.31835622787476L219.1827377777778,95.26001930236816L219.47166666666666,94.20066504478454L219.73905333333335,94.49504399299622L220.02485777777778,87.763116979599L220.33417777777777,86.32355613708496L220.62064,87.22364292144775L220.90134666666665,87.46004238128663L221.1688977777778,86.67137365341186L221.4586488888889,92.18398294448853L221.75760888888888,95.42296195030212L222.04719555555556,95.64213137626648L222.34385333333333,93.06397933959961L222.64725333333334,88.57800846099853L222.94193777777778,92.23365721702577L223.20998222222224,87.3618778705597L223.53673333333336,96.07687993049622L223.82533333333333,96.56738419532776L224.12889777777778,89.86322045326233L224.4135511111111,92.51295776367188L224.6894888888889,95.28052558898925L224.9655911111111,89.74877228736877L225.23281333333335,91.939337682724L225.50003555555554,87.54303512573242L225.76775111111112,88.44578280448914L226.0552,96.32591333389281L226.32258666666667,94.69879975318908L226.6271377777778,95.16673946380615L226.91902666666667,98.82476477622986L227.2388711111111,99.22557525634765L227.51941333333335,94.71502823829651L227.80308,92.87663455009461L228.09052888888888,91.89361443519591L228.3827466666667,91.54373440742494L228.6993022222222,88.23883566856384L228.96685333333332,88.18742990493774L229.2848888888889,93.26028714179994L229.57184444444445,92.00333070755005L229.93477333333334,91.84074454307556L230.2220577777778,99.70792708396912L230.5363111111111,99.27471480369569L230.80369777777778,99.08445448875428L231.07996444444444,98.99383130073547L231.34735111111112,99.11185703277589L231.62953777777776,94.28135762214661L231.95102666666665,93.75829877853393L232.35572444444446,93.55520505905152L232.67260888888887,90.79319243431091L232.96828,95.36515645980835L233.27398222222223,94.9825987815857L233.57343555555556,100.47293210029602L233.88851111111111,99.95628147125244L234.15573333333333,92.38794240951539L234.49728444444446,90.83440871238709L234.79821777777778,90.48907384872437L235.16706666666667,91.69731087684632L235.4632311111111,90.96783113479614L235.76104,92.01664366722106L236.0282622222222,93.27714371681213L236.29828,91.44542984962463L236.61779555555555,93.74638204574585L236.91922222222223,92.25443511009216L237.24909777777776,95.11556711196899L237.55315555555555,100.0286985397339L237.83879555555558,96.39624242782592L238.11193777777777,99.3094379901886L238.38771111111112,97.34698805809022L238.69900444444445,94.67038717269897L238.98464444444443,91.60774865150451L239.25186666666667,97.78725786209107L239.53520444444445,87.32389965057374L239.8025911111111,87.93798484802247L240.0992488888889,86.9539122581482L240.37239111111109,86.52643342018128L240.6956888888889,87.04598684310913L241.00122666666667,86.78594913482667L241.28884000000002,84.95309367179871L241.59108888888886,85.3606348991394L241.91044,86.11852297782897L242.1806222222222,86.112912607193L242.46938666666665,84.83081560134887L242.7869288888889,85.29159169197082L243.0571111111111,84.5692925453186L243.33485777777778,85.18130249977112L243.62362222222222,85.3926929473877L243.7882311111111,85.75243144035339L244.13340000000002,85.3600492477417L244.44074666666666,85.76932621002197L244.7245777777778,85.16240463256835L245.02830666666665,85.53273577690125L245.30408,85.34655380249023L245.58676,84.85345230102538L245.8750311111111,85.14328184127808L246.16396,86.72678136825562L246.4492711111111,86.22744989395142L246.71649333333335,86.78394603729248L247.00410666666664,85.47757844924926L247.2713288888889,85.61165866851806L247.5604222222222,85.70302453041077L247.84326666666666,86.02765789031983L248.13235999999998,85.5444233417511L248.42441333333332,86.14061222076415L248.70725777777778,84.77707996368409L249.14648888888888,85.70727686882019L249.45071111111113,85.11568832397461L249.77516,85.16823992729186L250.0608,86.30806608200074L250.36041777777777,85.295339012146L250.6269822222222,85.58849997520447L250.97116444444447,85.3247573852539L251.23838666666666,85.85491194725037L251.51876444444443,84.02997550964355L251.81838222222223,87.07318992614746L252.14776444444445,96.33915839195252L252.44672444444444,93.4475046157837L252.7377911111111,87.8205659866333L253.00435555555555,94.49856638908386L253.2715777777778,93.50026841163636L253.54159555555555,92.76336617469788L253.8088177777778,97.4158784866333L254.08475555555555,93.5565248966217L254.3998311111111,94.16461777687073L254.7027377777778,95.5673632144928L254.9962711111111,96.29825191497802L255.2937511111111,100.2314739704132L255.6158977777778,100.14256105422974L255.88690222222223,100.6324372291565L256.15412444444445,95.36390452384948L256.42134666666664,92.99757156372071L256.72112888888887,96.8608507156372L257.0016711111111,97.46360483169555L257.2868177777778,105.3054473400116L257.56390666666664,91.728723859787L257.84708,94.81701221466064L258.12038666666666,94.80316877365112L258.41540000000003,97.72037901878356L258.74527555555557,94.70630288124084L259.0230222222222,93.5742769241333L259.2932044444445,93.34768924713136L259.58443555555556,93.46854138374329L259.86152444444446,92.51735014915467L260.12874666666664,92.37835130691529L260.42096444444445,98.0104419708252L260.70660444444445,96.92431325912476L260.98977777777776,99.88405961990357L261.27196444444445,98.33367486000061L261.57223999999997,92.58595199584961L261.8394622222222,86.32360281944275L262.10948,87.20895071029663L262.3767022222222,87.09562292099L262.65083111111113,96.78559875488281L262.9267688888889,93.32819724082947L263.2036933333333,93.01700415611266L263.50002222222224,93.81536583900451L263.77711111111114,92.69560036659242L264.05880444444443,92.88655242919923L264.3260266666667,88.24911427497864L264.6029511111111,93.86163654327392L264.9047066666667,90.3984167098999L265.1817955555556,94.93159193992615L265.4804266666667,95.29958472251893L265.7476488888889,93.73677821159363L266.02095555555553,99.80800132751465L266.32928888888887,97.71376709938049L266.5973333333333,95.1946894645691L266.87425777777776,87.90468335151672L267.15644444444445,87.26401467323304L267.4236666666667,87.61093673706054L267.71572000000003,87.87636837959289L268.0206,88.94934964179993L268.2878222222222,93.45966749191284L268.59434666666664,92.9759024620056L268.89528,95.55073580741883L269.16184444444445,88.41652145385743L269.48596444444445,92.64041757583618L269.75318666666664,98.21058621406554L270.06069777777776,99.92008566856384L270.4066888888889,94.35997071266173L270.68838222222223,94.55979666709901L270.9605377777778,103.52125186920166L271.2530844444444,104.83724451065063L271.52030666666667,105.50411472320557L271.7913111111111,94.1938579082489" style="fill: none;" fill="none"></path></g><g><path stroke="rgb(255, 112, 67)" stroke-width="2px" d="M34.49436,-1874.6791549682616L34.63265777777777,71.65556039810181L34.75796444444445,89.35254940986634L34.90596444444444,89.07184839248657L35.041466666666665,85.89357767105102L35.20245777777778,84.88326110839844L35.33763111111111,87.46614503860474L35.49467555555556,95.07996969223022L35.61998222222222,94.77380132675171L35.758115555555555,95.04019207954407L35.88342222222222,95.41334114074708L36.05132,92.46026186943054L36.19964888888889,95.84027676582336L36.36524444444444,95.37413220405578L36.493675555555555,94.93064556121827L36.64216888888889,99.7080798625946" style="fill: none;" fill="none"></path></g></g></g></g></g></g><g transform="translate(34, 178)" clip-path="url(#clip_1)"><clipPath id="clip_1"><rect width="295" height="21"></rect></clipPath><g><g><line x1="0" y1="0" x2="0" y2="5" style="visibility: inherit;" fill="rgb(0, 0, 0)" stroke="rgb(204, 204, 204)" stroke-width="1px"></line><line x1="32.888888888888886" y1="0" x2="32.888888888888886" y2="5" style="visibility: inherit;" fill="rgb(0, 0, 0)" stroke="rgb(204, 204, 204)" stroke-width="1px"></line><line x1="65.77777777777777" y1="0" x2="65.77777777777777" y2="5" style="visibility: inherit;" fill="rgb(0, 0, 0)" stroke="rgb(204, 204, 204)" stroke-width="1px"></line><line x1="98.66666666666666" y1="0" x2="98.66666666666666" y2="5" style="visibility: inherit;" fill="rgb(0, 0, 0)" stroke="rgb(204, 204, 204)" stroke-width="1px"></line><line x1="131.55555555555554" y1="0" x2="131.55555555555554" y2="5" style="visibility: inherit;" fill="rgb(0, 0, 0)" stroke="rgb(204, 204, 204)" stroke-width="1px"></line><line x1="164.44444444444446" y1="0" x2="164.44444444444446" y2="5" style="visibility: inherit;" fill="rgb(0, 0, 0)" stroke="rgb(204, 204, 204)" stroke-width="1px"></line><line x1="197.33333333333331" y1="0" x2="197.33333333333331" y2="5" style="visibility: inherit;" fill="rgb(0, 0, 0)" stroke="rgb(204, 204, 204)" stroke-width="1px"></line><line x1="230.22222222222223" y1="0" x2="230.22222222222223" y2="5" style="visibility: inherit;" fill="rgb(0, 0, 0)" stroke="rgb(204, 204, 204)" stroke-width="1px"></line><line x1="263.1111111111111" y1="0" x2="263.1111111111111" y2="5" style="visibility: inherit;" fill="rgb(0, 0, 0)" stroke="rgb(204, 204, 204)" stroke-width="1px"></line><line x1="296" y1="0" x2="296" y2="5" style="visibility: inherit;" fill="rgb(0, 0, 0)" stroke="rgb(204, 204, 204)" stroke-width="1px"></line></g><g transform="translate(0, 8)"><text x="0" y="0" dx="0em" dy="0.95em" style="text-anchor: middle; visibility: hidden; font-family: &quot;Helvetica Neue&quot;, sans-serif; font-size: 12px; font-weight: 200;" fill="rgb(50, 49, 63)" stroke="none" stroke-width="1px">-200k</text><text x="32.888888888888886" y="0" dx="0em" dy="0.95em" style="text-anchor: middle; visibility: inherit; font-family: &quot;Helvetica Neue&quot;, sans-serif; font-size: 12px; font-weight: 200;" fill="rgb(50, 49, 63)" stroke="none" stroke-width="1px">0</text><text x="65.77777777777777" y="0" dx="0em" dy="0.95em" style="text-anchor: middle; visibility: hidden; font-family: &quot;Helvetica Neue&quot;, sans-serif; font-size: 12px; font-weight: 200;" fill="rgb(50, 49, 63)" stroke="none" stroke-width="1px">200k</text><text x="98.66666666666666" y="0" dx="0em" dy="0.95em" style="text-anchor: middle; visibility: inherit; font-family: &quot;Helvetica Neue&quot;, sans-serif; font-size: 12px; font-weight: 200;" fill="rgb(50, 49, 63)" stroke="none" stroke-width="1px">400k</text><text x="131.55555555555554" y="0" dx="0em" dy="0.95em" style="text-anchor: middle; visibility: hidden; font-family: &quot;Helvetica Neue&quot;, sans-serif; font-size: 12px; font-weight: 200;" fill="rgb(50, 49, 63)" stroke="none" stroke-width="1px">600k</text><text x="164.44444444444446" y="0" dx="0em" dy="0.95em" style="text-anchor: middle; visibility: inherit; font-family: &quot;Helvetica Neue&quot;, sans-serif; font-size: 12px; font-weight: 200;" fill="rgb(50, 49, 63)" stroke="none" stroke-width="1px">800k</text><text x="197.33333333333331" y="0" dx="0em" dy="0.95em" style="text-anchor: middle; visibility: hidden; font-family: &quot;Helvetica Neue&quot;, sans-serif; font-size: 12px; font-weight: 200;" fill="rgb(50, 49, 63)" stroke="none" stroke-width="1px">1M</text><text x="230.22222222222223" y="0" dx="0em" dy="0.95em" style="text-anchor: middle; visibility: inherit; font-family: &quot;Helvetica Neue&quot;, sans-serif; font-size: 12px; font-weight: 200;" fill="rgb(50, 49, 63)" stroke="none" stroke-width="1px">1.2M</text><text x="263.1111111111111" y="0" dx="0em" dy="0.95em" style="text-anchor: middle; visibility: hidden; font-family: &quot;Helvetica Neue&quot;, sans-serif; font-size: 12px; font-weight: 200;" fill="rgb(50, 49, 63)" stroke="none" stroke-width="1px">1.4M</text><text x="296" y="0" dx="0em" dy="0.95em" style="text-anchor: middle; visibility: hidden; font-family: &quot;Helvetica Neue&quot;, sans-serif; font-size: 12px; font-weight: 200;" fill="rgb(50, 49, 63)" stroke="none" stroke-width="1px">1.6M</text></g><line x1="0" y1="0" x2="296" y2="0" fill="rgb(0, 0, 0)" stroke="rgb(204, 204, 204)" stroke-width="1px"></line></g></g></g></g></svg>